<svg xmlns="http://www.w3.org/2000/svg" xmlns:xlink="http://www.w3.org/1999/xlink" width="305" height="580" viewBox="0 0 305 580">
  <defs>
    <clipPath id="clip-path">
      <rect id="Rectangle_33070" data-name="Rectangle 33070" width="325.643" height="328.916" fill="#804941"/>
    </clipPath>

    <pattern id="pattern" preserveAspectRatio="xMidYMid slice" width="100%" height="100%" viewBox="0 0 2048 1381">
      <image width="2048" height="1381" xlink:href="https://alphagridinfographics.com/pictet-asias-new-economic-engine/img/globe.png" />
    </pattern>

  </defs>




  <g id="Illustration" transform="translate(-50 -2340)">

    
    <g data-ag="triangles" opacity="0.25">
      <g transform="translate(-987.139 2003.669)">
        <path id="Polygon_9" d="M26,0,52,38H0Z" transform="translate(1163.882 862.276)" fill="#804941" />
        <path id="Polygon_14" d="M26,0,52,38H0Z" transform="translate(1163.882 800)" fill="#804941" />
        <path id="Polygon_15" d="M26,0,52,38H0Z" transform="translate(1163.882 680.509)" fill="#804941" />
      </g>
    </g>

    <g data-ag="circleimg">

      <rect width="300" height="300" transform="translate(52.543 2354)" fill="url(#pattern)"/>
    

      <g data-ag="spiral">
    <g id="Group_48618" data-name="Group 48618" transform="translate(8708.24 9586.842)">
      <g id="Group_48055" data-name="Group 48055" transform="translate(-8631.491 -7200.033)">
        <g id="Group_48050" data-name="Group 48050" transform="translate(4.36 0)">
          <g id="Group_48051" data-name="Group 48051" transform="translate(0 0)">
            <path id="Path_64257" data-name="Path 64257" d="M107.194,40.25a66.363,66.363,0,0,1,0,132.727" transform="translate(17.439 6.508)" fill="none" stroke="#000" stroke-linecap="round" stroke-linejoin="round" stroke-width="0.5"/>
            <path id="Path_64258" data-name="Path 64258" d="M169.669,97.195a54.709,54.709,0,0,1-109.419,0" transform="translate(9.674 15.927)" fill="none" stroke="#000" stroke-linecap="round" stroke-linejoin="round" stroke-width="0.5"/>
            <path id="Path_64259" data-name="Path 64259" d="M156.361,103.306a43.055,43.055,0,1,1-43.055-43.055A43.055,43.055,0,0,1,156.361,103.306Z" transform="translate(11.328 9.817)" fill="none" stroke="#000" stroke-linecap="round" stroke-linejoin="round" stroke-width="0.5"/>
            <path id="Path_64260" data-name="Path 64260" d="M107.194,70.25a31.4,31.4,0,0,1,0,62.8" transform="translate(17.439 11.471)" fill="none" stroke="#000" stroke-linecap="round" stroke-linejoin="round" stroke-width="0.5"/>
            <path id="Path_64261" data-name="Path 64261" d="M118.267,186.285a78.018,78.018,0,0,1,0-156.035" transform="translate(6.366 4.854)" fill="none" stroke="#000" stroke-linecap="round" stroke-linejoin="round" stroke-width="0.5"/>
            <circle id="Ellipse_68" data-name="Ellipse 68" cx="89.671" cy="89.671" r="89.671" transform="translate(34.849 202.68) rotate(-89.927)" fill="none" stroke="#000" stroke-linecap="round" stroke-linejoin="round" stroke-width="0.5"/>
            <path id="Path_64262" data-name="Path 64262" d="M107.194,10.25a101.326,101.326,0,0,1,0,202.651" transform="translate(17.439 1.546)" fill="none" stroke="#000" stroke-linecap="round" stroke-linejoin="round" stroke-width="0.5"/>
            <circle id="Ellipse_69" data-name="Ellipse 69" cx="112.979" cy="112.979" r="112.979" transform="translate(11.512 225.958) rotate(-89.927)" fill="none" stroke="#000" stroke-linecap="round" stroke-linejoin="round" stroke-width="0.5"/>
            <path id="Path_64263" data-name="Path 64263" d="M249.518,97.195a124.634,124.634,0,0,1-249.268,0" transform="translate(-0.25 15.927)" fill="none" stroke="#000" stroke-linecap="round" stroke-linejoin="round" stroke-width="0.5"/>
          </g>
        </g>
        <circle id="Ellipse_70" data-name="Ellipse 70" cx="3.719" cy="3.719" r="3.719" transform="matrix(-0.982, 0.191, -0.191, -0.982, 187.843, 116.448)" fill="#2e2e2e"/>
        <circle id="Ellipse_71" data-name="Ellipse 71" cx="3.719" cy="3.719" r="3.719" transform="matrix(-0.982, 0.191, -0.191, -0.982, 196.563, 95.471)" fill="#2e2e2e"/>
        <circle id="Ellipse_72" data-name="Ellipse 72" cx="3.719" cy="3.719" r="3.719" transform="matrix(-0.982, 0.191, -0.191, -0.982, 133.354, 38.366)" fill="#2e2e2e"/>
        <circle id="Ellipse_73" data-name="Ellipse 73" cx="3.719" cy="3.719" r="3.719" transform="matrix(-0.982, 0.191, -0.191, -0.982, 133.354, 50.02)" fill="#2e2e2e"/>
        <circle id="Ellipse_74" data-name="Ellipse 74" cx="3.719" cy="3.719" r="3.719" transform="matrix(-0.982, 0.191, -0.191, -0.982, 133.354, 13.893)" fill="#2e2e2e"/>
        <circle id="Ellipse_75" data-name="Ellipse 75" cx="3.719" cy="3.719" r="3.719" transform="matrix(-0.982, 0.191, -0.191, -0.982, 257.987, 116.448)" fill="#2e2e2e"/>
        <circle id="Ellipse_76" data-name="Ellipse 76" cx="3.719" cy="3.719" r="3.719" transform="matrix(-0.982, 0.191, -0.191, -0.982, 133.354, 146.749)" fill="#2e2e2e"/>
        <circle id="Ellipse_77" data-name="Ellipse 77" cx="3.719" cy="3.719" r="3.719" transform="matrix(-0.982, 0.191, -0.191, -0.982, 134.519, 181.711)" fill="#2e2e2e"/>
        <circle id="Ellipse_78" data-name="Ellipse 78" cx="3.719" cy="3.719" r="3.719" transform="matrix(-0.982, 0.191, -0.191, -0.982, 182.301, 160.734)" fill="#2e2e2e"/>
        <circle id="Ellipse_79" data-name="Ellipse 79" cx="3.719" cy="3.719" r="3.719" transform="matrix(-0.982, 0.191, -0.191, -0.982, 133.354, 216.673)" fill="#2e2e2e"/>
        <circle id="Ellipse_80" data-name="Ellipse 80" cx="3.719" cy="3.719" r="3.719" transform="matrix(-0.982, 0.191, -0.191, -0.982, 79.745, 116.448)" fill="#2e2e2e"/>
        <circle id="Ellipse_81" data-name="Ellipse 81" cx="3.719" cy="3.719" r="3.719" transform="matrix(-0.982, 0.191, -0.191, -0.982, 58.767, 165.094)" fill="#2e2e2e"/>
        <circle id="Ellipse_82" data-name="Ellipse 82" cx="3.719" cy="3.719" r="3.719" transform="matrix(-0.982, 0.191, -0.191, -0.982, 58.767, 66.034)" fill="#2e2e2e"/>
        <circle id="Ellipse_83" data-name="Ellipse 83" cx="3.719" cy="3.719" r="3.719" transform="matrix(-0.982, 0.191, -0.191, -0.982, 8.72, 116.448)" fill="#2e2e2e"/>
      </g>
    </g>
    </g>

  </g>

  </g>
</svg>
