<svg xmlns="http://www.w3.org/2000/svg" xmlns:xlink="http://www.w3.org/1999/xlink" width="760.697" height="835.951" viewBox="0 0 760.697 835.951">
  <defs>
    <clipPath id="clip-path">
      <path id="Path_13868" data-name="Path 13868" d="M0,246.38l.023-.41L12.313,0l.557.691L188.743,218.647l-.586.086ZM12.9,1.8.719,245.592,187.474,218.15Z" fill="#017373" stroke="#017373" stroke-width="0.3"/>
    </clipPath>
    <clipPath id="clip-path-2">
      <path id="Path_13869" data-name="Path 13869" d="M113.2,349.318l-.237-.735L0,0,.636.218l259.577,87.1-.2.357ZM1.059,1.069l112.3,346.57L259.224,87.7Z" fill="#017373" stroke="#017373" stroke-width="0.3"/>
    </clipPath>
    <clipPath id="clip-path-3">
      <path id="Path_13870" data-name="Path 13870" d="M0,262.8l.323-.58L147.471,0,135.133,246.806l-.281.034ZM146.651,2.84,1.237,261.974,134.488,246.2Z" fill="#017373" stroke="#017373" stroke-width="0.3"/>
    </clipPath>
    <clipPath id="clip-path-4">
      <path id="Path_13871" data-name="Path 13871" d="M35.978,390.506l-.183-1.933L0,15.983,135.009,0l-.122.475ZM.737,16.575l35.547,370L134.112.788Z" fill="#017373" stroke="#017373" stroke-width="0.3"/>
    </clipPath>
    <clipPath id="clip-path-5">
      <path id="Path_13872" data-name="Path 13872" d="M0,277.778l.351-.429L226.754,0l.189.586,112.93,348.5-.569-.122ZM226.492,1.384,1.227,277.347l337.648,70.838Z" fill="#017373" stroke="#017373" stroke-width="0.3"/>
    </clipPath>
    <clipPath id="clip-path-6">
      <path id="Path_13879" data-name="Path 13879" d="M117.843,189.831,0,120l.609-.263L278.6,0ZM1.49,120.1,117.7,188.961,276.228,1.756Z" fill="#017373" stroke="#017373" stroke-width="0.3"/>
    </clipPath>
    <clipPath id="clip-path-7">
      <path id="Path_13890" data-name="Path 13890" d="M13.52,43.169a21.846,21.846,0,1,1,10.867,2.9,21.654,21.654,0,0,1-10.867-2.9M9.081,5.382a24.436,24.436,0,0,0,3.082,40.123A24.419,24.419,0,1,0,24.458,0,24.535,24.535,0,0,0,9.081,5.382" fill="#017373" stroke="#017373" stroke-width="0.3"/>
    </clipPath>
    <clipPath id="clip-path-8">
      <path id="Path_13892" data-name="Path 13892" d="M7.784,21.747a10.093,10.093,0,0,1-2.823-2.426A10.221,10.221,0,0,1,18.049,4.067a10.117,10.117,0,0,1,2.823,2.422A10.227,10.227,0,0,1,7.784,21.747M4.8,2.853A13.01,13.01,0,1,0,12.938,0,12.939,12.939,0,0,0,4.8,2.853" fill="#017373" stroke="#017373" stroke-width="0.3"/>
    </clipPath>
    <clipPath id="clip-path-9">
      <path id="Path_13893" data-name="Path 13893" d="M3.914,11.529A5.407,5.407,0,0,1,4.727,3.9a5.461,5.461,0,0,1,6.134-.475,5.328,5.328,0,0,1,1.5,1.286,5.431,5.431,0,0,1-.824,7.641,5.321,5.321,0,0,1-3.363,1.16,5.451,5.451,0,0,1-4.26-1.983M3.03,1.8a8.12,8.12,0,0,0-1.22,11.43,8.024,8.024,0,0,0,2.246,1.929A8.132,8.132,0,0,0,16.223,8.989,8.136,8.136,0,0,0,3.03,1.8" fill="#017373" stroke="#017373" stroke-width="0.3"/>
    </clipPath>
    <clipPath id="clip-path-10">
      <path id="Path_13896" data-name="Path 13896" d="M12.2,38.314a19.232,19.232,0,1,1,9.563,2.555A19.051,19.051,0,0,1,12.2,38.314M8.1,4.813A21.936,21.936,0,1,0,21.827,0,21.85,21.85,0,0,0,8.1,4.813" fill="#017373" stroke="#017373" stroke-width="0.3"/>
    </clipPath>
    <clipPath id="clip-path-11">
      <path id="Path_13897" data-name="Path 13897" d="M7.141,19.329A8.921,8.921,0,0,1,6.017,4.668a8.975,8.975,0,0,1,10.078-.775A8.923,8.923,0,0,1,7.141,19.329M4.322,2.563A11.688,11.688,0,1,0,11.637,0,11.638,11.638,0,0,0,4.322,2.563" fill="#017373" stroke="#017373" stroke-width="0.3"/>
    </clipPath>
    <clipPath id="clip-path-12">
      <path id="Path_13898" data-name="Path 13898" d="M12.19,38.312a19.217,19.217,0,1,1,9.565,2.557,19.071,19.071,0,0,1-9.565-2.557m-4.1-33.5A21.863,21.863,0,0,0,4.819,35.482a21.588,21.588,0,0,0,6.019,5.164,21.926,21.926,0,0,0,24.646-1.895A21.775,21.775,0,0,0,21.825,0,21.894,21.894,0,0,0,8.092,4.811" fill="#017373" stroke="#017373" stroke-width="0.3"/>
    </clipPath>
    <clipPath id="clip-path-13">
      <path id="Path_13899" data-name="Path 13899" d="M7.838,21.926A10.375,10.375,0,1,1,13,23.3a10.3,10.3,0,0,1-5.157-1.378M4.847,2.872A13.011,13.011,0,0,0,2.891,21.18a12.864,12.864,0,0,0,3.592,3.08,13.08,13.08,0,0,0,14.71-1.134A13.008,13.008,0,0,0,23.145,4.832a13.042,13.042,0,0,0-18.3-1.96" fill="#017373" stroke="#017373" stroke-width="0.3"/>
    </clipPath>
    <clipPath id="clip-path-14">
      <path id="Path_13900" data-name="Path 13900" d="M8.135,23.037a10.994,10.994,0,1,1,5.47,1.46,10.913,10.913,0,0,1-5.47-1.46M5.072,3A13.621,13.621,0,0,0,6.78,25.373,13.711,13.711,0,0,0,22.171,24.2,13.593,13.593,0,0,0,13.65,0,13.679,13.679,0,0,0,5.072,3" fill="#017373" stroke="#017373" stroke-width="0.3"/>
    </clipPath>
    <clipPath id="clip-path-15">
      <path id="Path_13901" data-name="Path 13901" d="M10.3,31.178A15.291,15.291,0,0,1,8.371,6.071,15.372,15.372,0,0,1,25.64,4.746,15.281,15.281,0,0,1,10.3,31.178M6.674,3.97A17.973,17.973,0,1,0,29.251,31.942,17.944,17.944,0,0,0,18,0,18.037,18.037,0,0,0,6.674,3.97" fill="#017373" stroke="#017373" stroke-width="0.3"/>
    </clipPath>
    <clipPath id="clip-path-16">
      <path id="Path_13902" data-name="Path 13902" d="M10.295,31.176a15.373,15.373,0,1,1,7.649,2.044,15.242,15.242,0,0,1-7.649-2.044M6.677,3.96A17.995,17.995,0,0,0,8.938,33.514l0,0a18.088,18.088,0,0,0,20.317-1.563,17.847,17.847,0,0,0,6.584-12.082,18.078,18.078,0,0,0,.105-1.809v-.277A17.92,17.92,0,0,0,18,0,18.06,18.06,0,0,0,6.677,3.96" fill="#017373" stroke="#017373" stroke-width="0.3"/>
    </clipPath>
    <clipPath id="clip-path-18">
      <path id="Path_13916" data-name="Path 13916" d="M7.845,21.915a10.3,10.3,0,1,1,5.426,1.376c-.09,0-.178,0-.269,0a10.31,10.31,0,0,1-5.157-1.378M12.664,0A13,13,0,0,0,6.488,24.247,13,13,0,1,0,12.994,0c-.109,0-.221,0-.33,0" fill="#017373" stroke="#017373" stroke-width="0.3"/>
    </clipPath>
    <clipPath id="clip-path-19">
      <path id="Path_13919" data-name="Path 13919" d="M7.879,22.081A10.4,10.4,0,0,1,5.553,5.933a10.39,10.39,0,0,1,17.918,6.886A10.389,10.389,0,0,1,13.353,23.472c-.092,0-.185,0-.277,0a10.339,10.339,0,0,1-5.2-1.395M12.752,0A13.073,13.073,0,0,0,0,13.435,13.067,13.067,0,0,0,13.427,26.174,13.08,13.08,0,0,0,26.172,12.748,13.079,13.079,0,0,0,13.107,0c-.118,0-.237,0-.355,0" fill="#017373" stroke="#017373" stroke-width="0.3"/>
    </clipPath>
    <clipPath id="clip-path-20">
      <path id="Path_13920" data-name="Path 13920" d="M2.349,2.349A8.021,8.021,0,1,0,8.019,0a8.017,8.017,0,0,0-5.67,2.349" fill="#017373" stroke="#017373" stroke-width="0.3"/>
    </clipPath>
    <clipPath id="clip-path-21">
      <path id="Path_13926" data-name="Path 13926" d="M.614.616A2.1,2.1,0,1,0,2.1,0,2.1,2.1,0,0,0,.614.616" fill="#017373" stroke="#017373" stroke-width="0.3"/>
    </clipPath>
    <clipPath id="clip-path-22">
      <path id="Path_13927" data-name="Path 13927" d="M.616.616A2.1,2.1,0,1,0,2.1,0,2.1,2.1,0,0,0,.616.616" fill="#017373" stroke="#017373" stroke-width="0.3"/>
    </clipPath>
    <clipPath id="clip-path-25">
      <path id="Path_13930" data-name="Path 13930" d="M1.037,1.036A3.545,3.545,0,1,0,3.541,0a3.545,3.545,0,0,0-2.5,1.036" fill="#017373" stroke="#017373" stroke-width="0.3"/>
    </clipPath>
    <clipPath id="clip-path-26">
      <path id="Path_13931" data-name="Path 13931" d="M1.037,1.036A3.545,3.545,0,1,0,3.541,0a3.543,3.543,0,0,0-2.5,1.036" fill="#017373" stroke="#017373" stroke-width="0.3"/>
    </clipPath>
    <clipPath id="clip-path-27">
      <path id="Path_13932" data-name="Path 13932" d="M1.037,1.038A3.538,3.538,0,1,0,3.539,0a3.543,3.543,0,0,0-2.5,1.038" fill="#017373" stroke="#017373" stroke-width="0.3"/>
    </clipPath>
    <clipPath id="clip-path-28">
      <path id="Path_13940" data-name="Path 13940" d="M1.037,1.038A3.54,3.54,0,1,0,3.541,0a3.54,3.54,0,0,0-2.5,1.038" fill="#017373" stroke="#017373" stroke-width="0.3"/>
    </clipPath>
  </defs>
  <g id="Illustration" transform="translate(-1001.831 -1176.942) rotate(18)">
    <g id="Group_21125" data-name="Group 21125" transform="translate(2046.457 1003.38) rotate(30)">
      <g id="Group_21124" data-name="Group 21124" clip-path="url(#clip-path)">
        <rect id="Rectangle_18594" data-name="Rectangle 18594" width="307.678" height="307.678" transform="translate(-123.19 123.19) rotate(-45)" fill="#017373" stroke="#017373" stroke-width="0.3"/>
      </g>
    </g>
    <g id="Group_21127" data-name="Group 21127" transform="translate(1875.755 804.818) rotate(30)">
      <g id="Group_21126" data-name="Group 21126" clip-path="url(#clip-path-2)">
        <rect id="Rectangle_18595" data-name="Rectangle 18595" width="431.004" height="431.004" transform="translate(-174.659 174.659) rotate(-45)" fill="#017373" stroke="#017373" stroke-width="0.3"/>
      </g>
    </g>
    <g id="Group_21129" data-name="Group 21129" transform="translate(1930.277 935.704) rotate(30)">
      <g id="Group_21128" data-name="Group 21128" clip-path="url(#clip-path-3)">
        <rect id="Rectangle_18596" data-name="Rectangle 18596" width="290.108" height="290.108" transform="translate(-131.402 131.402) rotate(-45)" fill="#017373" stroke="#017373" stroke-width="0.3"/>
      </g>
    </g>
    <g id="Group_21131" data-name="Group 21131" transform="translate(1807.439 1148.968) rotate(30)">
      <g id="Group_21130" data-name="Group 21130" clip-path="url(#clip-path-4)">
        <rect id="Rectangle_18597" data-name="Rectangle 18597" width="371.595" height="371.595" transform="translate(-195.253 195.253) rotate(-45)" fill="#017373" stroke="#017373" stroke-width="0.3"/>
      </g>
    </g>
    <g id="Group_21133" data-name="Group 21133" transform="translate(1680.029 691.636) rotate(30)">
      <g id="Group_21132" data-name="Group 21132" clip-path="url(#clip-path-5)">
        <rect id="Rectangle_18598" data-name="Rectangle 18598" width="487.167" height="487.167" transform="translate(-174.543 174.542) rotate(-45)" fill="#017373" stroke="#017373" stroke-width="0.3"/>
      </g>
    </g>
    <g id="Group_21147" data-name="Group 21147" transform="translate(1654.532 737.411) rotate(30)">
      <g id="Group_21146" data-name="Group 21146" clip-path="url(#clip-path-6)">
        <rect id="Rectangle_18605" data-name="Rectangle 18605" width="331.233" height="331.233" transform="translate(-94.916 94.915) rotate(-45)" fill="#017373" stroke="#017373" stroke-width="0.3"/>
      </g>
    </g>
    <g id="Group_21169" data-name="Group 21169" transform="translate(1637.238 1467.47) rotate(30)">
      <g id="Group_21168" data-name="Group 21168" clip-path="url(#clip-path-7)">
        <rect id="Rectangle_18616" data-name="Rectangle 18616" width="72.805" height="72.805" transform="translate(-25.822 25.272) rotate(-45)" fill="#017373" stroke="#017373" stroke-width="0.3"/>
      </g>
    </g>
    <g id="Group_21178" data-name="Group 21178" transform="translate(1794.888 1145.612) rotate(30)">
      <g id="Group_21177" data-name="Group 21177" clip-path="url(#clip-path-8)">
        <rect id="Rectangle_18620" data-name="Rectangle 18620" width="39.467" height="39.468" transform="translate(-14.991 13.377) rotate(-45)" fill="#017373" stroke="#017373" stroke-width="0.3"/>
      </g>
    </g>
    <g id="Group_21180" data-name="Group 21180" transform="translate(1796.634 1152.144) rotate(30)">
      <g id="Group_21179" data-name="Group 21179" clip-path="url(#clip-path-9)">
        <rect id="Rectangle_18621" data-name="Rectangle 18621" width="23.67" height="23.67" transform="translate(-8.606 8.419) rotate(-45)" fill="#017373" stroke="#017373" stroke-width="0.3"/>
      </g>
    </g>
    <g id="Group_21186" data-name="Group 21186" transform="translate(1915.797 1186.834) rotate(30)">
      <g id="Group_21185" data-name="Group 21185" clip-path="url(#clip-path-10)">
        <rect id="Rectangle_18624" data-name="Rectangle 18624" width="66.6" height="66.6" transform="translate(-25.296 22.575) rotate(-45)" fill="#017373" stroke="#017373" stroke-width="0.3"/>
      </g>
    </g>
    <g id="Group_21188" data-name="Group 21188" transform="translate(1919.521 1200.735) rotate(30)">
      <g id="Group_21187" data-name="Group 21187" clip-path="url(#clip-path-11)">
        <rect id="Rectangle_18625" data-name="Rectangle 18625" width="35.497" height="35.497" transform="translate(-13.484 12.032) rotate(-45)" fill="#017373" stroke="#017373" stroke-width="0.3"/>
      </g>
    </g>
    <g id="Group_21190" data-name="Group 21190" transform="translate(1867.964 775.782) rotate(30)">
      <g id="Group_21189" data-name="Group 21189" clip-path="url(#clip-path-12)">
        <rect id="Rectangle_18626" data-name="Rectangle 18626" width="65.03" height="65.03" transform="translate(-25.297 22.576) rotate(-45)" fill="#017373" stroke="#017373" stroke-width="0.3"/>
      </g>
    </g>
    <g id="Group_21192" data-name="Group 21192" transform="translate(2052.151 992.693) rotate(30)">
      <g id="Group_21191" data-name="Group 21191" clip-path="url(#clip-path-13)">
        <rect id="Rectangle_18627" data-name="Rectangle 18627" width="37.878" height="37.878" transform="matrix(0.707, -0.707, 0.707, 0.707, -13.767, 13.475)" fill="#017373" stroke="#017373" stroke-width="0.3"/>
      </g>
    </g>
    <g id="Group_21194" data-name="Group 21194" transform="translate(1536.783 913.736) rotate(30)">
      <g id="Group_21193" data-name="Group 21193" clip-path="url(#clip-path-14)">
        <rect id="Rectangle_18628" data-name="Rectangle 18628" width="39.627" height="39.627" transform="translate(-14.4 14.092) rotate(-45)" fill="#017373" stroke="#017373" stroke-width="0.3"/>
      </g>
    </g>
    <g id="Group_21196" data-name="Group 21196" transform="translate(1535.198 907.787) rotate(30)">
      <g id="Group_21195" data-name="Group 21195" clip-path="url(#clip-path-15)">
        <rect id="Rectangle_18629" data-name="Rectangle 18629" width="53.615" height="53.615" transform="matrix(0.707, -0.707, 0.707, 0.707, -20.855, 18.613)" fill="#017373" stroke="#017373" stroke-width="0.3"/>
      </g>
    </g>
    <g id="Group_21198" data-name="Group 21198" transform="translate(2093.582 1262.036) rotate(30)">
      <g id="Group_21197" data-name="Group 21197" clip-path="url(#clip-path-16)">
        <rect id="Rectangle_18630" data-name="Rectangle 18630" width="53.329" height="53.329" transform="matrix(0.707, -0.707, 0.707, 0.707, -20.858, 18.613)" fill="#017373" stroke="#017373" stroke-width="0.3"/>
      </g>
    </g>
    <g id="Group_21206" data-name="Group 21206" transform="translate(1536.783 913.736) rotate(30)">
      <g id="Group_21205" data-name="Group 21205" clip-path="url(#clip-path-14)">
        <rect id="Rectangle_18634" data-name="Rectangle 18634" width="39.627" height="39.627" transform="translate(-14.4 14.092) rotate(-45)" fill="#017373" stroke="#017373" stroke-width="0.3"/>
      </g>
    </g>
    <g id="Group_21226" data-name="Group 21226" transform="translate(1590.395 823.987) rotate(30)">
      <g id="Group_21225" data-name="Group 21225" clip-path="url(#clip-path-18)">
        <rect id="Rectangle_18644" data-name="Rectangle 18644" width="36.999" height="36.999" transform="translate(-13.115 13.027) rotate(-45)" fill="#017373" stroke="#017373" stroke-width="0.3"/>
      </g>
    </g>
    <g id="Group_21232" data-name="Group 21232" transform="translate(1889.549 858.995) rotate(30)">
      <g id="Group_21231" data-name="Group 21231" clip-path="url(#clip-path-19)">
        <rect id="Rectangle_18647" data-name="Rectangle 18647" width="37.187" height="37.187" transform="translate(-13.208 13.118) rotate(-45)" fill="#017373" stroke="#017373" stroke-width="0.3"/>
      </g>
    </g>
    <g id="Group_21234" data-name="Group 21234" transform="translate(1873.025 794.487) rotate(30)">
      <g id="Group_21233" data-name="Group 21233" clip-path="url(#clip-path-20)">
        <rect id="Rectangle_18648" data-name="Rectangle 18648" width="24.343" height="24.343" transform="translate(-9.194 8.411) rotate(-45)" fill="#017373" stroke="#017373" stroke-width="0.3"/>
      </g>
    </g>
    <g id="Group_21246" data-name="Group 21246" transform="translate(1894.289 873.841) rotate(30)">
      <g id="Group_21245" data-name="Group 21245" clip-path="url(#clip-path-21)">
        <rect id="Rectangle_18654" data-name="Rectangle 18654" width="6.377" height="6.377" transform="translate(-2.409 2.204) rotate(-45)" fill="#017373" stroke="#017373" stroke-width="0.3"/>
      </g>
    </g>
    <g id="Group_21248" data-name="Group 21248" transform="translate(1860.68 870.137) rotate(30)">
      <g id="Group_21247" data-name="Group 21247" clip-path="url(#clip-path-22)">
        <rect id="Rectangle_18655" data-name="Rectangle 18655" width="6.379" height="6.379" transform="translate(-2.409 2.204) rotate(-45)" fill="#017373" stroke="#017373" stroke-width="0.3"/>
      </g>
    </g>
    <g id="Group_21250" data-name="Group 21250" transform="translate(1857.337 887.082) rotate(30)">
      <g id="Group_21249" data-name="Group 21249" clip-path="url(#clip-path-22)">
        <rect id="Rectangle_18656" data-name="Rectangle 18656" width="6.379" height="6.379" transform="translate(-2.409 2.204) rotate(-45.001)" fill="#017373" stroke="#017373" stroke-width="0.3"/>
      </g>
    </g>
    <g id="Group_21252" data-name="Group 21252" transform="translate(1838.184 976.087) rotate(30)">
      <g id="Group_21251" data-name="Group 21251" clip-path="url(#clip-path-22)">
        <rect id="Rectangle_18657" data-name="Rectangle 18657" width="6.377" height="6.377" transform="translate(-2.409 2.204) rotate(-45)" fill="#017373" stroke="#017373" stroke-width="0.3"/>
      </g>
    </g>
    <g id="Group_21254" data-name="Group 21254" transform="translate(1660.027 955.301) rotate(30)">
      <g id="Group_21253" data-name="Group 21253" clip-path="url(#clip-path-25)">
        <rect id="Rectangle_18658" data-name="Rectangle 18658" width="10.749" height="10.749" transform="matrix(0.707, -0.707, 0.707, 0.707, -4.06, 3.714)" fill="#017373" stroke="#017373" stroke-width="0.3"/>
      </g>
    </g>
    <g id="Group_21256" data-name="Group 21256" transform="translate(1593.896 836.573) rotate(30)">
      <g id="Group_21255" data-name="Group 21255" clip-path="url(#clip-path-26)">
        <rect id="Rectangle_18659" data-name="Rectangle 18659" width="10.746" height="10.746" transform="matrix(0.707, -0.707, 0.707, 0.707, -4.059, 3.713)" fill="#017373" stroke="#017373" stroke-width="0.3"/>
      </g>
    </g>
    <g id="Group_21258" data-name="Group 21258" transform="translate(1540.365 927.166) rotate(30)">
      <g id="Group_21257" data-name="Group 21257" clip-path="url(#clip-path-27)">
        <rect id="Rectangle_18660" data-name="Rectangle 18660" width="10.749" height="10.749" transform="translate(-4.06 3.714) rotate(-45)" fill="#017373" stroke="#017373" stroke-width="0.3"/>
      </g>
    </g>
    <g id="Group_21274" data-name="Group 21274" transform="translate(1735.786 853.041) rotate(30)">
      <g id="Group_21273" data-name="Group 21273" clip-path="url(#clip-path-28)">
        <rect id="Rectangle_18668" data-name="Rectangle 18668" width="10.748" height="10.747" transform="translate(-4.059 3.713) rotate(-45)" fill="#017373" stroke="#017373" stroke-width="0.3"/>
      </g>
    </g>
    <path id="Path_46130" data-name="Path 46130" d="M1522.765,806.054,1625.7,1376.377" transform="translate(19.019 125.95)" fill="none" stroke="#017373" stroke-width="0.5"/>
  </g>
</svg>
