<svg xmlns="http://www.w3.org/2000/svg" width="872.66" height="522.197" viewBox="0 0 872.66 522.197">
  <g id="Group_7390" data-name="Group 7390" transform="translate(0 0)">
    <path id="Path_19741" data-name="Path 19741" d="M872.66,278.581v-2.9H685.5c7.6-10.472,22.917-9.418,48.188-6.712l4.288.459-3.141-2.955c-17.144-16.127-23.539-32.494-20.995-40.329,8.251-25.411,57.764-28.071,84.364-29.5l12.654-.68-12.481-2.194c-19.449-3.419-71.07-12.493-80.809-28.583-5.9-13.023,9.218-27.7,21.113-37.61l4.393-3.661-5.606,1.128c-.728.146-1.513.309-2.347.481-11.587,2.4-33.158,6.869-41.625-3.452-11.754-14.325,14.278-73.305,25.394-98.491,2.434-5.515,4.193-9.5,4.988-11.669L728.243,0,721.3,10.624c-.982,1.5-2.292,3.6-3.951,6.259-13.782,22.086-50.357,80.754-75.242,76.52-12-2.045-27.118-10.2-30.938-37.443l-1.352-9.645-1.514,9.62c-4.657,29.607-12.689,36.124-24.987,37.374-19.336,1.97-49.625-22.136-87.6-69.7L487,12.7l6.29,12.472c2.989,5.928,7.215,13.365,11.689,21.239,14.407,25.357,34.137,60.085,27.36,71.741-8.1,13.926-19.219,11.353-37.644,7.091-3.948-.913-8.032-1.858-12.526-2.749l-9.159-1.816,8.178,4.505c23.462,12.926,33.158,23.754,31.438,35.109-2.213,14.607-48.038,18.515-84.86,21.655-8.445.72-16.422,1.4-23.952,2.184l-13.507,1.4,13.5,1.476c7.021.768,14.264,1.42,21.269,2.051,38.089,3.431,74.065,6.672,82.455,27.543,7.852,19.535-6.048,32.746-17.217,43.361-.965.918-1.908,1.813-2.812,2.69l-3.559,3.451,4.857-.991c1.765-.36,3.533-.748,5.3-1.135,15.033-3.3,29.239-6.42,38.411,8.564,7.945,12.979-2.126,32.746-18.054,57.529a44.819,44.819,0,0,0-10.127-4.517c-17.619-5.439-35.576-.3-41.8,1.864.67-10.281.087-42.121-31.225-52.247-18.453-5.97-36.056-3.247-49.88,7.634a53.07,53.07,0,0,0-19.542-33.681c-10.63-8.533-24.125-13.029-37.016-12.316-28.71,1.573-46.812,20.924-50.511,39.9a35.624,35.624,0,0,0-29.8-1.026c-7.684,3.31-13.074,9.233-14.79,16.25-2.383,9.749-.821,22.682,20.151,28.93.352.1.633.188.83.255l1.719.582.187-1.8a28.932,28.932,0,0,1,11.767-20.589c6.828-4.9,15.638-6.449,24.81-4.366,13.5,3.063,21.356,15.337,21.147,25.434l-.057,2.747,2.3-1.506c10.262-6.719,22.6-2.768,28.6,4.933,4.567,5.861,5.534,14.622,3.694,19.51-2.413-.225-8.782-.821-16.82-1.568l-8.834-7.219-73.081-6.05,3.436,2.92,4.47,3.8-72.7-5.911c-6.531-.664-21.32-1.985-21.469-2l-3.837-.342L325.875,507.5l79.939-40.928,3.727,3.157L321.31,518.588,196.583,388.735v75.347l-.305-.072C136.2,450.069,84.821,383.6,0,393.208v2.726c84.4-9.557,135.849,57.028,195.622,70.9l.96.224v19.348l1.54-.1a237.59,237.59,0,0,1,76.068,7.565l13.607,3.684-12.573-6.375c-21.522-10.911-44.991-19.105-75.744-26.419V395.934L319.992,521.4l.772.8,93.853-51.968-1.6-1.357-4.407-3.732,38.456-19.689,6.153,5.028L484.437,432.6l-4.793-3.824,14.732-7.542,3.236,2.571,17.979-8.866L512.02,412.2l7.366-3.771,2.729,2.159,11.752-6.221-2.65-2,2.328-1.193,1.969,1.525,9.8-5.057-1.993-1.47,4.563-2.337-44.169-32.785q3.538-3.788,6.77-7.306c4.17-4.52,8.132-8.814,12.118-12.916,6.328,7.746,9.669,18.276,9.669,31.055v8.338l2.813-7.849c.142-.4,14.393-39.921,26.464-52.2,9.212-9.368,19.1-13.306,28.615-11.39,9.753,1.967,18.618,10.239,23.136,21.587l1.577,3.961,1.163-4.1c4.979-17.572,13.463-27.376,23.888-27.609.111,0,.22,0,.331,0,19.472,0,47.932,37.938,64.974,60.656,1.373,1.831,2.672,3.562,3.887,5.167l7.914,10.46-5.44-11.935c-1.4-3.066-3.1-6.623-5.068-10.742-11.232-23.486-29.944-62.612-22.776-77.647Zm-611.165,209.3a242.15,242.15,0,0,0-48.636-4.926c-4.469,0-8.937.125-13.379.375V467.743c24.4,5.833,44.164,12.232,62.014,20.133m56.628-147.788,4.8,3.926c-18.537-1.72-42.6-3.937-49.516-4.5l-14.377-1.169-4.107-3.489Zm8.356,163.852L163.494,333.266c4.868.44,13.16,1.2,17.623,1.652l76.752,6.241c46.89,39.824,121.513,103.032,145.55,123.389Zm79.734-40.823c-22.5-19.057-95.751-81.1-143.394-121.557l10.357.842c7.454.606,34.868,3.138,53.768,4.894l117.672,96.158Zm47.295-16.138-3.628-2.964,26.934-13.79,2.482,1.981Zm23.651-20.186-101.9-81.306,25.75,1.579,90.877,72.188ZM402.095,344.23l-35.812-2.2,108.046,86.209-26.9,13.772-115.32-94.236c7.913.736,13.392,1.249,13.573,1.266l.985.092.444-.884c2.783-5.531,2-16.287-3.609-23.481-6.393-8.2-19.138-12.652-30.323-6.837-.98-10.7-9.459-22.675-23.312-25.817-9.99-2.267-19.628-.549-27.14,4.837A31.744,31.744,0,0,0,250,317.861c-14.539-4.552-20.4-13.04-17.417-25.237,1.5-6.126,6.28-11.329,13.121-14.276a32.8,32.8,0,0,1,29.033,1.848l1.853,1.055.3-2.112c2.6-18.428,19.971-37.892,48.14-39.435,23.591-1.29,50.884,15.946,53.845,46.047l.275,2.8,2.118-1.845c17.966-15.652,38.506-12.213,49.15-8.772,30.856,9.979,30.05,41.711,29.068,51.2-.023.22-.034.358-.036.407l-.051,2.317,2.119-.963c.2-.092,21.248-8.955,41.959-2.565a42.951,42.951,0,0,1,9.427,4.156c-3.207,4.941-6.625,10.074-10.162,15.386q-2.749,4.129-5.547,8.346l-.557-.413-15.084-1.582,11.414,8.418q-.75,1.147-1.5,2.3l-15.743-12.188-17.125-1.461,28.055,21.136q-1.347,2.122-2.693,4.278l-32.8-25.952-26.828-2.161,82.295,63.122-11.9,6.094Zm97.28,17.214q-.64.68-1.292,1.368l-1.2-.881,1.031-1.567Zm-4.079,2.913.774.571q-.973,1.018-1.97,2.051l-.34-.264q.769-1.184,1.536-2.358m-3.453-6.148,3.7.389.047.035q-.518.786-1.036,1.575Zm-1.964,9.166q-.834,1.292-1.669,2.6L468.376,355.03l6.243.533Zm-7.464,11.8-4.337,6.987-44.2-33.9,16.166,1.3Zm15.562,41.216-.769-.611,11.957-6.122.965.74Zm11.5-10.146L478.517,386.5l5.908-5.734,32.463,25.685ZM519.723,405l-33.2-26.271q1.88-1.839,3.675-3.636L525.778,401.9Zm2.706,2.141-.209-.166,6.129-3.137.132.1Zm6.215-6.709-36.389-27.414q1.075-1.09,2.121-2.163l36.639,28.363Zm5.219-2.672-37.458-29q1.021-1.059,2.016-2.1l39.41,29.067Zm8.544-4.374-1.7.868-40.28-29.709,1.285-1.362Zm-34.055-41.6q-3.339,3.62-6.982,7.533l-1.852-1.375q2.835-4.283,5.628-8.469c3.54-5.316,6.962-10.455,10.178-15.413a36.77,36.77,0,0,1,5.347,4.6c-4.052,4.169-8.08,8.534-12.319,13.128m194.534,3.558c-17.573-23.242-43.486-55.618-62.651-55.618-.125,0-.252,0-.376,0-6.49.145-18.128,3.815-25.473,26-5.219-10.4-14.021-17.842-23.653-19.785-7.332-1.481-18.707-.563-31.253,12.2-9.568,9.732-20.014,34.741-24.669,46.72-1.079-10.379-4.592-19.214-10.237-26.045,17.475-17.647,36.156-31.751,75.537-45.252,5.6-1.919,20.949-7.931,35.981-15.09,8.04.107,17.026.107,27.231.1h17.281c-6.145,16.471,10.43,51.958,22.281,76.76m-67.508-79.763c-24.976-.34-39.931-1.738-55.134-7.439-25.027-9.385-51.963-35.539-51.963-70.782,0-46.131,37.321-83.661,83.2-83.661s83.2,37.53,83.2,83.661c0,24.407-10.6,45.324-31.492,62.171-6.329,5.1-16.929,10.853-27.8,16.049m46.65.1H663.323c-7.875,0-14.964,0-21.423-.041,9.1-4.559,17.577-9.406,23.1-13.858,21.612-17.424,32.571-39.1,32.571-64.427,0-47.729-38.621-86.558-86.093-86.558s-86.094,38.829-86.094,86.558c0,17.066,6.025,33.405,17.423,47.249a89.385,89.385,0,0,0,36.421,26.246c14.233,5.338,28.728,6.993,50.2,7.5-13.118,6-25.565,10.861-30.259,12.47-39.913,13.683-58.839,27.962-76.529,45.821a39.968,39.968,0,0,0-5.771-4.982c16.491-25.673,26.889-46.285,18.106-60.634-10.249-16.741-26.139-13.255-41.5-9.881l-.262.057c11.079-10.55,25.364-24.893,17.007-45.684-9.051-22.517-45.886-25.835-84.883-29.348q-3.125-.281-6.3-.571,4.4-.385,8.977-.772c41.751-3.561,84.924-7.242,87.478-24.109,1.733-11.441-5.8-21.69-24.959-33.469,1.186.27,2.353.54,3.509.808,19.048,4.408,31.63,7.317,40.8-8.457,7.614-13.1-11.77-47.215-27.346-74.629-1.522-2.679-3.015-5.307-4.44-7.84,25.737,30.52,57.76,61.372,80.554,59.059,14.407-1.465,21.686-10.079,26.18-32.112,6.054,24.11,22.181,30.536,31.832,32.179a18.111,18.111,0,0,0,3.062.255c23.247,0,52.345-42.192,69.066-68.461-12.894,29.385-34.566,81.152-22.5,95.86,8.807,10.735,28.694,7.628,41.314,5.1-11.637,10.331-23.669,24.246-17.6,37.461l.073.138c8.091,13.547,40.3,21.979,71,27.853-28.081,1.921-67.275,7.125-74.959,30.79-3.134,9.653,4.512,25.888,18.763,40.4-23-2.417-39.774-3.413-47.815,10.035" transform="translate(0 -0.004)" fill="#eb384a"/>
  </g>
</svg>
