<svg xmlns="http://www.w3.org/2000/svg" width="1853.182" height="527.576" viewBox="0 0 1853.182 527.576">
  <path id="Path_19760" data-name="Path 19760" d="M-273.271,176.65S-282.6,402.976-48.787,394.4s338.332-35.987,475.063-33.55,135.308-6.662,135.308-6.662l6.122-256.253L621.93,176.65s-8.528-29.3-17.055-44.6-13.119-42.417-41.98-45.7S468.221,91.6,468.221,91.6a102.933,102.933,0,0,0,34.546,5.9c18.8-.219,40.887,1.531,52.475-1.749s23.4-12.025,34.983-35.858,31.266-57.5,31.266-57.5,0-3.936-3.717-.437S580.824,48.96,578.419,59.674s.219,106.48.219,106.48L584.1,354.19a525.167,525.167,0,0,1,88.333,2.842c48.1,5.685,93.143,24.707,111.728,33.453s-25.144-20.334-34.327-24.051-50.726-18.8-76.089-19.241-32.578-1.531-32.578-1.531,25.581-13.775,68.654-26.019,102.326-24.051,102.326-24.051l4.592-97.953s.219-2.186,3.061-2.186,41.761,3.061,41.761,3.061-17.492-7.871-27.987-7.871-14.212-1.094-20.334,2.842-33.453,32.359-33.453,32.359,21.865-13.556,26.019-17.492,11.369-14.212,10.057-26.237-14.211-38.263-14.211-38.263-1.312,12.682,3.061,24.926,13.775,20.99,14.212,28.861,2.842,96.2,2.842,96.2,13.337-3.061,41.324-6.341,64.5-4.592,64.5-4.592l1.312-99.047s.437-9.4,7-10.276,36.3-3.28,36.3-3.28a76.526,76.526,0,0,0-27.987-2.405c-15.743,1.531-17.273,4.592-24.707,19.9s-12.244,27.549-12.244,27.549,14.211-13.119,17.71-25.8,2.842-16.18-.437-20.553-28.861-29.517-28.861-29.517S901.14,154.348,909.23,162s21.208,12.025,21.208,12.025,3.28-2.405,3.5,17.929S937,282.037,937,282.037s39.356.219,66.03,2.186,88.115,13.119,111.947,20.99-15.087-9.183-93.362,1.749S885.694,413.461,855.74,428.11s-104.668-23.395-172.406-21.18-121.751,40.082-121.751,40.082,102.193-9.93,176.97,13.246,132.544,65.848,205.66,64.793,104.66-102.137,209.855-145.871,201.914-109.651,251.547-115.555,123.694,8.572,171.14,10.321" transform="translate(274.873 1.006)" fill="none" stroke="#eb384a" stroke-linecap="square" stroke-linejoin="round" stroke-miterlimit="10" stroke-width="3"/>
</svg>
