<svg xmlns="http://www.w3.org/2000/svg" xmlns:xlink="http://www.w3.org/1999/xlink" width="83" height="83" viewBox="0 0 83 83">
  <defs>
    <clipPath id="clip-path">
      <rect id="Rectangle_14607" data-name="Rectangle 14607" width="32" height="32" fill="none" stroke="#e3731a" stroke-width="1"/>
    </clipPath>
  </defs>
  <path id="Path_3847" data-name="Path 3847" d="M0,0H83V83H0Z" fill="#1c1c1c"/>
  <g id="Group_8076" data-name="Group 8076" transform="translate(29 27.063)">
    <g id="Group_8075" data-name="Group 8075" clip-path="url(#clip-path)">
      <path id="Path_3919" data-name="Path 3919" d="M25.829,27.991,22.524,23.42,22.5,17.33c.053-2.372-3.438-5.144-6-7.33" transform="translate(5.489 3.327)" fill="none" stroke="#e3731a" stroke-linecap="round" stroke-linejoin="round" stroke-width="1"/>
      <path id="Path_3920" data-name="Path 3920" d="M20.01,18.518l-2.972-3.065-.613-.626a1.429,1.429,0,0,0-1.746-.16,1.534,1.534,0,0,0-.227.187,1.416,1.416,0,0,0-.027,1.972l3.585,4.358v2c0,1.279,2.079,3.332,2.079,3.332" transform="translate(4.671 4.804)" fill="none" stroke="#e3731a" stroke-linecap="round" stroke-linejoin="round" stroke-width="1"/>
      <path id="Path_3921" data-name="Path 3921" d="M17.825,27.154H1.833A1.337,1.337,0,0,1,.5,25.821V1.833A1.337,1.337,0,0,1,1.833.5H20.49a1.337,1.337,0,0,1,1.333,1.333V19.824" transform="translate(0.166 0.166)" fill="none" stroke="#e3731a" stroke-linecap="round" stroke-linejoin="round" stroke-width="1"/>
      <path id="Path_3922" data-name="Path 3922" d="M16.827,20.829H4.166a.66.66,0,0,1-.666-.666v-8a.66.66,0,0,1,.666-.666H16.16a.66.66,0,0,1,.666.666v2" transform="translate(1.164 3.826)" fill="none" stroke="#e3731a" stroke-linecap="round" stroke-linejoin="round" stroke-width="1"/>
      <path id="Path_3923" data-name="Path 3923" d="M3.5,13.5H16.827" transform="translate(1.164 4.491)" fill="none" stroke="#e3731a" stroke-linecap="round" stroke-linejoin="round" stroke-width="1"/>
      <path id="Path_3924" data-name="Path 3924" d="M6.5,11.5v9.329" transform="translate(2.162 3.826)" fill="none" stroke="#e3731a" stroke-linecap="round" stroke-linejoin="round" stroke-width="1"/>
      <path id="Path_3925" data-name="Path 3925" d="M9.5,11.5v9.329" transform="translate(3.16 3.826)" fill="none" stroke="#e3731a" stroke-linecap="round" stroke-linejoin="round" stroke-width="1"/>
      <line id="Line_535" data-name="Line 535" x2="5.331" transform="translate(12.66 5.997)" fill="none" stroke="#e3731a" stroke-linecap="round" stroke-linejoin="round" stroke-width="1"/>
      <line id="Line_536" data-name="Line 536" x2="3.332" transform="translate(12.66 8.662)" fill="none" stroke="#e3731a" stroke-linecap="round" stroke-linejoin="round" stroke-width="1"/>
      <line id="Line_537" data-name="Line 537" y2="1.333" transform="translate(7.33 11.328)" fill="none" stroke="#e3731a" stroke-linecap="round" stroke-linejoin="round" stroke-width="1"/>
      <line id="Line_538" data-name="Line 538" y2="1.333" transform="translate(7.33 4.664)" fill="none" stroke="#e3731a" stroke-linecap="round" stroke-linejoin="round" stroke-width="1"/>
      <path id="Path_3926" data-name="Path 3926" d="M3.5,9.831h4a1.333,1.333,0,1,0,0-2.665H4.833a1.333,1.333,0,1,1,0-2.665h4" transform="translate(1.164 1.497)" fill="none" stroke="#e3731a" stroke-linecap="round" stroke-linejoin="round" stroke-width="1"/>
    </g>
  </g>
</svg>
