<svg data-ag="art1-dna-svg" xmlns="http://www.w3.org/2000/svg" xmlns:xlink="http://www.w3.org/1999/xlink" width="347.109" height="1176.911" viewBox="0 0 347.109 1176.911">

    <g id="DNA_Base_Pairs" data-name="DNA_Base Pairs" transform="translate(18325.113 12721.729)">
      <g id="Group_671" data-name="Group 671" transform="translate(-18325.113 -12721.729)">
        <g data-ag="art1-colors">
          <path id="Path_6563" data-name="Path 6563" d="M147.837,609.954C92.545,569.437.5,496.981.5,409.759V362.921C3.3,454.964,98.77,518.357,147.837,554.31c55.292,40.517,147.334,112.973,147.334,200.2l-9.677,0c-25.929-67.095-97.408-115.056-137.658-144.549" transform="translate(0.58 421.326)" fill="#fcf5ef"/>
          <path id="Path_6564" data-name="Path 6564" d="M147.837,609.954C92.545,569.437.5,496.981.5,409.759V362.921C3.3,454.964,98.77,518.357,147.837,554.31c55.292,40.517,147.334,112.973,147.334,200.2l-9.677,0C259.565,687.408,188.086,639.446,147.837,609.954Z" transform="translate(0.58 421.326)" fill="none" stroke="#000" stroke-miterlimit="10" stroke-width="1"/>
          <path id="Path_6565" data-name="Path 6565" d="M147.837,373.1c55.292,40.517,147.334,112.971,147.334,200.193v46.838C292.37,528.09,196.9,464.7,147.837,428.743,92.545,388.226.5,315.772.5,228.55V181.71C3.3,273.755,98.77,337.148,147.837,373.1" transform="translate(0.58 210.952)" fill="#fcf5ef"/>
          <path id="Path_6566" data-name="Path 6566" d="M147.837,373.1c55.292,40.517,147.334,112.971,147.334,200.193v46.838C292.37,528.09,196.9,464.7,147.837,428.743,92.545,388.226.5,315.772.5,228.55V181.71C3.3,273.755,98.77,337.148,147.837,373.1Z" transform="translate(0.58 210.952)" fill="none" stroke="#000" stroke-miterlimit="10" stroke-width="1"/>
          <path id="Path_6567" data-name="Path 6567" d="M147.837,191.891c55.292,40.517,147.334,112.971,147.334,200.193v46.84c-2.8-92.045-98.27-155.438-147.334-191.391C92.545,207.016.5,134.562.5,47.342V.5C3.3,92.545,98.77,155.938,147.837,191.891" transform="translate(0.58 0.58)" fill="#fcf5ef"/>
          <path id="Path_6568" data-name="Path 6568" d="M147.837,191.891c55.292,40.517,147.334,112.971,147.334,200.193v46.84c-2.8-92.045-98.27-155.438-147.334-191.391C92.545,207.016.5,134.562.5,47.342V.5C3.3,92.545,98.77,155.938,147.837,191.891Z" transform="translate(0.58 0.58)" fill="none" stroke="#000" stroke-miterlimit="10" stroke-width="1"/>
          <path id="Path_6569" data-name="Path 6569" d="M152.137,528.9l-8.629-9.858H24.6c-5.6,5.925-11.1,12.183-12.581,19.716H143.51Z" transform="translate(13.957 602.567)" fill="#f7f7f7"/>
          <path id="Path_6570" data-name="Path 6570" d="M152.137,528.9l-8.629-9.858H24.6c-5.6,5.925-11.1,12.183-12.581,19.716H143.51Z" transform="translate(13.957 602.567)" fill="none" stroke="#000" stroke-miterlimit="10" stroke-width="1"/>
          <path id="Path_6571" data-name="Path 6571" d="M72.869,519.037,81.5,528.9l-8.626,9.86h112.39c8.281-.473,2.98-18.709-9.292-19.718Z" transform="translate(84.596 602.565)" fill="#dfe6ef"/>
          <path id="Path_6572" data-name="Path 6572" d="M72.869,519.037,81.5,528.9l-8.626,9.86h112.39c8.281-.473,2.98-18.709-9.292-19.718Z" transform="translate(84.596 602.565)" fill="none" stroke="#000" stroke-miterlimit="10" stroke-width="1"/>
          <path id="Path_6573" data-name="Path 6573" d="M132.908,499.341l-6.04-9.858H54.354c-8.17,5.558-16.047,12-20.5,19.716H126.87Z" transform="translate(39.301 568.255)" fill="#e4c0aa"/>
          <path id="Path_6574" data-name="Path 6574" d="M132.908,499.341l-6.04-9.858H54.354c-8.17,5.558-16.047,12-20.5,19.716H126.87Z" transform="translate(39.301 568.255)" fill="none" stroke="#000" stroke-miterlimit="10" stroke-width="1"/>
          <path id="Path_6575" data-name="Path 6575" d="M76.9,489.483l6.04,9.858L76.9,509.2h59.59c9.1-1.986.594-18.876-12.754-19.719Z" transform="translate(89.272 568.255)" fill="#e7dde5"/>
          <path id="Path_6576" data-name="Path 6576" d="M76.9,489.483l6.04,9.858L76.9,509.2h59.59c9.1-1.986.594-18.876-12.754-19.719Z" transform="translate(89.272 568.255)" fill="none" stroke="#000" stroke-miterlimit="10" stroke-width="1"/>
          <path id="Path_6577" data-name="Path 6577" d="M132.522,368.938H2.834v19.721H132.522l12.326-9.858Z" transform="translate(3.29 428.31)" fill="#fcf5ef"/>
          <path id="Path_6578" data-name="Path 6578" d="M132.522,368.938H2.834v19.721H132.522l12.326-9.858Z" transform="translate(3.29 428.31)" fill="#e4c0aa" stroke="#000" stroke-miterlimit="10" stroke-width="1"/>
          <path id="Path_6579" data-name="Path 6579" d="M217.186,368.938H62.848L75.174,378.8l-12.324,9.858H217.186Z" transform="translate(72.963 428.31)" fill="#e7dde5"/>
          <path id="Path_6580" data-name="Path 6580" d="M217.186,368.938H62.848L75.174,378.8l-12.324,9.858H217.186Z" transform="translate(72.963 428.31)" fill="none" stroke="#000" stroke-miterlimit="10" stroke-width="1"/>
          <path id="Path_6581" data-name="Path 6581" d="M152.137,346.131l-8.629-9.858H24.6C19,342.2,13.5,348.456,12.022,355.989H143.51Z" transform="translate(13.957 390.389)" fill="#f7f7f7"/>
          <path id="Path_6582" data-name="Path 6582" d="M152.137,346.131l-8.629-9.858H24.6C19,342.2,13.5,348.456,12.022,355.989H143.51Z" transform="translate(13.957 390.389)" fill="none" stroke="#000" stroke-miterlimit="10" stroke-width="1"/>
          <path id="Path_6583" data-name="Path 6583" d="M72.869,336.273l8.629,9.858-8.626,9.86h112.39c8.281-.475.819-18.709-11.453-19.718Z" transform="translate(84.596 390.389)" fill="#dfe6ef"/>
          <path id="Path_6584" data-name="Path 6584" d="M72.869,336.273l8.629,9.858-8.626,9.86h112.39c8.281-.475.819-18.709-11.453-19.718Z" transform="translate(84.596 390.389)" fill="none" stroke="#000" stroke-miterlimit="10" stroke-width="1"/>
          <path id="Path_6585" data-name="Path 6585" d="M132.908,316.58l-6.04-9.863H54.354c-8.17,5.562-16.047,12-20.5,19.721H126.87Z" transform="translate(39.301 356.077)" fill="#dfe6ef"/>
          <path id="Path_6586" data-name="Path 6586" d="M132.908,316.58l-6.04-9.863H54.354c-8.17,5.562-16.047,12-20.5,19.721H126.87Z" transform="translate(39.301 356.077)" fill="none" stroke="#000" stroke-miterlimit="10" stroke-width="1"/>
          <path id="Path_6587" data-name="Path 6587" d="M76.9,306.718l6.04,9.863L76.9,326.439h59.59c9.1-1.988.594-18.878-12.754-19.721Z" transform="translate(89.272 356.078)" fill="#f7f7f7"/>
          <path id="Path_6588" data-name="Path 6588" d="M76.9,306.718l6.04,9.863L76.9,326.439h59.59c9.1-1.988.594-18.878-12.754-19.721Z" transform="translate(89.272 356.078)" fill="none" stroke="#000" stroke-miterlimit="10" stroke-width="1"/>
          <path id="Path_6589" data-name="Path 6589" d="M122.974,411.462l-8.626-9.858H11.775c-5.32,2.939-.173,17.56,9.465,19.721h93.106Z" transform="translate(11.187 466.234)" fill="#e7dde5"/>
          <path id="Path_6590" data-name="Path 6590" d="M122.974,411.462l-8.626-9.858H11.775c-5.32,2.939-.173,17.56,9.465,19.721h93.106Z" transform="translate(11.187 466.234)" fill="none" stroke="#000" stroke-miterlimit="10" stroke-width="1"/>
          <path id="Path_6591" data-name="Path 6591" d="M208.733,401.6H58.095l8.624,9.858-8.626,9.862H208.733Z" transform="translate(67.442 466.233)" fill="#e4c0aa"/>
          <path id="Path_6592" data-name="Path 6592" d="M208.733,401.6H58.095l8.624,9.858-8.626,9.862H208.733Z" transform="translate(67.442 466.233)" fill="none" stroke="#000" stroke-miterlimit="10" stroke-width="1"/>
          <path id="Path_6593" data-name="Path 6593" d="M53.567,431.158l6.038,9.858-6.04,9.86H154.586a113.438,113.438,0,0,0,18.454-19.718Z" transform="translate(62.185 500.544)" fill="#dfe6ef"/>
          <path id="Path_6594" data-name="Path 6594" d="M53.567,431.158l6.038,9.858-6.04,9.86H154.586a113.438,113.438,0,0,0,18.454-19.718Z" transform="translate(62.185 500.544)" fill="none" stroke="#000" stroke-miterlimit="10" stroke-width="1"/>
          <path id="Path_6595" data-name="Path 6595" d="M91.242,441.017,85.2,431.159H30.771c-11.323,1.511.966,17.895,14.13,19.716H85.2Z" transform="translate(30.548 500.545)" fill="#f7f7f7"/>
          <path id="Path_6596" data-name="Path 6596" d="M91.242,441.017,85.2,431.159H30.771c-11.323,1.511.966,17.895,14.13,19.716H85.2Z" transform="translate(30.548 500.545)" fill="none" stroke="#000" stroke-miterlimit="10" stroke-width="1"/>
          <path id="Path_6597" data-name="Path 6597" d="M132.522,187.726H2.834v19.718H132.522l12.326-9.858Z" transform="translate(3.29 217.937)" fill="#f7f7f7"/>
          <path id="Path_6598" data-name="Path 6598" d="M132.522,187.726H2.834v19.718H132.522l12.326-9.858Z" transform="translate(3.29 217.937)" fill="none" stroke="#000" stroke-miterlimit="10" stroke-width="1"/>
          <path id="Path_6599" data-name="Path 6599" d="M217.186,187.726H62.848l12.326,9.86-12.324,9.858H217.186Z" transform="translate(72.963 217.937)" fill="#dfe6ef"/>
          <path id="Path_6600" data-name="Path 6600" d="M217.186,187.726H62.848l12.326,9.86-12.324,9.858H217.186Z" transform="translate(72.963 217.937)" fill="none" stroke="#000" stroke-miterlimit="10" stroke-width="1"/>
          <path id="Path_6601" data-name="Path 6601" d="M152.137,164.921l-8.629-9.86H24.6c-5.6,5.925-11.1,12.185-12.581,19.718H143.51Z" transform="translate(13.957 180.015)" fill="#dfe6ef"/>
          <path id="Path_6602" data-name="Path 6602" d="M152.137,164.921l-8.629-9.86H24.6c-5.6,5.925-11.1,12.185-12.581,19.718H143.51Z" transform="translate(13.957 180.015)" fill="none" stroke="#000" stroke-miterlimit="10" stroke-width="1"/>
          <path id="Path_6603" data-name="Path 6603" d="M72.869,155.061l8.629,9.86-8.626,9.86h112.39c8.281-.478.819-18.709-11.453-19.721Z" transform="translate(84.596 180.015)" fill="#f7f7f7"/>
          <path id="Path_6604" data-name="Path 6604" d="M72.869,155.061l8.629,9.86-8.626,9.86h112.39c8.281-.478.819-18.709-11.453-19.721Z" transform="translate(84.596 180.015)" fill="none" stroke="#000" stroke-miterlimit="10" stroke-width="1"/>
          <path id="Path_6605" data-name="Path 6605" d="M132.908,135.367l-6.04-9.86H54.354c-8.17,5.558-16.047,12-20.5,19.721H126.87Z" transform="translate(39.301 145.705)" fill="#e7dde5"/>
          <path id="Path_6606" data-name="Path 6606" d="M132.908,135.367l-6.04-9.86H54.354c-8.17,5.558-16.047,12-20.5,19.721H126.87Z" transform="translate(39.301 145.705)" fill="none" stroke="#000" stroke-miterlimit="10" stroke-width="1"/>
          <path id="Path_6607" data-name="Path 6607" d="M76.9,125.507l6.04,9.86L76.9,145.225h59.59c9.1-1.986.594-18.876-12.754-19.718Z" transform="translate(89.272 145.705)" fill="#e4c0aa"/>
          <path id="Path_6608" data-name="Path 6608" d="M76.9,125.507l6.04,9.86L76.9,145.225h59.59c9.1-1.986.594-18.876-12.754-19.718Z" transform="translate(89.272 145.705)" fill="none" stroke="#000" stroke-miterlimit="10" stroke-width="1"/>
          <path id="Path_6609" data-name="Path 6609" d="M122.974,230.251l-8.626-9.858H11.775c-5.32,2.937-.173,17.56,9.465,19.716h93.106Z" transform="translate(11.187 255.861)" fill="#e4c0aa"/>
          <path id="Path_6610" data-name="Path 6610" d="M122.974,230.251l-8.626-9.858H11.775c-5.32,2.937-.173,17.56,9.465,19.716h93.106Z" transform="translate(11.187 255.861)" fill="none" stroke="#000" stroke-miterlimit="10" stroke-width="1"/>
          <path id="Path_6611" data-name="Path 6611" d="M208.733,220.393H58.095l8.624,9.858-8.626,9.86H208.733Z" transform="translate(67.442 255.86)" fill="#e7dde5"/>
          <path id="Path_6612" data-name="Path 6612" d="M208.733,220.393H58.095l8.624,9.858-8.626,9.86H208.733Z" transform="translate(67.442 255.86)" fill="none" stroke="#000" stroke-miterlimit="10" stroke-width="1"/>
          <path id="Path_6613" data-name="Path 6613" d="M53.567,249.947l6.038,9.858-6.04,9.86H154.586a113.44,113.44,0,0,0,18.454-19.718Z" transform="translate(62.185 290.171)" fill="#fcf5ef"/>
          <path id="Path_6614" data-name="Path 6614" d="M53.567,249.947l6.038,9.858-6.04,9.86H154.586a113.44,113.44,0,0,0,18.454-19.718Z" transform="translate(62.185 290.171)" fill="#e4c0aa" stroke="#000" stroke-miterlimit="10" stroke-width="1"/>
          <path id="Path_6615" data-name="Path 6615" d="M91.242,259.806,85.2,249.948H30.771c-11.323,1.506.966,17.895,14.13,19.716H85.2Z" transform="translate(30.548 290.172)" fill="#e7dde5"/>
          <path id="Path_6616" data-name="Path 6616" d="M91.242,259.806,85.2,249.948H30.771c-11.323,1.506.966,17.895,14.13,19.716H85.2Z" transform="translate(30.548 290.172)" fill="none" stroke="#000" stroke-miterlimit="10" stroke-width="1"/>
          <path id="Path_6617" data-name="Path 6617" d="M122.974,50.6l-8.626-9.858H11.775C6.455,43.674,11.6,58.3,21.24,60.458h93.106Z" transform="translate(11.187 47.293)" fill="#e4c0aa"/>
          <path id="Path_6618" data-name="Path 6618" d="M122.974,50.6l-8.626-9.858H11.775C6.455,43.674,11.6,58.3,21.24,60.458h93.106Z" transform="translate(11.187 47.293)" fill="none" stroke="#000" stroke-miterlimit="10" stroke-width="1"/>
          <path id="Path_6619" data-name="Path 6619" d="M208.733,40.736H58.095l8.624,9.858-8.626,9.862H208.733Z" transform="translate(67.442 47.292)" fill="#e7dde5"/>
          <path id="Path_6620" data-name="Path 6620" d="M208.733,40.736H58.095l8.624,9.858-8.626,9.862H208.733Z" transform="translate(67.442 47.292)" fill="none" stroke="#000" stroke-miterlimit="10" stroke-width="1"/>
          <path id="Path_6621" data-name="Path 6621" d="M132.522,8.07H2.834V27.789H132.522l12.326-9.858Z" transform="translate(3.29 9.369)" fill="#e7dde5"/>
          <path id="Path_6622" data-name="Path 6622" d="M132.522,8.07H2.834V27.789H132.522l12.326-9.858Z" transform="translate(3.29 9.369)" fill="none" stroke="#000" stroke-miterlimit="10" stroke-width="1"/>
          <path id="Path_6623" data-name="Path 6623" d="M217.186,8.07H62.848l12.326,9.86L62.851,27.789H217.186Z" transform="translate(72.963 9.369)" fill="#e4c0aa"/>
          <path id="Path_6624" data-name="Path 6624" d="M217.186,8.07H62.848l12.326,9.86L62.851,27.789H217.186Z" transform="translate(72.963 9.369)" fill="none" stroke="#000" stroke-miterlimit="10" stroke-width="1"/>
          <path id="Path_6625" data-name="Path 6625" d="M53.567,70.29,59.6,80.148l-6.04,9.862H154.586A113.453,113.453,0,0,0,173.041,70.29Z" transform="translate(62.185 81.602)" fill="#dfe6ef"/>
          <path id="Path_6626" data-name="Path 6626" d="M53.567,70.29,59.6,80.148l-6.04,9.862H154.586A113.453,113.453,0,0,0,173.041,70.29Z" transform="translate(62.185 81.602)" fill="none" stroke="#000" stroke-miterlimit="10" stroke-width="1"/>
          <path id="Path_6627" data-name="Path 6627" d="M91.242,80.149,85.2,70.291H30.771C19.448,71.8,31.737,88.186,44.9,90.009H85.2Z" transform="translate(30.548 81.603)" fill="#f7f7f7"/>
          <path id="Path_6628" data-name="Path 6628" d="M91.242,80.149,85.2,70.291H30.771C19.448,71.8,31.737,88.186,44.9,90.009H85.2Z" transform="translate(30.548 81.603)" fill="none" stroke="#000" stroke-miterlimit="10" stroke-width="1"/>
          <path id="Path_6629" data-name="Path 6629" d="M10.177,754.5c25.929-67.095,97.408-115.054,137.66-144.549,55.29-40.517,147.334-112.973,147.334-200.193v-46.84c-2.8,92.045-98.273,155.438-147.334,191.389C92.545,594.828.5,667.286.5,754.505h9.677Z" transform="translate(0.58 421.326)" fill="#fcf5ef"/>
          <path id="Path_6630" data-name="Path 6630" d="M10.177,754.5c25.929-67.095,97.408-115.054,137.66-144.549,55.29-40.517,147.334-112.973,147.334-200.193v-46.84c-2.8,92.045-98.273,155.438-147.334,191.389C92.545,594.828.5,667.286.5,754.505h9.677Z" transform="translate(0.58 421.326)" fill="none" stroke="#000" stroke-miterlimit="10" stroke-width="1"/>
          <path id="Path_6631" data-name="Path 6631" d="M147.837,191.891C92.545,232.409.5,304.863.5,392.084v46.84C3.3,346.88,98.77,283.487,147.837,247.533,203.128,207.018,295.171,134.562,295.171,47.34V.5c-2.8,92.045-98.27,155.438-147.334,191.391" transform="translate(0.58 0.58)" fill="#fcf5ef"/>
          <path id="Path_6632" data-name="Path 6632" d="M147.837,191.891C92.545,232.409.5,304.863.5,392.084v46.84C3.3,346.88,98.77,283.487,147.837,247.533,203.128,207.018,295.171,134.562,295.171,47.34V.5C292.37,92.545,196.9,155.938,147.837,191.891Z" transform="translate(0.58 0.58)" fill="none" stroke="#000" stroke-miterlimit="10" stroke-width="1"/>
          <path id="Path_6633" data-name="Path 6633" d="M147.837,373.1C92.545,413.619.5,486.073.5,573.294v46.838C3.3,528.09,98.77,464.7,147.837,428.743c55.292-40.517,147.334-112.971,147.334-200.193V181.71c-2.8,92.045-98.27,155.438-147.334,191.391" transform="translate(0.58 210.952)" fill="#fcf5ef"/>
          <path id="Path_6634" data-name="Path 6634" d="M147.837,373.1C92.545,413.619.5,486.073.5,573.294v46.838C3.3,528.09,98.77,464.7,147.837,428.743c55.292-40.517,147.334-112.971,147.334-200.193V181.71C292.37,273.755,196.9,337.148,147.837,373.1Z" transform="translate(0.58 210.952)" fill="none" stroke="#000" stroke-miterlimit="10" stroke-width="1"/>
          <path id="Path_6635" data-name="Path 6635" d="M10.177.5H.5V47.34C2.881,29.1,5.088,16.292,10.177.5" transform="translate(0.58 0.58)" fill="#fcf5ef"/>
          <path id="Path_6636" data-name="Path 6636" d="M10.177.5H.5V47.34C2.881,29.1,5.088,16.292,10.177.5Z" transform="translate(0.58 0.58)" fill="none" stroke="#000" stroke-miterlimit="10" stroke-width="1"/>
          <path id="Path_6637" data-name="Path 6637" d="M85.493,464.364c33.7,22.692,111.007,85.151,111.007,172.373h-9.679c0-94.346-72.724-147.678-101.328-172.373" transform="translate(99.251 539.094)" fill="#fcf5ef"/>
          <path id="Path_6638" data-name="Path 6638" d="M85.493,464.364c33.7,22.692,111.007,85.151,111.007,172.373h-9.679C186.821,542.391,114.1,489.059,85.493,464.364Z" transform="translate(99.251 539.094)" fill="none" stroke="#000" stroke-miterlimit="10" stroke-width="1"/>
          <path id="Path_6639" data-name="Path 6639" d="M105.008,283.153c30.668,19.608,111.009,85.151,111.009,172.373,0,66.835-43.7,125.1-147.337,191.389C138.743,594,206.339,538.746,206.339,455.526c0-94.344-80.376-154.305-101.33-172.373" transform="translate(79.734 328.721)" fill="#fcf5ef"/>
          <path id="Path_6640" data-name="Path 6640" d="M105.008,283.153c30.668,19.608,111.009,85.151,111.009,172.373,0,66.835-43.7,125.1-147.337,191.389C138.743,594,206.339,538.746,206.339,455.526,206.339,361.182,125.963,301.221,105.008,283.153Z" transform="translate(79.734 328.721)" fill="none" stroke="#000" stroke-miterlimit="10" stroke-width="1"/>
          <path id="Path_6641" data-name="Path 6641" d="M216.016.5c0,66.835-43.7,125.1-147.334,191.391C138.742,138.972,206.338,83.722,206.338.5Z" transform="translate(79.735 0.58)" fill="#fcf5ef"/>
          <path id="Path_6642" data-name="Path 6642" d="M216.016.5c0,66.835-43.7,125.1-147.334,191.391C138.742,138.972,206.338,83.722,206.338.5Z" transform="translate(79.735 0.58)" fill="none" stroke="#000" stroke-miterlimit="10" stroke-width="1"/>
          <path id="Path_6643" data-name="Path 6643" d="M105.008,101.943c34.4,25.488,111.009,85.151,111.009,172.371,0,66.838-43.7,125.1-147.337,191.391,70.062-52.919,137.658-108.167,137.658-191.391,0-94.342-75.194-148.562-101.33-172.371" transform="translate(79.734 118.349)" fill="#fcf5ef"/>
          <path id="Path_6644" data-name="Path 6644" d="M105.008,101.943c34.4,25.488,111.009,85.151,111.009,172.371,0,66.838-43.7,125.1-147.337,191.391,70.062-52.919,137.658-108.167,137.658-191.391C206.339,179.972,131.145,125.752,105.008,101.943Z" transform="translate(79.734 118.349)" fill="none" stroke="#000" stroke-miterlimit="10" stroke-width="1"/>
          <path id="Path_6645" data-name="Path 6645" d="M143.648,477.239C64.867,527.63,20.754,573.383,4.108,621.79h9.5c19.565-58.419,74.01-102.231,130.04-144.551" transform="translate(4.769 554.041)" fill="#fcf5ef"/>
          <path id="Path_6646" data-name="Path 6646" d="M143.648,477.239C64.867,527.63,20.754,573.383,4.108,621.79h9.5C33.173,563.371,87.617,519.559,143.648,477.239Z" transform="translate(4.769 554.041)" fill="none" stroke="#000" stroke-miterlimit="10" stroke-width="1"/>
          <path id="Path_6647" data-name="Path 6647" d="M111.507,659.79C66.884,629.682.5,574.639.5,487.417c0-66.833,43.7-125.1,147.337-191.389C77.775,348.945,10.179,404.2,10.179,487.417c0,94.346,69.377,144.551,101.328,172.373" transform="translate(0.58 343.668)" fill="#fcf5ef"/>
          <path id="Path_6648" data-name="Path 6648" d="M111.507,659.79C66.884,629.682.5,574.639.5,487.417c0-66.833,43.7-125.1,147.337-191.389C77.775,348.945,10.179,404.2,10.179,487.417,10.179,581.763,79.555,631.968,111.507,659.79Z" transform="translate(0.58 343.668)" fill="none" stroke="#000" stroke-miterlimit="10" stroke-width="1"/>
          <path id="Path_6649" data-name="Path 6649" d="M111.509,478.578C72.208,449.868.5,393.429.5,306.207c0-66.835,43.7-125.1,147.337-191.389C77.775,167.735,10.179,222.985,10.179,306.207c0,94.344,72.815,146.464,101.33,172.371" transform="translate(0.58 133.296)" fill="#fcf5ef"/>
          <path id="Path_6650" data-name="Path 6650" d="M111.509,478.578C72.208,449.868.5,393.429.5,306.207c0-66.835,43.7-125.1,147.337-191.389C77.775,167.735,10.179,222.985,10.179,306.207,10.179,400.551,82.993,452.671,111.509,478.578Z" transform="translate(0.58 133.296)" fill="none" stroke="#000" stroke-miterlimit="10" stroke-width="1"/>
          <path id="Path_6651" data-name="Path 6651" d="M10.179,47.34A146.268,146.268,0,0,1,17.8.5H8.3A142.633,142.633,0,0,0,.5,47.34c0,87.219,76.959,146.671,111.009,172.371-26.348-23.6-101.33-78.027-101.33-172.371" transform="translate(0.58 0.58)" fill="#fcf5ef"/>
          <path id="Path_6652" data-name="Path 6652" d="M10.179,47.34A146.268,146.268,0,0,1,17.8.5H8.3A142.633,142.633,0,0,0,.5,47.34c0,87.219,76.959,146.671,111.009,172.371C85.161,196.112,10.179,141.684,10.179,47.34Z" transform="translate(0.58 0.58)" fill="none" stroke="#000" stroke-miterlimit="10" stroke-width="1"/>
        </g>
      </g>


      <g data-ag="art1-letters">
        <text id="A" transform="translate(-18206.328 -12706.736)" fill="#8d4c82" font-size="20" font-family="Metric-Medium, Metric" font-weight="500" letter-spacing="0.003em"><tspan x="0" y="18">A</tspan></text>
        <text id="A-2" data-name="A" transform="translate(-18189.197 -12635.736)" fill="#8d4c82" font-size="20" font-family="Metric-Medium, Metric" font-weight="500" letter-spacing="0.003em"><tspan x="0" y="18">A</tspan></text>
        <text id="A-3" data-name="A" transform="translate(-18197.895 -12183)" fill="#8d4c82" font-size="20" font-family="Metric-Medium, Metric" font-weight="500" letter-spacing="0.003em"><tspan x="0" y="18">A</tspan></text>
        <text id="A-4" data-name="A" transform="translate(-18187.828 -11856)" fill="#8d4c82" font-size="20" font-family="Metric-Medium, Metric" font-weight="500" letter-spacing="0.003em"><tspan x="0" y="18">A</tspan></text>
        <text id="A-5" data-name="A" transform="translate(-18171.697 -12452.736)" fill="#8d4c82" font-size="20" font-family="Metric-Medium, Metric" font-weight="500" letter-spacing="0.003em"><tspan x="0" y="18">A</tspan></text>
        <text id="A-6" data-name="A" transform="translate(-18188.828 -12246.736)" fill="#8d4c82" font-size="20" font-family="Metric-Medium, Metric" font-weight="500" letter-spacing="0.003em"><tspan x="0" y="18">A</tspan></text>
        <text id="A-7" data-name="A" transform="translate(-18175.328 -11926)" fill="#8d4c82" font-size="20" font-family="Metric-Medium, Metric" font-weight="500" letter-spacing="0.003em"><tspan x="0" y="18">A</tspan></text>
        <text id="A-8" data-name="A" transform="translate(-18152.512 -11666)" fill="#8d4c82" font-size="20" font-family="Metric-Medium, Metric" font-weight="500" letter-spacing="0.003em"><tspan x="0" y="18">A</tspan></text>
        <text id="T" transform="translate(-18173.328 -12706.736)" fill="#bc5a1d" font-size="20" font-family="Metric-Medium, Metric" font-weight="500" letter-spacing="0.003em"><tspan x="0" y="18">T</tspan></text>
        <text id="T-2" data-name="T" transform="translate(-18214.328 -12635.736)" fill="#bc5a1d" font-size="20" font-family="Metric-Medium, Metric" font-weight="500" letter-spacing="0.003em"><tspan x="0" y="18">T</tspan></text>
        <text id="T-3" data-name="T" transform="translate(-18223.023 -12183)" fill="#bc5a1d" font-size="20" font-family="Metric-Medium, Metric" font-weight="500" letter-spacing="0.003em"><tspan x="0" y="18">T</tspan></text>
        <text id="T-4" data-name="T" transform="translate(-18212.957 -11856)" fill="#bc5a1d" font-size="20" font-family="Metric-Medium, Metric" font-weight="500" letter-spacing="0.003em"><tspan x="0" y="18">T</tspan></text>
        <text id="T-5" data-name="T" transform="translate(-18148.697 -12452.736)" fill="#bc5a1d" font-size="20" font-family="Metric-Medium, Metric" font-weight="500" letter-spacing="0.003em"><tspan x="0" y="18">T</tspan></text>
        <text id="T-6" data-name="T" transform="translate(-18213.959 -12246.736)" fill="#bc5a1d" font-size="20" font-family="Metric-Medium, Metric" font-weight="500" letter-spacing="0.003em"><tspan x="0" y="18">T</tspan></text>
        <text id="T-7" data-name="T" transform="translate(-18200.459 -11926)" fill="#bc5a1d" font-size="20" font-family="Metric-Medium, Metric" font-weight="500" letter-spacing="0.003em"><tspan x="0" y="18">T</tspan></text>
        <text id="T-8" data-name="T" transform="translate(-18177.645 -11666)" fill="#bc5a1d" font-size="20" font-family="Metric-Medium, Metric" font-weight="500" letter-spacing="0.003em"><tspan x="0" y="18">T</tspan></text>
        <text id="G" transform="translate(-18223.328 -12572)" fill="#5c5858" font-size="20" font-family="Metric-Medium, Metric" font-weight="500" letter-spacing="0.003em"><tspan x="0" y="18">G</tspan></text>
        <text id="G-2" data-name="G" transform="translate(-18155.328 -12388.736)" fill="#5c5858" font-size="20" font-family="Metric-Medium, Metric" font-weight="500" letter-spacing="0.003em"><tspan x="0" y="18">G</tspan></text>
        <text id="G-3" data-name="G" transform="translate(-18150.328 -12061.736)" fill="#5c5858" font-size="20" font-family="Metric-Medium, Metric" font-weight="500" letter-spacing="0.003em"><tspan x="0" y="18">G</tspan></text>
        <text id="G-4" data-name="G" transform="translate(-18201.828 -12317.736)" fill="#5c5858" font-size="20" font-family="Metric-Medium, Metric" font-weight="500" letter-spacing="0.003em"><tspan x="0" y="18">G</tspan></text>
        <text id="G-5" data-name="G" transform="translate(-18183.078 -11998)" fill="#5c5858" font-size="20" font-family="Metric-Medium, Metric" font-weight="500" letter-spacing="0.003em"><tspan x="0" y="18">G</tspan></text>
        <text id="G-6" data-name="G" transform="translate(-18224.645 -11792.264)" fill="#5c5858" font-size="20" font-family="Metric-Medium, Metric" font-weight="500" letter-spacing="0.003em"><tspan x="0" y="18">G</tspan></text>
        <text id="G-7" data-name="G" transform="translate(-18181.578 -11602.264)" fill="#5c5858" font-size="20" font-family="Metric-Medium, Metric" font-weight="500" letter-spacing="0.003em"><tspan x="0" y="18">G</tspan></text>
        <text id="C" transform="translate(-18198.328 -12572)" fill="#37598e" font-size="20" font-family="Metric-Medium, Metric" font-weight="500" letter-spacing="0.003em"><tspan x="0" y="18">C</tspan></text>
        <text id="C-2" data-name="C" transform="translate(-18181.328 -12388.736)" fill="#37598e" font-size="20" font-family="Metric-Medium, Metric" font-weight="500" letter-spacing="0.003em"><tspan x="0" y="18">C</tspan></text>
        <text id="C-3" data-name="C" transform="translate(-18176.328 -12061.736)" fill="#37598e" font-size="20" font-family="Metric-Medium, Metric" font-weight="500" letter-spacing="0.003em"><tspan x="0" y="18">C</tspan></text>
        <text id="C-4" data-name="C" transform="translate(-18173.328 -12317.736)" fill="#37598e" font-size="20" font-family="Metric-Medium, Metric" font-weight="500" letter-spacing="0.003em"><tspan x="0" y="18">C</tspan></text>
        <text id="C-5" data-name="C" transform="translate(-18154.578 -11998)" fill="#37598e" font-size="20" font-family="Metric-Medium, Metric" font-weight="500" letter-spacing="0.003em"><tspan x="0" y="18">C</tspan></text>
        <text id="C-6" data-name="C" transform="translate(-18196.145 -11792.264)" fill="#37598e" font-size="20" font-family="Metric-Medium, Metric" font-weight="500" letter-spacing="0.003em"><tspan x="0" y="18">C</tspan></text>
        <text id="C-7" data-name="C" transform="translate(-18153.078 -11602.264)" fill="#37598e" font-size="20" font-family="Metric-Medium, Metric" font-weight="500" letter-spacing="0.003em"><tspan x="0" y="18">C</tspan></text>
      </g>

    </g>


<g data-ag="art1-labels">
    <g id="Group_48463" data-name="Group 48463" transform="translate(-857.891 -55.271)">
      <text id="Sugar-phosphate_backbone" data-name="Sugar-phosphate backbone" transform="translate(1117 241)" fill="#2e2e2e" font-size="20" font-family="Metric-Medium, Metric" font-weight="500" letter-spacing="0.003em"><tspan x="0" y="18">Sugar-</tspan><tspan x="0" y="40">phosphate </tspan><tspan x="0" y="62">backbone</tspan></text>
      <path id="Path_10629" data-name="Path 10629" d="M-17626.062-13184.788l-62.072-22.072" transform="translate(18743.063 13451.36)" fill="none" stroke="#2e2e2e" stroke-width="1"/>
    </g>
    <g id="Group_48464" data-name="Group 48464" transform="translate(-857.891 -55.271)">
      <text id="Base_pairs" data-name="Base pairs" transform="translate(1117 645)" fill="#2e2e2e" font-size="20" font-family="Metric-Medium, Metric" font-weight="500" letter-spacing="0.003em"><tspan x="0" y="18">Base </tspan><tspan x="0" y="40">pairs</tspan></text>
      <path id="Path_6514" data-name="Path 6514" d="M-17617.562-13156.577l-70.572-50.283" transform="translate(18729.135 13811.819)" fill="none" stroke="#2e2e2e" stroke-width="1"/>
      <path id="Path_10628" data-name="Path 10628" d="M-17688.137-13160.437l61.172-46.424" transform="translate(18738.537 13884.437)" fill="none" stroke="#2e2e2e" stroke-width="1"/>
    </g>
</g>



  </svg>
  