<svg xmlns="http://www.w3.org/2000/svg" xmlns:xlink="http://www.w3.org/1999/xlink" width="381.799" height="402.046" viewBox="0 0 381.799 402.046">

<g data-ag="art5-scene">

    <g id="Flow_chart" data-name="Flow chart" transform="translate(1584 11366.791)">
      <g id="Group_753" data-name="Group 753" transform="translate(-2381 -11553)">
        <g data-ag="art5-arrow">
        <g id="Group_72" data-name="Group 72" transform="translate(980 357.532)">
          <g id="Group_73" data-name="Group 73" transform="translate(0 0)">
            <line id="Line_114" data-name="Line 114" y1="25.103" transform="translate(9.114)" fill="none" stroke="#2e2e2e" stroke-miterlimit="10" stroke-width="1"/>
            <path id="Path_6135" data-name="Path 6135" d="M19.642,106.705l-9.114,9.114-9.114-9.114" transform="translate(-1.414 -89.448)" fill="none" stroke="#2e2e2e" stroke-miterlimit="10" stroke-width="1"/>
          </g>
        </g>
        </g>
        <g data-ag="art5-arrows">
        <g id="Group_96" data-name="Group 96" transform="translate(918 432.629)">
          <g id="Group_94" data-name="Group 94" transform="translate(62.688 15.768)">
            <g id="Group_73-2" data-name="Group 73" transform="translate(0 0)">
              <line id="Line_114-2" data-name="Line 114" y1="25.103" transform="translate(9.114)" fill="none" stroke="#2e2e2e" stroke-miterlimit="10" stroke-width="1"/>
              <path id="Path_6135-2" data-name="Path 6135" d="M19.642,106.705l-9.114,9.114-9.114-9.114" transform="translate(-1.414 -89.448)" fill="none" stroke="#2e2e2e" stroke-miterlimit="10" stroke-width="1"/>
            </g>
          </g>
          <g id="Group_93" data-name="Group 93" transform="translate(18.647 0) rotate(45)">
            <g id="Group_73-3" data-name="Group 73" transform="translate(0 0)">
              <line id="Line_114-3" data-name="Line 114" y1="25.103" transform="translate(9.114 0)" fill="none" stroke="#2e2e2e" stroke-miterlimit="10" stroke-width="1"/>
              <path id="Path_6135-3" data-name="Path 6135" d="M18.228,0,9.114,9.114,0,0" transform="translate(0 17.257)" fill="none" stroke="#2e2e2e" stroke-miterlimit="10" stroke-width="1"/>
            </g>
          </g>
          <g id="Group_95" data-name="Group 95" transform="translate(143.605 18.647) rotate(135)">
            <g id="Group_73-4" data-name="Group 73" transform="translate(0 0)">
              <line id="Line_114-4" data-name="Line 114" y2="25.103" transform="translate(9.114 1.268)" fill="none" stroke="#2e2e2e" stroke-miterlimit="10" stroke-width="1"/>
              <path id="Path_6135-4" data-name="Path 6135" d="M18.228,9.114,9.114,0,0,9.114" transform="translate(0 0)" fill="none" stroke="#2e2e2e" stroke-miterlimit="10" stroke-width="1"/>
            </g>
          </g>
        </g>
        </g>
       
        <g data-ag="art5-level1">
            <g id="Group_482" data-name="Group 482" transform="translate(15923 13020)">
            <g id="Rectangle_32569" data-name="Rectangle 32569" transform="translate(-15013 -12622)" fill="#fff" stroke="#e2e2e2" stroke-width="0.5">
                <rect width="159" height="29" stroke="none"/>
                <rect x="0.25" y="0.25" width="158.5" height="28.5" fill="none"/>
            </g>
            <g id="Group_64" data-name="Group 64" transform="translate(-15007.854 -12619.4)">
                <text id="Tailored_therapy" data-name="Tailored therapy" transform="translate(0)" fill="#2e2e2e" font-size="20" font-family="Metric-Medium, Metric" font-weight="500" letter-spacing="0.003em"><tspan x="9.293" y="18">Tailored therapy</tspan></text>
            </g>
            </g>
        </g>
        <g data-ag="art5-level0">
        <g id="Group_772" data-name="Group 772" transform="translate(15861.916 12942)">
          <g id="Rectangle_32569-2" data-name="Rectangle 32569" transform="translate(-15012.916 -12622)" fill="#fff" stroke="#e2e2e2" stroke-width="0.5">
            <rect width="121" height="29" stroke="none"/>
            <rect x="0.25" y="0.25" width="120.5" height="28.5" fill="none"/>
          </g>
          <g id="Group_64-2" data-name="Group 64" transform="translate(-15007.854 -12619.4)">
            <text id="Patient" transform="translate(0)" fill="#2e2e2e" font-size="20" font-family="Metric-Medium, Metric" font-weight="500" letter-spacing="0.003em"><tspan x="26.855" y="18">Patient</tspan></text>
          </g>
        </g>
        </g>
        <g data-ag="art5-level0">
        <g id="Group_773" data-name="Group 773" transform="translate(16020.916 12942)">
          <g id="Rectangle_32569-3" data-name="Rectangle 32569" transform="translate(-15012.916 -12622)" fill="#fff" stroke="#e2e2e2" stroke-width="0.5">
            <rect width="121" height="29" stroke="none"/>
            <rect x="0.25" y="0.25" width="120.5" height="28.5" fill="none"/>
          </g>
          <g id="Group_64-3" data-name="Group 64" transform="translate(-15007.854 -12619.4)">
            <text id="DNA_test" data-name="DNA test" transform="translate(0)" fill="#2e2e2e" font-size="20" font-family="Metric-Medium, Metric" font-weight="500" letter-spacing="0.003em"><tspan x="19.195" y="18">DNA test</tspan></text>
          </g>
        </g>
        </g>
        <g data-ag="art5-level0-icon">
        <g id="Group_735" data-name="Group 735" transform="translate(848.916 186.209)">
          <g id="Group_734" data-name="Group 734">
            <path id="Path_9592" data-name="Path 9592" d="M102.792,37.24c2.963-4.675-2.447-8.033-2.447-8.033,2.066-5.083-3.1-7.625-3.1-7.625,1.549-5.083-3.615-6.609-3.615-6.609,1.032-6.608-6.2-5.083-6.2-5.083-1.55-6.1-6.714-3.559-6.714-3.559-1.549-4.575-6.713-2.541-6.713-2.541-2.582-4.067-7.23-1.525-7.23-1.525-5.164-4.066-9.061.164-9.061.164-3.38-3.395-7.464.345-7.464.345-5.68-2.033-6.2,5.591-6.2,5.591-5.68-1.525-6.225,4.134-6.225,4.134-7.775-.949-6.169,7.557-6.169,7.557-7.746,1.017-6.2,7.625-6.2,7.625-8.779,4.066-1.032,11.691-1.032,11.691-4.648,3.558,0,7.625,0,7.625-4.132,6.1,3.1,8.133,3.1,8.133-2.066,3.558,2.065,6.608,2.065,6.608a4.768,4.768,0,0,0,4.132,5.591c.516,4.067,5.68,2.542,5.68,2.542.516,5.591,8.262,2.033,8.262,2.033a4.737,4.737,0,0,0,3.26,1.86,10.151,10.151,0,0,0,4.854-.27,63.337,63.337,0,0,1,10.084-2.18,4.627,4.627,0,0,0,2.506,1.3c4.156,1.145,6.158-.016,6.971-.786,7.189,2.494,10.8-2.208,10.8-2.208,5.164,1.525,7.229-3.558,7.229-3.558,6.714-.508,5.165-6.608,5.165-6.608,4.647-.509,5.164-7.625,5.164-7.625a5.587,5.587,0,0,0,.774-7.37c3.615-4.067-1.685-7.217-1.685-7.217" transform="translate(-2.989 -0.09)" fill="#c7d0dc" stroke="#707070" stroke-width="0.5"/>
            <path id="Path_9593" data-name="Path 9593" d="M102.792,37.24c2.963-4.675-2.447-8.033-2.447-8.033,2.066-5.083-3.1-7.625-3.1-7.625,1.549-5.083-3.615-6.609-3.615-6.609,1.032-6.608-6.2-5.083-6.2-5.083-1.55-6.1-6.714-3.559-6.714-3.559-1.549-4.575-6.713-2.541-6.713-2.541-2.582-4.067-7.23-1.525-7.23-1.525-5.164-4.066-9.061.164-9.061.164-3.38-3.395-7.464.345-7.464.345-5.68-2.033-6.2,5.591-6.2,5.591-5.68-1.525-6.225,4.134-6.225,4.134-7.775-.949-6.169,7.557-6.169,7.557-7.746,1.017-6.2,7.625-6.2,7.625-8.779,4.066-1.032,11.691-1.032,11.691-4.648,3.558,0,7.625,0,7.625-4.132,6.1,3.1,8.133,3.1,8.133-2.066,3.558,2.065,6.608,2.065,6.608a4.768,4.768,0,0,0,4.132,5.591c.516,4.067,5.68,2.542,5.68,2.542.516,5.591,8.262,2.033,8.262,2.033a4.737,4.737,0,0,0,3.26,1.86,10.151,10.151,0,0,0,4.854-.27,63.337,63.337,0,0,1,10.084-2.18,4.627,4.627,0,0,0,2.506,1.3c4.156,1.145,6.158-.016,6.971-.786,7.189,2.494,10.8-2.208,10.8-2.208,5.164,1.525,7.229-3.558,7.229-3.558,6.714-.508,5.165-6.608,5.165-6.608,4.647-.509,5.164-7.625,5.164-7.625a5.587,5.587,0,0,0,.774-7.37C108.092,40.39,102.792,37.24,102.792,37.24Z" transform="translate(-2.989 -0.09)" fill="none" stroke="#2e2e2e" stroke-width="0.5"/>
            <path id="Path_9594" data-name="Path 9594" d="M92.722,69.072a6.373,6.373,0,1,1,0-12.732.236.236,0,1,1,0,.471,5.9,5.9,0,1,0,0,11.789.236.236,0,1,1,0,.472" transform="translate(-12.088 -10.184)" fill="#fff" stroke="#707070" stroke-width="0.5"/>
            <path id="Path_9595" data-name="Path 9595" d="M92.722,69.072a6.373,6.373,0,1,1,0-12.732.236.236,0,1,1,0,.471,5.9,5.9,0,1,0,0,11.789.236.236,0,1,1,0,.472Z" transform="translate(-12.088 -10.184)" fill="none" stroke="#2e2e2e" stroke-miterlimit="10" stroke-width="0.5"/>
            <path id="Path_9596" data-name="Path 9596" d="M50.932,69.072a.236.236,0,1,1,0-.472,5.9,5.9,0,1,0,0-11.789.236.236,0,1,1,0-.471,6.373,6.373,0,1,1,0,12.732" transform="translate(-7.121 -10.184)" fill="#fff" stroke="#707070" stroke-width="0.5"/>
            <path id="Path_9597" data-name="Path 9597" d="M50.932,69.072a.236.236,0,1,1,0-.472,5.9,5.9,0,1,0,0-11.789.236.236,0,1,1,0-.471,6.373,6.373,0,1,1,0,12.732Z" transform="translate(-7.121 -10.184)" fill="none" stroke="#2e2e2e" stroke-miterlimit="10" stroke-width="0.5"/>
            <path id="Path_9598" data-name="Path 9598" d="M79.017,105.085l-20.523-1.02,2.837-23.409,0-.022.828-6.833H75.856l.741,7.335.033.323Z" transform="translate(-8.218 -13.341)" fill="#fff" stroke="#707070" stroke-width="0.5"/>
            <path id="Path_9599" data-name="Path 9599" d="M79.017,105.085l-20.523-1.02,2.837-23.409,0-.022.828-6.833H75.856l.741,7.335.033.323Z" transform="translate(-8.218 -13.341)" fill="none" stroke="#2e2e2e" stroke-miterlimit="10" stroke-width="0.5"/>
            <path id="Path_9600" data-name="Path 9600" d="M88.52,51.05a3.646,3.646,0,0,1-2.264,1.08c-2.468,10.333-9.25,17.754-17.229,17.754S54.254,62.449,51.792,52.1c-2.118-.319-3.763-2.7-3.763-5.591a6.2,6.2,0,0,1,2.007-4.782c1.208-.59,3.066-1.52,5.4-2.76,4.281-2.276,2.56-5.513,4.058-9.894a9.4,9.4,0,0,1,2.7-3.8c2.8.962,3.924,2.436,5.436,5.226,1.529,2.817,2.941,1.579,6.929,2.947a8.57,8.57,0,0,1,5.22,5.827c.906,4.052,2.322,7.139,5.241,8.442a7.493,7.493,0,0,1,3.5,3.328" transform="translate(-6.748 -4.57)" fill="#fff" stroke="#707070" stroke-width="0.5"/>
            <path id="Path_9601" data-name="Path 9601" d="M88.52,51.05a3.646,3.646,0,0,1-2.264,1.08c-2.468,10.333-9.25,17.754-17.229,17.754S54.254,62.449,51.792,52.1c-2.118-.319-3.763-2.7-3.763-5.591a6.2,6.2,0,0,1,2.007-4.782c1.208-.59,3.066-1.52,5.4-2.76,4.281-2.276,2.56-5.513,4.058-9.894a9.4,9.4,0,0,1,2.7-3.8c2.8.962,3.924,2.436,5.436,5.226,1.529,2.817,2.941,1.579,6.929,2.947a8.57,8.57,0,0,1,5.22,5.827c.906,4.052,2.322,7.139,5.241,8.442A7.493,7.493,0,0,1,88.52,51.05Z" transform="translate(-6.748 -4.57)" fill="none" stroke="#2e2e2e" stroke-miterlimit="10" stroke-width="0.5"/>
            <path id="Path_9602" data-name="Path 9602" d="M50.045,69.072a6.373,6.373,0,1,1,0-12.732.236.236,0,1,1,0,.471,5.9,5.9,0,1,0,0,11.789.236.236,0,1,1,0,.472" transform="translate(-6.093 -10.184)" fill="#fff" stroke="#707070" stroke-width="0.5"/>
            <path id="Path_9603" data-name="Path 9603" d="M50.045,69.072a6.373,6.373,0,1,1,0-12.732.236.236,0,1,1,0,.471,5.9,5.9,0,1,0,0,11.789.236.236,0,1,1,0,.472Z" transform="translate(-6.093 -10.184)" fill="none" stroke="#2e2e2e" stroke-miterlimit="10" stroke-width="0.5"/>
            <path id="Path_9604" data-name="Path 9604" d="M93.61,69.072a.236.236,0,1,1,0-.472,5.9,5.9,0,1,0,0-11.789.236.236,0,1,1,0-.471,6.373,6.373,0,1,1,0,12.732" transform="translate(-13.117 -10.184)" fill="#fff" stroke="#707070" stroke-width="0.5"/>
            <path id="Path_9605" data-name="Path 9605" d="M93.61,69.072a.236.236,0,1,1,0-.472,5.9,5.9,0,1,0,0-11.789.236.236,0,1,1,0-.471,6.373,6.373,0,1,1,0,12.732Z" transform="translate(-13.117 -10.184)" fill="none" stroke="#2e2e2e" stroke-miterlimit="10" stroke-width="0.5"/>
            <path id="Path_9606" data-name="Path 9606" d="M119.169,132.878c-.119-.274-.241-.54-.364-.8a20.976,20.976,0,0,0-1.131-2.094,13.663,13.663,0,0,0-1.811-2.367q-.28-.285-.566-.537a7.84,7.84,0,0,0-1.536-1.063c-2.106-1.1-3.973-2.016-5.653-2.8-.682-.317-1.333-.612-1.958-.887-.484-.212-.95-.415-1.4-.6-.468-.2-.917-.384-1.353-.56h0c-2.67-1.076-4.81-1.783-6.81-2.446-.518-.172-1.025-.341-1.53-.512l-.02-.007-.007,0a57.59,57.59,0,0,1-12.041-5.589l-.471-.28-.058-.036a17.406,17.406,0,0,1-1.694-1.167c-.144-.112-.285-.227-.426-.343C73.164,104.835,71,93.825,70.245,89.216v0h0c-.387.084-.791.169-1.211.249-.175.034-.353.067-.535.1a48.668,48.668,0,0,1-7.86.764,48.647,48.647,0,0,1-7.849-.762l-.011,0-.3-.056h0q-.754-.141-1.44-.292h0v0q-.055.334-.121.714c-.851,4.908-3.105,15.015-9.792,20.7q-.239.2-.484.4a17.256,17.256,0,0,1-1.873,1.3c-1.435.859-2.726,1.586-3.912,2.21-.2.1-.391.206-.583.3a54.676,54.676,0,0,1-8.017,3.354l-.007,0-.019.007c-.505.171-1.013.34-1.53.512-2,.664-4.14,1.37-6.81,2.446h0c-.435.176-.884.363-1.353.56-.451.188-.917.392-1.4.6q-.936.413-1.958.887c-1.68.783-3.547,1.7-5.652,2.8a7.814,7.814,0,0,0-1.536,1.063q-.288.251-.566.537A13.709,13.709,0,0,0,3.6,129.982a20.977,20.977,0,0,0-1.131,2.094c-.123.262-.245.528-.364.8a36.477,36.477,0,0,0-1.438,3.977H120.607a36.124,36.124,0,0,0-1.437-3.977" transform="translate(-0.093 -16.127)" fill="#e7dde5" stroke="#707070" stroke-width="0.5"/>
            <path id="Path_9607" data-name="Path 9607" d="M119.169,132.878c-.119-.274-.241-.54-.364-.8a20.976,20.976,0,0,0-1.131-2.094,13.663,13.663,0,0,0-1.811-2.367q-.28-.285-.566-.537a7.84,7.84,0,0,0-1.536-1.063c-2.106-1.1-3.973-2.016-5.653-2.8-.682-.317-1.333-.612-1.958-.887-.484-.212-.95-.415-1.4-.6-.468-.2-.917-.384-1.353-.56h0c-2.67-1.076-4.81-1.783-6.81-2.446-.518-.172-1.025-.341-1.53-.512l-.02-.007-.007,0a57.59,57.59,0,0,1-12.041-5.589l-.471-.28-.058-.036a17.406,17.406,0,0,1-1.694-1.167c-.144-.112-.285-.227-.426-.343C73.164,104.835,71,93.825,70.245,89.216v0h0c-.387.084-.791.169-1.211.249-.175.034-.353.067-.535.1a48.668,48.668,0,0,1-7.86.764,48.647,48.647,0,0,1-7.849-.762l-.011,0-.3-.056h0q-.754-.141-1.44-.292h0v0q-.055.334-.121.714c-.851,4.908-3.105,15.015-9.792,20.7q-.239.2-.484.4a17.256,17.256,0,0,1-1.873,1.3c-1.435.859-2.726,1.586-3.912,2.21-.2.1-.391.206-.583.3a54.676,54.676,0,0,1-8.017,3.354l-.007,0-.019.007c-.505.171-1.013.34-1.53.512-2,.664-4.14,1.37-6.81,2.446h0c-.435.176-.884.363-1.353.56-.451.188-.917.392-1.4.6q-.936.413-1.958.887c-1.68.783-3.547,1.7-5.652,2.8a7.814,7.814,0,0,0-1.536,1.063q-.288.251-.566.537A13.709,13.709,0,0,0,3.6,129.982a20.977,20.977,0,0,0-1.131,2.094c-.123.262-.245.528-.364.8a36.477,36.477,0,0,0-1.438,3.977H120.607A36.124,36.124,0,0,0,119.169,132.878Z" transform="translate(-0.093 -16.127)" fill="none" stroke="#2e2e2e" stroke-miterlimit="10" stroke-width="0.5"/>
            <path id="Path_9608" data-name="Path 9608" d="M41.913,128.182a32.621,32.621,0,0,0,7.994,14.078h-.841a33.472,33.472,0,0,1-7.747-13.938,47.4,47.4,0,0,1-1.581-8.073c-.032-.284-.059-.558-.082-.819a.289.289,0,0,1,.209-.3l.006,0a.3.3,0,0,1,.4.25c.015.184.034.372.055.566a46.823,46.823,0,0,0,1.591,8.238" transform="translate(-5.571 -21.532)" fill="#fff" stroke="#707070" stroke-width="0.5"/>
            <path id="Path_9609" data-name="Path 9609" d="M41.913,128.182a32.621,32.621,0,0,0,7.994,14.078h-.841a33.472,33.472,0,0,1-7.747-13.938,47.4,47.4,0,0,1-1.581-8.073c-.032-.284-.059-.558-.082-.819a.289.289,0,0,1,.209-.3l.006,0a.3.3,0,0,1,.4.25c.015.184.034.372.055.566A46.823,46.823,0,0,0,41.913,128.182Z" transform="translate(-5.571 -21.532)" fill="none" stroke="#2e2e2e" stroke-miterlimit="10" stroke-width="0.5"/>
            <path id="Path_9610" data-name="Path 9610" d="M93.709,117.5l-.072.144c-1.355,2.7-3.044,5.869-4.974,9.106a74.675,74.675,0,0,1-11.3,15.14h-.894c6.856-6.5,12.979-17.293,16.641-24.561l.043-.084a.31.31,0,0,1,.425-.125l.012.007a.282.282,0,0,1,.122.374" transform="translate(-10.743 -21.164)" fill="#fff" stroke="#707070" stroke-width="0.5"/>
            <path id="Path_9611" data-name="Path 9611" d="M93.709,117.5l-.072.144c-1.355,2.7-3.044,5.869-4.974,9.106a74.675,74.675,0,0,1-11.3,15.14h-.894c6.856-6.5,12.979-17.293,16.641-24.561l.043-.084a.31.31,0,0,1,.425-.125l.012.007A.282.282,0,0,1,93.709,117.5Z" transform="translate(-10.743 -21.164)" fill="none" stroke="#2e2e2e" stroke-miterlimit="10" stroke-width="0.5"/>
            <path id="Path_9612" data-name="Path 9612" d="M47.333,115.276a.291.291,0,0,0-.206.343q.979,4.1,2.173,9.064a12.819,12.819,0,0,0,7.759,8.6,13.722,13.722,0,0,0,2.157.668c4.147.927,8.822.019,13.4-2.648a27.884,27.884,0,0,0,7.877-6.911l6.834-8.6c.031-.04.022-.079,0-.134-.1-.239-.327-.339-.49-.134L80,124.046a27.313,27.313,0,0,1-7.7,6.76c-5.215,3.04-10.544,3.728-15,1.94a12.219,12.219,0,0,1-7.4-8.193q-1.19-4.962-2.175-9.064a.308.308,0,0,0-.393-.213" transform="translate(-6.62 -20.835)" fill="#fff" stroke="#707070" stroke-width="0.5"/>
            <path id="Path_9613" data-name="Path 9613" d="M47.333,115.276a.291.291,0,0,0-.206.343q.979,4.1,2.173,9.064a12.819,12.819,0,0,0,7.759,8.6,13.722,13.722,0,0,0,2.157.668c4.147.927,8.822.019,13.4-2.648a27.884,27.884,0,0,0,7.877-6.911l6.834-8.6c.031-.04.022-.079,0-.134-.1-.239-.327-.339-.49-.134L80,124.046a27.313,27.313,0,0,1-7.7,6.76c-5.215,3.04-10.544,3.728-15,1.94a12.219,12.219,0,0,1-7.4-8.193q-1.19-4.962-2.175-9.064A.308.308,0,0,0,47.333,115.276Z" transform="translate(-6.62 -20.835)" fill="none" stroke="#2e2e2e" stroke-miterlimit="10" stroke-width="0.5"/>
            <path id="Path_9614" data-name="Path 9614" d="M46.95,118.156a.855.855,0,0,1,.25-1.221.951.951,0,0,1,1.281.239.854.854,0,0,1-.25,1.221.952.952,0,0,1-1.281-.239" transform="translate(-6.574 -21.111)" fill="#fff" stroke="#707070" stroke-width="0.5"/>
            <path id="Path_9615" data-name="Path 9615" d="M46.95,118.156a.855.855,0,0,1,.25-1.221.951.951,0,0,1,1.281.239.854.854,0,0,1-.25,1.221A.952.952,0,0,1,46.95,118.156Z" transform="translate(-6.574 -21.111)" fill="none" stroke="#2e2e2e" stroke-miterlimit="10" stroke-width="0.5"/>
            <path id="Path_9616" data-name="Path 9616" d="M48.141,122.479a.854.854,0,0,1,.251-1.221.95.95,0,0,1,1.28.239.854.854,0,0,1-.25,1.221.952.952,0,0,1-1.281-.239" transform="translate(-6.741 -21.892)" fill="#fff" stroke="#707070" stroke-width="0.5"/>
            <path id="Path_9617" data-name="Path 9617" d="M48.141,122.479a.854.854,0,0,1,.251-1.221.95.95,0,0,1,1.28.239.854.854,0,0,1-.25,1.221A.952.952,0,0,1,48.141,122.479Z" transform="translate(-6.741 -21.892)" fill="none" stroke="#2e2e2e" stroke-miterlimit="10" stroke-width="0.5"/>
            <path id="Path_9618" data-name="Path 9618" d="M48.984,126.72a.855.855,0,0,1,.25-1.221.951.951,0,0,1,1.281.239.854.854,0,0,1-.25,1.221.952.952,0,0,1-1.281-.239" transform="translate(-6.86 -22.659)" fill="#fff" stroke="#707070" stroke-width="0.5"/>
            <path id="Path_9619" data-name="Path 9619" d="M48.984,126.72a.855.855,0,0,1,.25-1.221.951.951,0,0,1,1.281.239.854.854,0,0,1-.25,1.221A.952.952,0,0,1,48.984,126.72Z" transform="translate(-6.86 -22.659)" fill="none" stroke="#2e2e2e" stroke-miterlimit="10" stroke-width="0.5"/>
            <path id="Path_9620" data-name="Path 9620" d="M50.873,131.206a.854.854,0,0,1,.251-1.221.95.95,0,0,1,1.28.239.854.854,0,0,1-.25,1.221.952.952,0,0,1-1.281-.239" transform="translate(-7.125 -23.47)" fill="#fff" stroke="#707070" stroke-width="0.5"/>
            <path id="Path_9621" data-name="Path 9621" d="M50.873,131.206a.854.854,0,0,1,.251-1.221.95.95,0,0,1,1.28.239.854.854,0,0,1-.25,1.221A.952.952,0,0,1,50.873,131.206Z" transform="translate(-7.125 -23.47)" fill="none" stroke="#2e2e2e" stroke-miterlimit="10" stroke-width="0.5"/>
            <path id="Path_9622" data-name="Path 9622" d="M57.557,137.185a.854.854,0,0,1,.251-1.221.95.95,0,0,1,1.28.239.854.854,0,0,1-.25,1.221.952.952,0,0,1-1.281-.239" transform="translate(-8.064 -24.551)" fill="#fff" stroke="#707070" stroke-width="0.5"/>
            <path id="Path_9623" data-name="Path 9623" d="M57.557,137.185a.854.854,0,0,1,.251-1.221.95.95,0,0,1,1.28.239.854.854,0,0,1-.25,1.221A.952.952,0,0,1,57.557,137.185Z" transform="translate(-8.064 -24.551)" fill="none" stroke="#2e2e2e" stroke-miterlimit="10" stroke-width="0.5"/>
            <path id="Path_9624" data-name="Path 9624" d="M67.29,138a.854.854,0,0,1,.251-1.221.95.95,0,0,1,1.28.239.854.854,0,0,1-.25,1.221A.952.952,0,0,1,67.29,138" transform="translate(-9.432 -24.698)" fill="#fff" stroke="#707070" stroke-width="0.5"/>
            <path id="Path_9625" data-name="Path 9625" d="M67.29,138a.854.854,0,0,1,.251-1.221.95.95,0,0,1,1.28.239.854.854,0,0,1-.25,1.221A.952.952,0,0,1,67.29,138Z" transform="translate(-9.432 -24.698)" fill="none" stroke="#2e2e2e" stroke-miterlimit="10" stroke-width="0.5"/>
            <path id="Path_9626" data-name="Path 9626" d="M75.751,134.836a.855.855,0,0,1,.25-1.221.951.951,0,0,1,1.281.239.853.853,0,0,1-.25,1.22.951.951,0,0,1-1.281-.238" transform="translate(-10.62 -24.126)" fill="#fff" stroke="#707070" stroke-width="0.5"/>
            <path id="Path_9627" data-name="Path 9627" d="M75.751,134.836a.855.855,0,0,1,.25-1.221.951.951,0,0,1,1.281.239.853.853,0,0,1-.25,1.22A.951.951,0,0,1,75.751,134.836Z" transform="translate(-10.62 -24.126)" fill="none" stroke="#2e2e2e" stroke-miterlimit="10" stroke-width="0.5"/>
            <path id="Path_9628" data-name="Path 9628" d="M53.436,134.38a.854.854,0,0,1,.251-1.221.95.95,0,0,1,1.28.239.854.854,0,0,1-.25,1.221.952.952,0,0,1-1.281-.239" transform="translate(-7.485 -24.044)" fill="#fff" stroke="#707070" stroke-width="0.5"/>
            <path id="Path_9629" data-name="Path 9629" d="M53.436,134.38a.854.854,0,0,1,.251-1.221.95.95,0,0,1,1.28.239.854.854,0,0,1-.25,1.221A.952.952,0,0,1,53.436,134.38Z" transform="translate(-7.485 -24.044)" fill="none" stroke="#2e2e2e" stroke-miterlimit="10" stroke-width="0.5"/>
            <path id="Path_9630" data-name="Path 9630" d="M61.737,138.165a.854.854,0,0,1,.251-1.221.95.95,0,0,1,1.28.239.854.854,0,0,1-.25,1.221.952.952,0,0,1-1.281-.239" transform="translate(-8.652 -24.728)" fill="#fff" stroke="#707070" stroke-width="0.5"/>
            <path id="Path_9631" data-name="Path 9631" d="M61.737,138.165a.854.854,0,0,1,.251-1.221.95.95,0,0,1,1.28.239.854.854,0,0,1-.25,1.221A.952.952,0,0,1,61.737,138.165Z" transform="translate(-8.652 -24.728)" fill="none" stroke="#2e2e2e" stroke-miterlimit="10" stroke-width="0.5"/>
            <path id="Path_9632" data-name="Path 9632" d="M71.961,136.888a.855.855,0,0,1,.25-1.221.951.951,0,0,1,1.281.239.854.854,0,0,1-.25,1.221.952.952,0,0,1-1.281-.239" transform="translate(-10.088 -24.497)" fill="#fff" stroke="#707070" stroke-width="0.5"/>
            <path id="Path_9633" data-name="Path 9633" d="M71.961,136.888a.855.855,0,0,1,.25-1.221.951.951,0,0,1,1.281.239.854.854,0,0,1-.25,1.221A.952.952,0,0,1,71.961,136.888Z" transform="translate(-10.088 -24.497)" fill="none" stroke="#2e2e2e" stroke-miterlimit="10" stroke-width="0.5"/>
            <path id="Path_9634" data-name="Path 9634" d="M82.181,129.361a.854.854,0,0,1,.251-1.221.95.95,0,0,1,1.28.239.854.854,0,0,1-.25,1.221.952.952,0,0,1-1.281-.239" transform="translate(-11.524 -23.136)" fill="#fff" stroke="#707070" stroke-width="0.5"/>
            <path id="Path_9635" data-name="Path 9635" d="M82.181,129.361a.854.854,0,0,1,.251-1.221.95.95,0,0,1,1.28.239.854.854,0,0,1-.25,1.221A.952.952,0,0,1,82.181,129.361Z" transform="translate(-11.524 -23.136)" fill="none" stroke="#2e2e2e" stroke-miterlimit="10" stroke-width="0.5"/>
            <path id="Path_9636" data-name="Path 9636" d="M79.273,132.355a.854.854,0,0,1,.251-1.221.95.95,0,0,1,1.28.239.854.854,0,0,1-.25,1.221.952.952,0,0,1-1.281-.239" transform="translate(-11.115 -23.677)" fill="#fff" stroke="#707070" stroke-width="0.5"/>
            <path id="Path_9637" data-name="Path 9637" d="M79.273,132.355a.854.854,0,0,1,.251-1.221.95.95,0,0,1,1.28.239.854.854,0,0,1-.25,1.221A.952.952,0,0,1,79.273,132.355Z" transform="translate(-11.115 -23.677)" fill="none" stroke="#2e2e2e" stroke-miterlimit="10" stroke-width="0.5"/>
            <path id="Path_9638" data-name="Path 9638" d="M85.17,126.019a.855.855,0,0,1,.25-1.221.951.951,0,0,1,1.281.239.854.854,0,0,1-.25,1.221.952.952,0,0,1-1.281-.239" transform="translate(-11.944 -22.532)" fill="#fff" stroke="#707070" stroke-width="0.5"/>
            <path id="Path_9639" data-name="Path 9639" d="M85.17,126.019a.855.855,0,0,1,.25-1.221.951.951,0,0,1,1.281.239.854.854,0,0,1-.25,1.221A.952.952,0,0,1,85.17,126.019Z" transform="translate(-11.944 -22.532)" fill="none" stroke="#2e2e2e" stroke-miterlimit="10" stroke-width="0.5"/>
            <path id="Path_9640" data-name="Path 9640" d="M90.7,118.126a.855.855,0,0,1,.25-1.221.951.951,0,0,1,1.281.239.854.854,0,0,1-.25,1.221.952.952,0,0,1-1.281-.239" transform="translate(-12.72 -21.105)" fill="#fff" stroke="#707070" stroke-width="0.5"/>
            <path id="Path_9641" data-name="Path 9641" d="M90.7,118.126a.855.855,0,0,1,.25-1.221.951.951,0,0,1,1.281.239.854.854,0,0,1-.25,1.221A.952.952,0,0,1,90.7,118.126Z" transform="translate(-12.72 -21.105)" fill="none" stroke="#2e2e2e" stroke-miterlimit="10" stroke-width="0.5"/>
            <path id="Path_9642" data-name="Path 9642" d="M87.975,121.9a.854.854,0,0,1,.251-1.221.95.95,0,0,1,1.28.239.854.854,0,0,1-.25,1.22.951.951,0,0,1-1.281-.238" transform="translate(-12.338 -21.787)" fill="#fff" stroke="#707070" stroke-width="0.5"/>
            <path id="Path_9643" data-name="Path 9643" d="M87.975,121.9a.854.854,0,0,1,.251-1.221.95.95,0,0,1,1.28.239.854.854,0,0,1-.25,1.22A.951.951,0,0,1,87.975,121.9Z" transform="translate(-12.338 -21.787)" fill="none" stroke="#2e2e2e" stroke-miterlimit="10" stroke-width="0.5"/>
          </g>
        </g>
        </g>
      </g>
      <g data-ag="art5-level0-icon">
      <g id="Group_754" data-name="Group 754" transform="matrix(0.988, -0.156, 0.156, 0.988, -1351.209, -11329.746)">
        <g id="Group_171" data-name="Group 171" transform="translate(0 0)">
          <path id="Path_6361" data-name="Path 6361" d="M25.7,0c-5.229,5.229-6.188,14.074-2.631,24.271C26.71,34.71,25.9,44.177,20.842,50.244c-3.674,4.405-9.2,6.718-15.874,6.718A32.343,32.343,0,0,1,0,56.563" transform="translate(29.616)" fill="none" stroke="#000" stroke-linecap="round" stroke-miterlimit="10" stroke-width="1"/>
          <path id="Path_6362" data-name="Path 6362" d="M20.072,0c-3.656,3.843-8.885,5.853-15.1,5.853A32.343,32.343,0,0,1,0,5.454" transform="translate(56.718 17.915)" fill="none" stroke="#000" stroke-linecap="round" stroke-miterlimit="10" stroke-width="1"/>
          <path id="Path_6363" data-name="Path 6363" d="M0,56.962c5.229-5.229,6.188-14.074,2.631-24.271C-1.011,22.252-.2,12.785,4.857,6.718,8.531,2.312,14.062,0,20.731,0A32.342,32.342,0,0,1,25.7.4" transform="translate(20.771 22.884)" fill="none" stroke="#000" stroke-linecap="round" stroke-miterlimit="10" stroke-width="1"/>
          <path id="Path_6364" data-name="Path 6364" d="M0,5.853C3.656,2.01,8.885,0,15.1,0a32.381,32.381,0,0,1,4.968.4" transform="translate(0 54.035)" fill="none" stroke="#000" stroke-linecap="round" stroke-miterlimit="10" stroke-width="1"/>
          <line id="Line_115" data-name="Line 115" x2="11.439" y2="11.296" transform="translate(55.315 8.471)" fill="none" stroke="#000" stroke-linecap="round" stroke-miterlimit="10" stroke-width="1"/>
          <line id="Line_116" data-name="Line 116" x2="11.439" y2="11.296" transform="translate(8.633 61.102)" fill="none" stroke="#000" stroke-linecap="round" stroke-miterlimit="10" stroke-width="1"/>
          <line id="Line_117" data-name="Line 117" x2="11.439" y2="11.296" transform="translate(38.173 28.481)" fill="none" stroke="#000" stroke-linecap="round" stroke-miterlimit="10" stroke-width="1"/>
          <line id="Line_118" data-name="Line 118" x2="11.439" y2="11.296" transform="translate(25.405 41.248)" fill="none" stroke="#000" stroke-linecap="round" stroke-miterlimit="10" stroke-width="1"/>
          <line id="Line_119" data-name="Line 119" x2="16.854" y2="16.117" transform="translate(29.616 32.219)" fill="none" stroke="#000" stroke-linecap="round" stroke-miterlimit="10" stroke-width="1"/>
        </g>
      </g>
      </g>


      <g data-ag="art5-level2">
        <g id="Person_2" data-name="Person 2" transform="translate(-1436.211 -11061.969)">
          <g id="Group_758" data-name="Group 758" >
            <path id="Path_10091" data-name="Path 10091" d="M74,60.972s7.031,6.392,7.351,13.1,3.515,6.712,6.392,10.866S91.9,97.407,93.5,98.686,82.312,99.325,74,94.85s-7.036-11.874-6.235-22.877,6.235-11,6.235-11" transform="translate(-21.428 -19.447)" fill="#e7dde5" stroke="#707070" stroke-width="0.5"/>
            <path id="Path_10092" data-name="Path 10092" d="M74,60.972s7.031,6.392,7.351,13.1,3.515,6.712,6.392,10.866S91.9,97.407,93.5,98.686,82.312,99.325,74,94.85s-7.036-11.874-6.235-22.877S74,60.972,74,60.972Z" transform="translate(-21.428 -19.447)" fill="none" stroke="#2e2e2e" stroke-miterlimit="10" stroke-width="0.5"/>
            <path id="Path_10093" data-name="Path 10093" d="M68.3,84.214a10.756,10.756,0,0,1-16.739,0L53.9,69l.069-.452.894-5.822,11.062-1.215q.368,3.516.735,7.031c.007.061.013.124.02.185q.811,7.743,1.62,15.486" transform="translate(-16.446 -19.619)" fill="#fff" stroke="#707070" stroke-width="0.5"/>
            <path id="Path_10094" data-name="Path 10094" d="M68.3,84.214a10.756,10.756,0,0,1-16.739,0L53.9,69l.069-.452.894-5.822,11.062-1.215q.368,3.516.735,7.031c.007.061.013.124.02.185Q67.494,76.47,68.3,84.214Z" transform="translate(-16.446 -19.619)" fill="none" stroke="#2e2e2e" stroke-miterlimit="10" stroke-width="0.5"/>
            <path id="Path_10095" data-name="Path 10095" d="M87.683,122.454H.661c.017-.06,1.187-7.8,1.2-7.861a28.117,28.117,0,0,1,2.69-6.35C8.8,100.978,16.7,95.952,30.416,95.048c.213-.014.426-.038.641-.055l.018-.422.268-4.247a13.526,13.526,0,0,1,1.008-4.368c1.632-3.894,3.93-4.265,4.353-4.3.006,0,.542,0,1.408,0,3.02,0,10.048,0,12.588,0,.586,0,.933,0,.938,0,.424.035,2.722.407,4.353,4.3A13.526,13.526,0,0,1,57,90.325l.268,4.247.02.422c.214.017.427.041.64.055,13.719.9,21.613,5.929,25.861,13.194a28.115,28.115,0,0,1,2.689,6.35c.018.061,1.188,7.8,1.2,7.861" transform="translate(-0.211 -26.044)" fill="#c7d0dc" stroke="#707070" stroke-width="0.5"/>
            <path id="Path_10096" data-name="Path 10096" d="M87.683,122.454H.661c.017-.06,1.187-7.8,1.2-7.861a28.117,28.117,0,0,1,2.69-6.35C8.8,100.978,16.7,95.952,30.416,95.048c.213-.014.426-.038.641-.055l.018-.422.268-4.247a13.526,13.526,0,0,1,1.008-4.368c1.632-3.894,3.93-4.265,4.353-4.3.006,0,.542,0,1.408,0,3.02,0,10.048,0,12.588,0,.586,0,.933,0,.938,0,.424.035,2.722.407,4.353,4.3A13.526,13.526,0,0,1,57,90.325l.268,4.247.02.422c.214.017.427.041.64.055,13.719.9,21.613,5.929,25.861,13.194a28.115,28.115,0,0,1,2.689,6.35C86.5,114.653,87.666,122.394,87.683,122.454Z" transform="translate(-0.211 -26.044)" fill="none" stroke="#2e2e2e" stroke-width="0.5"/>
            <path id="Path_10097" data-name="Path 10097" d="M85.669,58.916a6.206,6.206,0,1,1,0-12.411.23.23,0,1,1,0,.46,5.746,5.746,0,1,0,0,11.492.23.23,0,1,1,0,.46" transform="translate(-25.344 -14.833)" fill="#fff" stroke="#707070" stroke-width="0.5"/>
            <path id="Path_10098" data-name="Path 10098" d="M85.669,58.916a6.206,6.206,0,1,1,0-12.411.23.23,0,1,1,0,.46,5.746,5.746,0,1,0,0,11.492.23.23,0,1,1,0,.46Z" transform="translate(-25.344 -14.833)" fill="none" stroke="#2e2e2e" stroke-miterlimit="10" stroke-width="0.5"/>
            <path id="Path_10099" data-name="Path 10099" d="M38.231,58.916a.23.23,0,0,1,0-.46,5.746,5.746,0,1,0,0-11.492.23.23,0,0,1,0-.46,6.206,6.206,0,1,1,0,12.411" transform="translate(-12.12 -14.833)" fill="#fff" stroke="#707070" stroke-width="0.5"/>
            <path id="Path_10100" data-name="Path 10100" d="M38.231,58.916a.23.23,0,0,1,0-.46,5.746,5.746,0,1,0,0-11.492.23.23,0,0,1,0-.46,6.206,6.206,0,1,1,0,12.411Z" transform="translate(-12.12 -14.833)" fill="none" stroke="#2e2e2e" stroke-miterlimit="10" stroke-width="0.5"/>
            <path id="Path_10101" data-name="Path 10101" d="M88.779,39.481a11.873,11.873,0,0,1-.257,2.5,7.449,7.449,0,0,1-.836,2.241,4.139,4.139,0,0,1-.263.388,1.962,1.962,0,0,1-1.509.9c-1.581,0-2.865-2.7-2.865-6.03s1.283-6.031,2.865-6.031c.724,0,1.386.566,1.891,1.5a9.841,9.841,0,0,1,.975,4.531" transform="translate(-26.488 -10.669)" fill="#fff" stroke="#707070" stroke-width="0.5"/>
            <path id="Path_10102" data-name="Path 10102" d="M88.779,39.481a11.873,11.873,0,0,1-.257,2.5,7.449,7.449,0,0,1-.836,2.241,4.139,4.139,0,0,1-.263.388,1.962,1.962,0,0,1-1.509.9c-1.581,0-2.865-2.7-2.865-6.03s1.283-6.031,2.865-6.031c.724,0,1.386.566,1.891,1.5A9.841,9.841,0,0,1,88.779,39.481Z" transform="translate(-26.488 -10.669)" fill="none" stroke="#2e2e2e" stroke-miterlimit="10" stroke-width="0.5"/>
            <path id="Path_10103" data-name="Path 10103" d="M41.1,39.481a11.873,11.873,0,0,1-.257,2.5,7.449,7.449,0,0,1-.836,2.241,4.139,4.139,0,0,1-.263.388,1.962,1.962,0,0,1-1.509.9c-1.581,0-2.865-2.7-2.865-6.03s1.283-6.031,2.865-6.031c.724,0,1.386.566,1.891,1.5a9.841,9.841,0,0,1,.975,4.531" transform="translate(-11.282 -10.669)" fill="#fff" stroke="#707070" stroke-width="0.5"/>
            <path id="Path_10104" data-name="Path 10104" d="M41.1,39.481a11.873,11.873,0,0,1-.257,2.5,7.449,7.449,0,0,1-.836,2.241,4.139,4.139,0,0,1-.263.388,1.962,1.962,0,0,1-1.509.9c-1.581,0-2.865-2.7-2.865-6.03s1.283-6.031,2.865-6.031c.724,0,1.386.566,1.891,1.5A9.841,9.841,0,0,1,41.1,39.481Z" transform="translate(-11.282 -10.669)" fill="none" stroke="#2e2e2e" stroke-miterlimit="10" stroke-width="0.5"/>
            <path id="Path_10105" data-name="Path 10105" d="M71.611,30.18a29.724,29.724,0,0,1-.2,3.489,26.488,26.488,0,0,1-2.355,8.318q-.386.805-.822,1.558a17.67,17.67,0,0,1-4.838,5.514,13.407,13.407,0,0,1-1.538.964,11.23,11.23,0,0,1-10.912-.044c-4.967-2.7-8.666-8.959-9.5-16.539q-.115-1.042-.156-2.117c-.014-.378-.022-.76-.022-1.143a29.63,29.63,0,0,1,.281-4.09q.041-.294.088-.586a27.412,27.412,0,0,1,.714-3.219q.131-.46.277-.909Q42.8,20.831,43,20.3c.059-.157.119-.313.18-.467a21.282,21.282,0,0,1,3.588-6.026,15.583,15.583,0,0,1,3.3-2.912q.4-.259.815-.488a11.219,11.219,0,0,1,10.679-.228A14.408,14.408,0,0,1,65.358,13a18.075,18.075,0,0,1,1.567,1.834A23.12,23.12,0,0,1,70.561,22.4a27.679,27.679,0,0,1,.733,3.445,29.52,29.52,0,0,1,.317,4.333" transform="translate(-13.161 -2.852)" fill="#fff" stroke="#707070" stroke-width="0.5"/>
            <path id="Path_10106" data-name="Path 10106" d="M71.611,30.18a29.724,29.724,0,0,1-.2,3.489,26.488,26.488,0,0,1-2.355,8.318q-.386.805-.822,1.558a17.67,17.67,0,0,1-4.838,5.514,13.407,13.407,0,0,1-1.538.964,11.23,11.23,0,0,1-10.912-.044c-4.967-2.7-8.666-8.959-9.5-16.539q-.115-1.042-.156-2.117c-.014-.378-.022-.76-.022-1.143a29.63,29.63,0,0,1,.281-4.09q.041-.294.088-.586a27.412,27.412,0,0,1,.714-3.219q.131-.46.277-.909Q42.8,20.831,43,20.3c.059-.157.119-.313.18-.467a21.282,21.282,0,0,1,3.588-6.026,15.583,15.583,0,0,1,3.3-2.912q.4-.259.815-.488a11.219,11.219,0,0,1,10.679-.228A14.408,14.408,0,0,1,65.358,13a18.075,18.075,0,0,1,1.567,1.834A23.12,23.12,0,0,1,70.561,22.4a27.679,27.679,0,0,1,.733,3.445A29.52,29.52,0,0,1,71.611,30.18Z" transform="translate(-13.161 -2.852)" fill="none" stroke="#2e2e2e" stroke-miterlimit="10" stroke-width="0.5"/>
            <path id="Path_10107" data-name="Path 10107" d="M61.283,1.525a18.925,18.925,0,0,0-7.23-.958,18.928,18.928,0,0,0-7.231.958c-8.154,2.307-11.446,10.3-11.587,15.719C35.047,24.426,40.8,28.9,40.8,28.9s1.282-15.433,8.31-17.579l.011,0c.479.526,4.662,5,5.423,5.756C60.935,23.467,70.35,29.153,70.35,29.153a48.485,48.485,0,0,0,2.521-11.91c.215-5.418-3.434-13.412-11.588-15.719" transform="translate(-11.237 -0.159)" fill="#e7dde5" stroke="#707070" stroke-width="0.5"/>
            <path id="Path_10108" data-name="Path 10108" d="M61.283,1.525a18.925,18.925,0,0,0-7.23-.958,18.928,18.928,0,0,0-7.231.958c-8.154,2.307-11.446,10.3-11.587,15.719C35.047,24.426,40.8,28.9,40.8,28.9s1.282-15.433,8.31-17.579l.011,0c.479.526,4.662,5,5.423,5.756C60.935,23.467,70.35,29.153,70.35,29.153a48.485,48.485,0,0,0,2.521-11.91C73.086,11.825,69.437,3.832,61.283,1.525Z" transform="translate(-11.237 -0.159)" fill="none" stroke="#2e2e2e" stroke-miterlimit="10" stroke-width="0.5"/>
            <path id="Path_10109" data-name="Path 10109" d="M35.625,58.916a6.206,6.206,0,1,1,0-12.411.23.23,0,0,1,0,.46,5.746,5.746,0,1,0,0,11.492.23.23,0,0,1,0,.46" transform="translate(-9.383 -14.833)" fill="#fff" stroke="#707070" stroke-width="0.5"/>
            <path id="Path_10110" data-name="Path 10110" d="M35.625,58.916a6.206,6.206,0,1,1,0-12.411.23.23,0,0,1,0,.46,5.746,5.746,0,1,0,0,11.492.23.23,0,0,1,0,.46Z" transform="translate(-9.383 -14.833)" fill="none" stroke="#2e2e2e" stroke-miterlimit="10" stroke-width="0.5"/>
            <path id="Path_10111" data-name="Path 10111" d="M88.276,58.916a.23.23,0,0,1,0-.46,5.746,5.746,0,1,0,0-11.492.23.23,0,0,1,0-.46,6.206,6.206,0,1,1,0,12.411" transform="translate(-28.082 -14.833)" fill="#fff" stroke="#707070" stroke-width="0.5"/>
            <path id="Path_10112" data-name="Path 10112" d="M88.276,58.916a.23.23,0,0,1,0-.46,5.746,5.746,0,1,0,0-11.492.23.23,0,0,1,0-.46,6.206,6.206,0,1,1,0,12.411Z" transform="translate(-28.082 -14.833)" fill="none" stroke="#2e2e2e" stroke-miterlimit="10" stroke-width="0.5"/>
          </g>
        </g>
        </g>



      <g data-ag="art5-level2">
      <g id="Person_1" data-name="Person 1" transform="translate(-1584 -11063.969)">
        <g id="Group_756" data-name="Group 756" >
          <path id="Path_10077" data-name="Path 10077" d="M77.1,85.974a24.864,24.864,0,0,0-17.391,0l7.895,8.01Z" transform="translate(-19.044 -26.92)" fill="#fff" stroke="#707070" stroke-width="0.5"/>
          <path id="Path_10078" data-name="Path 10078" d="M77.1,85.974a24.864,24.864,0,0,0-17.391,0l7.895,8.01Z" transform="translate(-19.044 -26.92)" fill="none" stroke="#2e2e2e" stroke-miterlimit="10" stroke-width="0.5"/>
          <path id="Path_10079" data-name="Path 10079" d="M77.255,87.32l-17.836.33L62.03,70.289,64.1,56.519h8.175l2.213,13.7Z" transform="translate(-18.951 -18.027)" fill="#fff" stroke="#707070" stroke-width="0.5"/>
          <path id="Path_10080" data-name="Path 10080" d="M77.255,87.32l-17.836.33L62.03,70.289,64.1,56.519h8.175l2.213,13.7Z" transform="translate(-18.951 -18.027)" fill="none" stroke="#2e2e2e" stroke-miterlimit="10" stroke-width="0.5"/>
          <path id="Path_10081" data-name="Path 10081" d="M47.964,32.375c0,8.233,3.645,15.373,8.978,18.908a13.662,13.662,0,0,0,7.6,2.361c9.153,0,16.574-9.522,16.574-21.269a26.355,26.355,0,0,0-1.487-8.818A19.7,19.7,0,0,0,71.5,13.065a13.533,13.533,0,0,0-6.958-1.959c-7.011,0-13,5.585-15.427,13.479a26.6,26.6,0,0,0-1.147,7.791" transform="translate(-15.298 -3.542)" fill="#fff" stroke="#707070" stroke-width="0.5"/>
          <path id="Path_10082" data-name="Path 10082" d="M47.964,32.375c0,8.233,3.645,15.373,8.978,18.908a13.662,13.662,0,0,0,7.6,2.361c9.153,0,16.574-9.522,16.574-21.269a26.355,26.355,0,0,0-1.487-8.818A19.7,19.7,0,0,0,71.5,13.065a13.533,13.533,0,0,0-6.958-1.959c-7.011,0-13,5.585-15.427,13.479A26.6,26.6,0,0,0,47.964,32.375Z" transform="translate(-15.298 -3.542)" fill="none" stroke="#2e2e2e" stroke-miterlimit="10" stroke-width="0.5"/>
          <path id="Path_10083" data-name="Path 10083" d="M42.079,39.361c0,2.645,1.22,4.789,2.725,4.789s2.726-2.144,2.726-4.789-1.22-4.79-2.726-4.79-2.725,2.145-2.725,4.79" transform="translate(-13.421 -11.026)" fill="#fff" stroke="#707070" stroke-width="0.5"/>
          <path id="Path_10084" data-name="Path 10084" d="M42.079,39.361c0,2.645,1.22,4.789,2.725,4.789s2.726-2.144,2.726-4.789-1.22-4.79-2.726-4.79S42.079,36.716,42.079,39.361Z" transform="translate(-13.421 -11.026)" fill="none" stroke="#2e2e2e" stroke-miterlimit="10" stroke-width="0.5"/>
          <path id="Path_10085" data-name="Path 10085" d="M100.1,126.53H26.835c.15-8.9.588-16.765,1.657-17.144,1.23-.434,2.358-.813,3.519-1.252h0c.791-.3,1.6-.628,2.462-1.022.785-.356,1.619-.766,2.536-1.261,1.047-.564,2.2-1.237,3.51-2.057q.387-.245.753-.486.786-.515,1.474-1.014a23.457,23.457,0,0,0,5.107-4.811v0c.074-.1.147-.2.216-.3.05-.072.1-.14.144-.211a11.711,11.711,0,0,0,.718-1.211c.142-.28.266-.559.377-.839v0c.041-.1.078-.2.114-.306v0a10.074,10.074,0,0,0,.5-2.308,10.567,10.567,0,0,0,.05-1.368v0c0-.344-.026-.678-.059-1v0a15.7,15.7,0,0,0-.687-3.216v0a.017.017,0,0,1,0-.01l-.007-.016a.068.068,0,0,1,.017.012l.156.111c.2.145.474.323.8.522.012.007.024.014.038.021.082.05.17.1.263.155a14.713,14.713,0,0,0,14.846.018c.085-.047.165-.095.244-.142.424-.254.766-.486,1.015-.666a.114.114,0,0,0,.016-.012s0,.738.026,1.8c.057,2.289.221,6.1.714,7.42a9.222,9.222,0,0,0,.955,1.844,18.32,18.32,0,0,0,4.413,4.432c.22.165.447.332.684.5l.093.064c.481.342,1,.683,1.552,1.034l.443.274a43.468,43.468,0,0,0,8.961,4.394c1.064.384,2.131.742,3.307,1.164a73.757,73.757,0,0,1,10.319,4.652c.4.21.806.431,1.228.661a6.753,6.753,0,0,1,1.045.719c1.827,1.5,1.306,5.761-.258,10.871" transform="translate(-8.559 -27.647)" fill="#fff" stroke="#707070" stroke-width="0.5"/>
          <path id="Path_10086" data-name="Path 10086" d="M100.1,126.53H26.835c.15-8.9.588-16.765,1.657-17.144,1.23-.434,2.358-.813,3.519-1.252h0c.791-.3,1.6-.628,2.462-1.022.785-.356,1.619-.766,2.536-1.261,1.047-.564,2.2-1.237,3.51-2.057q.387-.245.753-.486.786-.515,1.474-1.014a23.457,23.457,0,0,0,5.107-4.811v0c.074-.1.147-.2.216-.3.05-.072.1-.14.144-.211a11.711,11.711,0,0,0,.718-1.211c.142-.28.266-.559.377-.839v0c.041-.1.078-.2.114-.306v0a10.074,10.074,0,0,0,.5-2.308,10.567,10.567,0,0,0,.05-1.368v0c0-.344-.026-.678-.059-1v0a15.7,15.7,0,0,0-.687-3.216v0a.017.017,0,0,1,0-.01l-.007-.016a.068.068,0,0,1,.017.012l.156.111c.2.145.474.323.8.522.012.007.024.014.038.021.082.05.17.1.263.155a14.713,14.713,0,0,0,14.846.018c.085-.047.165-.095.244-.142.424-.254.766-.486,1.015-.666a.114.114,0,0,0,.016-.012s0,.738.026,1.8c.057,2.289.221,6.1.714,7.42a9.222,9.222,0,0,0,.955,1.844,18.32,18.32,0,0,0,4.413,4.432c.22.165.447.332.684.5l.093.064c.481.342,1,.683,1.552,1.034l.443.274a43.468,43.468,0,0,0,8.961,4.394c1.064.384,2.131.742,3.307,1.164a73.757,73.757,0,0,1,10.319,4.652c.4.21.806.431,1.228.661a6.753,6.753,0,0,1,1.045.719C102.181,117.162,101.66,121.42,100.1,126.53Z" transform="translate(-8.559 -27.647)" fill="none" stroke="#2e2e2e" stroke-miterlimit="10" stroke-width="0.5"/>
          <path id="Path_10087" data-name="Path 10087" d="M98.855,126.5H.5v-.4a13.907,13.907,0,0,1,1.351-6.009c3.747-7.824,10.592-13.787,22.238-16.42a60.5,60.5,0,0,1,9.364-1.308c.251-.017.5-.046.753-.064l.022-.5.317-5a15.861,15.861,0,0,1,1.187-5.141c1.662-3.972,3.917-4.83,4.811-5.015a2.587,2.587,0,0,1,.311-.048.1.1,0,0,1,.078.031h0a.1.1,0,0,1,.029.04c0,.012.017.048.033.1.01.029.019.062.031.1v0c.119.386.384,1.28.77,2.583v0c.541,1.839,1.318,4.5,2.242,7.712,1.564,5.441,3.553,12.463,5.544,19.777,2.014-7.4,4.028-14.511,5.6-19.981.86-2.984,1.588-5.479,2.114-7.266s.846-2.86.9-3.022v0l0-.014v0a.112.112,0,0,1,.107-.069c.5.043,3.2.482,5.124,5.062A15.932,15.932,0,0,1,64.623,96.8l.315,5,.021.5c.253.019.5.048.754.064,17.981,1.185,27.459,8.386,31.976,18.542a13.766,13.766,0,0,1,1.165,5.6" transform="translate(-0.16 -27.621)" fill="#f7f7f7" stroke="#707070" stroke-width="0.5"/>
          <path id="Path_10088" data-name="Path 10088" d="M98.855,126.5H.5v-.4a13.907,13.907,0,0,1,1.351-6.009c3.747-7.824,10.592-13.787,22.238-16.42a60.5,60.5,0,0,1,9.364-1.308c.251-.017.5-.046.753-.064l.022-.5.317-5a15.861,15.861,0,0,1,1.187-5.141c1.662-3.972,3.917-4.83,4.811-5.015a2.587,2.587,0,0,1,.311-.048.1.1,0,0,1,.078.031h0a.1.1,0,0,1,.029.04c0,.012.017.048.033.1.01.029.019.062.031.1v0c.119.386.384,1.28.77,2.583v0c.541,1.839,1.318,4.5,2.242,7.712,1.564,5.441,3.553,12.463,5.544,19.777,2.014-7.4,4.028-14.511,5.6-19.981.86-2.984,1.588-5.479,2.114-7.266s.846-2.86.9-3.022v0l0-.014v0a.112.112,0,0,1,.107-.069c.5.043,3.2.482,5.124,5.062A15.932,15.932,0,0,1,64.623,96.8l.315,5,.021.5c.253.019.5.048.754.064,17.981,1.185,27.459,8.386,31.976,18.542A13.766,13.766,0,0,1,98.855,126.5Z" transform="translate(-0.16 -27.621)" fill="none" stroke="#2e2e2e" stroke-miterlimit="10" stroke-width="0.5"/>
          <path id="Path_10089" data-name="Path 10089" d="M58.244,12.474s-3.716,4.376-7.019,7.432-6.166,5.983-7.088,11.621S50.878,45.1,50.143,50.713s.063,16.675-3.24,25.428-4.858,14.7-5.278,19.78c0,0-3.228-12.587-7.191-17.3s-.55-19.741-3.936-24.035-.33-32.783,4.707-40.3S51.72-2.307,59.235,1.326s12.552,3.915,14.7,8.522S75.09,28.99,75.09,28.99s.663-16.309-16.846-16.516" transform="translate(-9.271 -0.159)" fill="#e4c0aa" stroke="#707070" stroke-width="0.5"/>
          <path id="Path_10090" data-name="Path 10090" d="M58.244,12.474s-3.716,4.376-7.019,7.432-6.166,5.983-7.088,11.621S50.878,45.1,50.143,50.713s.063,16.675-3.24,25.428-4.858,14.7-5.278,19.78c0,0-3.228-12.587-7.191-17.3s-.55-19.741-3.936-24.035-.33-32.783,4.707-40.3S51.72-2.307,59.235,1.326s12.552,3.915,14.7,8.522S75.09,28.99,75.09,28.99,75.753,12.681,58.244,12.474Z" transform="translate(-9.271 -0.159)" fill="none" stroke="#2e2e2e" stroke-width="0.5"/>
        </g>
      </g>
      </g>

      <g data-ag="art5-level2">
      <g id="Person_3" data-name="Person 3" transform="translate(-1299.534 -11061.969)">
        <g id="Group_765" data-name="Group 765" >
          <g id="Group_764" data-name="Group 764">
            <g id="Group_763" data-name="Group 763" >
              <path id="Path_10113" data-name="Path 10113" d="M94.9,118c-.11-.25-.223-.5-.337-.743-.252-.545-.505-1.077-.765-1.6,0-.007-.007-.012-.009-.019a.3.3,0,0,0-.017-.033q-.241-.49-.491-.962c-.3-.571-.6-1.125-.9-1.667-.01-.016-.019-.033-.029-.049-.154-.272-.308-.539-.465-.8,0-.007-.007-.012-.009-.019h0c-.264-.449-.531-.886-.8-1.316q-.611-.978-1.23-1.88c-.114-.168-.229-.332-.343-.494-.213-.3-.426-.6-.64-.891-.421-.578-.845-1.129-1.265-1.654-.473-.594-.945-1.155-1.41-1.684-.325-.373-.646-.727-.964-1.066a32.176,32.176,0,0,0-5.191-4.567c-.151-.1-.294-.2-.439-.295l0,0-.007-.005,0,0a.9.9,0,0,1-.324-.909v-.012c.007-.028.014-.054.022-.08.007-.044.016-.08.021-.124.005-.021.007-.04.012-.061s.007-.059.01-.087a.466.466,0,0,0,.007-.084.239.239,0,0,0,0-.049.325.325,0,0,0,.005-.063c0-.025,0-.051,0-.077a3.075,3.075,0,0,0-.129-.968c-.582-1.985-3-3.826-5.478-5.235-.6-.345-1.21-.659-1.8-.945-.3-.151-.6-.29-.891-.423a65.892,65.892,0,0,0-9.4-2.811c-1.612-.4-3.215-.768-4.649-1.092l-.926-.21c-1.24-.276-2.311-.508-3.085-.674h0c-.341-.074-.625-.134-.84-.182H45.63l-.868.187h0c-.755.162-1.784.386-2.976.652-.033.007-.066.014-.1.022-1.272.283-2.724.614-4.227.975A75.074,75.074,0,0,0,26.73,89.132c-.321.147-.657.306-1,.473h0c-.339.166-.683.345-1.029.53-2.7,1.445-5.506,3.438-6.138,5.6a3.036,3.036,0,0,0-.129.968c0,.026,0,.052,0,.077s0,.044.005.063,0,.033,0,.049.005.054.007.084.007.056.012.087.007.04.012.061c.005.044.014.08.021.124.007.027.014.052.021.08a.072.072,0,0,1,0,.012.908.908,0,0,1-.325.909l-.005,0a.011.011,0,0,0-.007.005l0,0c-.143.094-.289.193-.439.295a32.165,32.165,0,0,0-5.132,4.506q-.48.511-.972,1.071c-.48.545-.97,1.125-1.461,1.74-.419.526-.844,1.076-1.265,1.654-.215.292-.428.587-.641.891-.107.153-.215.307-.321.464q-.629.917-1.25,1.91c-.267.43-.536.866-.8,1.316h0l-.01.019c-.156.264-.309.531-.465.8a.5.5,0,0,1-.028.049c-.3.542-.606,1.1-.9,1.667-.166.314-.328.635-.489.962a.3.3,0,0,0-.018.033c0,.007-.007.012-.009.019-.262.521-.516,1.054-.765,1.6-.116.245-.225.493-.338.743-.783,1.756-1.516,3.629-2.186,5.624H97.082c-.667-2-1.4-3.868-2.184-5.624M60.413,99.218c-.185.368-.383.746-.593,1.139v0c-.832,1.573-1.831,3.309-2.844,4.951v0q-.351.568-.7,1.118c-1,1.564-1.974,2.978-2.783,3.994a15.1,15.1,0,0,1-3.355,3.131l-1.246.671-1.244-.671a15.105,15.105,0,0,1-3.356-3.131c-.756-.951-1.658-2.25-2.587-3.693-1.059-1.641-2.151-3.47-3.1-5.188v0c-.109-.2-.217-.39-.321-.584-.327-.6-.633-1.188-.911-1.74-1.019-2.025-1.651-3.618-1.494-4.1a.867.867,0,0,1,.042-.123.48.48,0,0,1,.025-.063,1.354,1.354,0,0,1,.054-.125.538.538,0,0,1,.028-.059c.019-.04.038-.084.061-.124.011-.019.021-.04.033-.059a4.165,4.165,0,0,1,.556-.758c.014-.016.03-.035.047-.052l.049-.057c.039-.038.074-.073.112-.113a.721.721,0,0,1,.051-.051A8.521,8.521,0,0,1,38,92.642a.135.135,0,0,1,.028-.019.416.416,0,0,1,.037-.027c.009-.009.02-.016.033-.026s.044-.03.067-.044a.6.6,0,0,1,.066-.046c.292-.2.593-.388.891-.561.078-.046.157-.091.236-.135.037-.018.072-.04.107-.059q.206-.113.405-.215c.044-.025.084-.046.125-.065l.072-.037.113-.057c.06-.028.121-.059.18-.087a.529.529,0,0,1,.059-.029c.176-.085.344-.164.5-.236l.155-.068,0,0c.033-.014.065-.029.094-.04a.044.044,0,0,1,.011,0l.007,0c.014-.005.028-.012.046-.018.063-.031.129-.058.189-.084a.931.931,0,0,0,.087-.037c.157-.066.29-.119.393-.157l.018-.007c.072-.028.126-.047.164-.061a.021.021,0,0,1,.014-.005l.007,0a.451.451,0,0,0,.075-.033l.005,0,.134-.066,1.573-.779,4.225-2.1h.005l.76-.379.761.379h.005l4.225,2.1,1.671.828.037.017,0,0a.445.445,0,0,0,.077.033s0,0,.007,0a.023.023,0,0,1,.014.005c.039.014.093.033.164.061l.159.061c.074.031.157.065.25.1.029.014.057.025.089.037.059.026.124.052.189.084l.052.021s0,0,.008,0,.035.014.052.021.03.012.044.019l.025.011c.147.066.306.14.475.219l.159.076a.594.594,0,0,1,.059.029l.18.087c.037.019.077.04.115.057l.07.037a.237.237,0,0,1,.035.018c.03.014.06.03.089.047.133.068.269.14.405.215.037.019.072.042.107.059q.225.126.452.262c.227.136.454.281.676.433a.776.776,0,0,1,.067.046l.066.044c.012.01.025.017.033.026l.065.046a8.57,8.57,0,0,1,1.073.891.707.707,0,0,1,.05.051c.04.04.076.075.11.113l.05.057c.016.017.033.036.047.052a4.221,4.221,0,0,1,.554.758.428.428,0,0,1,.033.059,1.332,1.332,0,0,1,.063.124c.009.018.019.037.028.059.019.04.038.082.054.125.007.019.018.04.025.063.016.04.03.082.042.123.157.484-.473,2.077-1.492,4.1" transform="translate(-0.222 -26.844)" fill="#c7d0dc" stroke="#707070" stroke-width="0.5"/>
              <path id="Path_10114" data-name="Path 10114" d="M94.9,118c-.11-.25-.223-.5-.337-.743-.252-.545-.505-1.077-.765-1.6,0-.007-.007-.012-.009-.019a.3.3,0,0,0-.017-.033q-.241-.49-.491-.962c-.3-.571-.6-1.125-.9-1.667-.01-.016-.019-.033-.029-.049-.154-.272-.308-.539-.465-.8,0-.007-.007-.012-.009-.019h0c-.264-.449-.531-.886-.8-1.316q-.611-.978-1.23-1.88c-.114-.168-.229-.332-.343-.494-.213-.3-.426-.6-.64-.891-.421-.578-.845-1.129-1.265-1.654-.473-.594-.945-1.155-1.41-1.684-.325-.373-.646-.727-.964-1.066a32.176,32.176,0,0,0-5.191-4.567c-.151-.1-.294-.2-.439-.295l0,0-.007-.005,0,0a.9.9,0,0,1-.324-.909v-.012c.007-.028.014-.054.022-.08.007-.044.016-.08.021-.124.005-.021.007-.04.012-.061s.007-.059.01-.087a.466.466,0,0,0,.007-.084.239.239,0,0,0,0-.049.325.325,0,0,0,.005-.063c0-.025,0-.051,0-.077a3.075,3.075,0,0,0-.129-.968c-.582-1.985-3-3.826-5.478-5.235-.6-.345-1.21-.659-1.8-.945-.3-.151-.6-.29-.891-.423a65.892,65.892,0,0,0-9.4-2.811c-1.612-.4-3.215-.768-4.649-1.092l-.926-.21c-1.24-.276-2.311-.508-3.085-.674h0c-.341-.074-.625-.134-.84-.182H45.63l-.868.187h0c-.755.162-1.784.386-2.976.652-.033.007-.066.014-.1.022-1.272.283-2.724.614-4.227.975A75.074,75.074,0,0,0,26.73,89.132c-.321.147-.657.306-1,.473h0c-.339.166-.683.345-1.029.53-2.7,1.445-5.506,3.438-6.138,5.6a3.036,3.036,0,0,0-.129.968c0,.026,0,.052,0,.077s0,.044.005.063,0,.033,0,.049.005.054.007.084.007.056.012.087.007.04.012.061c.005.044.014.08.021.124.007.027.014.052.021.08a.072.072,0,0,1,0,.012.908.908,0,0,1-.325.909l-.005,0a.011.011,0,0,0-.007.005l0,0c-.143.094-.289.193-.439.295a32.165,32.165,0,0,0-5.132,4.506q-.48.511-.972,1.071c-.48.545-.97,1.125-1.461,1.74-.419.526-.844,1.076-1.265,1.654-.215.292-.428.587-.641.891-.107.153-.215.307-.321.464q-.629.917-1.25,1.91c-.267.43-.536.866-.8,1.316h0l-.01.019c-.156.264-.309.531-.465.8a.5.5,0,0,1-.028.049c-.3.542-.606,1.1-.9,1.667-.166.314-.328.635-.489.962a.3.3,0,0,0-.018.033c0,.007-.007.012-.009.019-.262.521-.516,1.054-.765,1.6-.116.245-.225.493-.338.743-.783,1.756-1.516,3.629-2.186,5.624H97.082C96.414,121.632,95.679,119.76,94.9,118ZM60.413,99.218c-.185.368-.383.746-.593,1.139v0c-.832,1.573-1.831,3.309-2.844,4.951v0q-.351.568-.7,1.118c-1,1.564-1.974,2.978-2.783,3.994a15.1,15.1,0,0,1-3.355,3.131l-1.246.671-1.244-.671a15.105,15.105,0,0,1-3.356-3.131c-.756-.951-1.658-2.25-2.587-3.693-1.059-1.641-2.151-3.47-3.1-5.188v0c-.109-.2-.217-.39-.321-.584-.327-.6-.633-1.188-.911-1.74-1.019-2.025-1.651-3.618-1.494-4.1a.867.867,0,0,1,.042-.123.48.48,0,0,1,.025-.063,1.354,1.354,0,0,1,.054-.125.538.538,0,0,1,.028-.059c.019-.04.038-.084.061-.124.011-.019.021-.04.033-.059a4.165,4.165,0,0,1,.556-.758c.014-.016.03-.035.047-.052l.049-.057c.039-.038.074-.073.112-.113a.721.721,0,0,1,.051-.051A8.521,8.521,0,0,1,38,92.642a.135.135,0,0,1,.028-.019.416.416,0,0,1,.037-.027c.009-.009.02-.016.033-.026s.044-.03.067-.044a.6.6,0,0,1,.066-.046c.292-.2.593-.388.891-.561.078-.046.157-.091.236-.135.037-.018.072-.04.107-.059q.206-.113.405-.215c.044-.025.084-.046.125-.065l.072-.037.113-.057c.06-.028.121-.059.18-.087a.529.529,0,0,1,.059-.029c.176-.085.344-.164.5-.236l.155-.068,0,0c.033-.014.065-.029.094-.04a.044.044,0,0,1,.011,0l.007,0c.014-.005.028-.012.046-.018.063-.031.129-.058.189-.084a.931.931,0,0,0,.087-.037c.157-.066.29-.119.393-.157l.018-.007c.072-.028.126-.047.164-.061a.021.021,0,0,1,.014-.005l.007,0a.451.451,0,0,0,.075-.033l.005,0,.134-.066,1.573-.779,4.225-2.1h.005l.76-.379.761.379h.005l4.225,2.1,1.671.828.037.017,0,0a.445.445,0,0,0,.077.033s0,0,.007,0a.023.023,0,0,1,.014.005c.039.014.093.033.164.061l.159.061c.074.031.157.065.25.1.029.014.057.025.089.037.059.026.124.052.189.084l.052.021s0,0,.008,0,.035.014.052.021.03.012.044.019l.025.011c.147.066.306.14.475.219l.159.076a.594.594,0,0,1,.059.029l.18.087c.037.019.077.04.115.057l.07.037a.237.237,0,0,1,.035.018c.03.014.06.03.089.047.133.068.269.14.405.215.037.019.072.042.107.059q.225.126.452.262c.227.136.454.281.676.433a.776.776,0,0,1,.067.046l.066.044c.012.01.025.017.033.026l.065.046a8.57,8.57,0,0,1,1.073.891.707.707,0,0,1,.05.051c.04.04.076.075.11.113l.05.057c.016.017.033.036.047.052a4.221,4.221,0,0,1,.554.758.428.428,0,0,1,.033.059,1.332,1.332,0,0,1,.063.124c.009.018.019.037.028.059.019.04.038.082.054.125.007.019.018.04.025.063.016.04.03.082.042.123C62.062,95.6,61.431,97.194,60.413,99.218Z" transform="translate(-0.222 -26.844)" fill="none" stroke="#2e2e2e" stroke-width="0.5"/>
              <path id="Path_10115" data-name="Path 10115" d="M62.661.547C66.722.16,66.722,2.288,70.2,3.062s7.736,3.094,8.7,6.576,2.9,3.481,2.9,7.349S83.162,28.2,78.907,31.1s-33.851,3.964-37.136-.822-.578-11.749-.384-13.3,1.354-6.576,3.095-7.736S47,5,49.7,2.675,62.661.547,62.661.547" transform="translate(-12.807 -0.16)" fill="#e7dde5" stroke="#707070" stroke-width="0.5"/>
              <path id="Path_10116" data-name="Path 10116" d="M62.661.547C66.722.16,66.722,2.288,70.2,3.062s7.736,3.094,8.7,6.576,2.9,3.481,2.9,7.349S83.162,28.2,78.907,31.1s-33.851,3.964-37.136-.822-.578-11.749-.384-13.3,1.354-6.576,3.095-7.736S47,5,49.7,2.675,62.661.547,62.661.547Z" transform="translate(-12.807 -0.16)" fill="none" stroke="#2e2e2e" stroke-miterlimit="10" stroke-width="0.5"/>
              <path id="Path_10117" data-name="Path 10117" d="M78.325,110.791l-8.264,6.8-3.727,3.065-3.642-1.726-7.383-3.5,1.468-26.8c.176-.052.358-.106.546-.159a30.351,30.351,0,0,1,17.761.186c.242.081.486.166.729.257q1.257,10.936,2.51,21.871" transform="translate(-17.641 -27.822)" fill="#fff" stroke="#707070" stroke-width="0.5"/>
              <path id="Path_10118" data-name="Path 10118" d="M78.325,110.791l-8.264,6.8-3.727,3.065-3.642-1.726-7.383-3.5,1.468-26.8c.176-.052.358-.106.546-.159a30.351,30.351,0,0,1,17.761.186c.242.081.486.166.729.257Q77.071,99.855,78.325,110.791Z" transform="translate(-17.641 -27.822)" fill="none" stroke="#2e2e2e" stroke-miterlimit="10" stroke-width="0.5"/>
              <path id="Path_10119" data-name="Path 10119" d="M75.867,88.172H59.629l.983-11.733.634-7.576.565-6.743H73.325L74,69.086l.718,7.35Z" transform="translate(-19.019 -19.813)" fill="#fff" stroke="#707070" stroke-width="0.5"/>
              <path id="Path_10120" data-name="Path 10120" d="M75.867,88.172H59.629l.983-11.733.634-7.576.565-6.743H73.325L74,69.086l.718,7.35Z" transform="translate(-19.019 -19.813)" fill="none" stroke="#2e2e2e" stroke-miterlimit="10" stroke-width="0.5"/>
              <path id="Path_10121" data-name="Path 10121" d="M76.828,126.038H56.382l-.257-8.8-.2-6.847h0l-.082-2.809v0l-.026-.847-.067-2.364-.029-1-.042-1.445-.089-3.035v0l-.064-2.17-.051-1.684-.005-.19-.087-3.025-.005-.1c.086.031.168.065.255.1.267.106.556.215.859.323l.192.069h0c.211.074.43.148.657.22.261.084.53.166.812.247v0c.126.035.252.072.381.108.045.01.094.025.141.037a.105.105,0,0,1,.016,0l.392.1.268.067c.356.085.725.168,1.1.242a27.906,27.906,0,0,0,11.515-.126c.355-.078.7-.162,1.022-.248.346-.089.673-.182.985-.276a.2.2,0,0,0,.042-.014h0c.138-.038.272-.08.4-.124l.117-.038c.393-.126.751-.252,1.082-.37q-.184.914-.365,1.831c-.032.161-.065.324-.1.484s-.067.321-.1.484c-.184.921-.367,1.833-.552,2.753v.017q-.43,2.155-.857,4.31l.765,5.8v0l.919,6.973v0Z" transform="translate(-17.661 -29.254)" fill="#fff" stroke="#707070" stroke-width="0.5"/>
              <path id="Path_10122" data-name="Path 10122" d="M76.828,126.038H56.382l-.257-8.8-.2-6.847h0l-.082-2.809v0l-.026-.847-.067-2.364-.029-1-.042-1.445-.089-3.035v0l-.064-2.17-.051-1.684-.005-.19-.087-3.025-.005-.1c.086.031.168.065.255.1.267.106.556.215.859.323l.192.069h0c.211.074.43.148.657.22.261.084.53.166.812.247v0c.126.035.252.072.381.108.045.01.094.025.141.037a.105.105,0,0,1,.016,0l.392.1.268.067c.356.085.725.168,1.1.242a27.906,27.906,0,0,0,11.515-.126c.355-.078.7-.162,1.022-.248.346-.089.673-.182.985-.276a.2.2,0,0,0,.042-.014h0c.138-.038.272-.08.4-.124l.117-.038c.393-.126.751-.252,1.082-.37q-.184.914-.365,1.831c-.032.161-.065.324-.1.484s-.067.321-.1.484c-.184.921-.367,1.833-.552,2.753v.017q-.43,2.155-.857,4.31l.765,5.8v0l.919,6.973v0Z" transform="translate(-17.661 -29.254)" fill="none" stroke="#2e2e2e" stroke-miterlimit="10" stroke-width="0.5"/>
              <g id="Group_762" data-name="Group 762" transform="translate(41.233 41.966)" style="mix-blend-mode: multiply;isolation: isolate">
                <g id="Group_761" data-name="Group 761">
                  <g id="Group_760" data-name="Group 760" >
                    <path id="Path_10123" data-name="Path 10123" d="M75.182,76.435a19.894,19.894,0,0,1-14.11,0l.634-7.576.565-6.744H73.785l.68,6.966Z" transform="translate(-60.712 -61.779)" fill="#fff" stroke="#707070" stroke-width="0.5"/>
                    <path id="Path_10124" data-name="Path 10124" d="M75.182,76.435a19.894,19.894,0,0,1-14.11,0l.634-7.576.565-6.744H73.785l.68,6.966Z" transform="translate(-60.712 -61.779)" fill="none" stroke="#2e2e2e" stroke-miterlimit="10" stroke-width="0.5"/>
                  </g>
                </g>
              </g>
              <path id="Path_10125" data-name="Path 10125" d="M80.667,37.669c0,13.187-7.883,19.84-17.56,19.84s-17.485-6.654-17.485-19.84q0-.787.037-1.561c.59-12.46.661-23.334,17.444-23.329,16.112.005,17.4,11.473,17.562,24.465,0,.142,0,.283,0,.425" transform="translate(-14.551 -4.076)" fill="#fff" stroke="#707070" stroke-width="0.5"/>
              <path id="Path_10126" data-name="Path 10126" d="M80.667,37.669c0,13.187-7.883,19.84-17.56,19.84s-17.485-6.654-17.485-19.84q0-.787.037-1.561c.59-12.46.661-23.334,17.444-23.329,16.112.005,17.4,11.473,17.562,24.465C80.666,37.385,80.667,37.527,80.667,37.669Z" transform="translate(-14.551 -4.076)" fill="none" stroke="#2e2e2e" stroke-miterlimit="10" stroke-width="0.5"/>
              <path id="Path_10127" data-name="Path 10127" d="M44.738,93.994l-.063-.219-.148-.514v-.005l0,0h0l-.17-.578-.031-.112-.213-.732v0l-.067-.225-.185-.634-.451-1.551-.1-.36c-.187.052-.369.107-.546.159-1.165.353-2.07.7-2.652.938l-.318.815-1.183,3.025-2.287,5.853a2.723,2.723,0,0,1-2.3,1.722q-.482.047-1.084.126c-1.434.2-3.351.55-5.509.994-1.235.262-2.552.55-3.9.862h0c-1.4.321-2.827.667-4.239,1.022l-.251.065c-1,.25-1.981.507-2.937.763-.358.1-.714.193-1.064.291-.48.546-.97,1.125-1.461,1.74-.419.526-.844,1.076-1.265,1.655-.215.291-.428.587-.641.891-.107.154-.215.307-.321.464q.22.257.445.512l.112.131c.014.012.025.027.038.04.107.125.215.243.321.364.051.056.1.112.153.168.508.559,1.029,1.111,1.562,1.647l.239.243.117.114.031.033c.084.08.165.162.249.244.05.05.1.1.159.153.03.033.065.063.1.1q.595.576,1.212,1.137l.281.251c.068.061.135.123.2.183.159.14.32.281.482.417.29.255.582.5.879.75q1,.831,2.04,1.613,1.158.87,2.366,1.682l.164.108h0c.253.17.5.334.759.5.18.116.36.227.538.339.121.075.239.154.364.227.044.026.089.056.133.082l.218.133q2.1,1.266,4.319,2.341c.1.05.2.1.3.146l.328.157c.1.046.2.093.3.142.6.274,1.2.54,1.81.791H45l.044-7.4.056-9.5.066-11.53h0ZM92.9,109.979c-.213-.3-.426-.6-.64-.891-.421-.579-.846-1.129-1.265-1.655-.473-.594-.945-1.154-1.41-1.684-2.73-.758-5.787-1.527-8.692-2.2h0c-.612-.142-1.218-.279-1.81-.411-2.705-.6-5.182-1.083-7.026-1.359l-.066-.012c-.6-.089-1.141-.155-1.588-.2a2.714,2.714,0,0,1-2.3-1.722l-.026-.063-2.263-5.79L64.638,90.97l-.087-.219-.03-.072A26.172,26.172,0,0,0,61.795,89.5c-.244-.091-.487-.176-.73-.257l-.5,1.724-.185.634-.261.9-.049.172v0h0l-.646,4.084h0l.248,11.229.155,7.062h0l.222,10.132H73.03a53.036,53.036,0,0,0,5.725-2.8c.244-.136.486-.278.729-.417.183-.108.367-.217.549-.327h0l.3-.18c.038-.025.077-.049.115-.072.121-.074.236-.147.356-.225h0q2.063-1.284,3.994-2.749,1.056-.8,2.067-1.647c.168-.14.336-.279.5-.421.061-.054.126-.108.189-.164.251-.215.5-.437.748-.659.03-.025.058-.049.082-.074.075-.07.15-.136.225-.206.165-.15.33-.3.494-.456a.28.28,0,0,0,.025-.025c.264-.247.524-.494.78-.748.124-.121.246-.24.368-.362.04-.037.078-.076.117-.114q.409-.409.807-.826c.255-.266.507-.535.757-.8.054-.06.11-.117.161-.177.077-.084.152-.164.229-.251.021-.021.04-.046.063-.068s.033-.038.049-.058c.124-.138.243-.27.36-.407.029-.03.054-.061.082-.093.115-.129.229-.261.343-.392-.114-.168-.229-.332-.343-.494" transform="translate(-3.621 -28.405)" fill="#c7d0dc" stroke="#707070" stroke-width="0.5"/>
              <path id="Path_10128" data-name="Path 10128" d="M44.738,93.994l-.063-.219-.148-.514v-.005l0,0h0l-.17-.578-.031-.112-.213-.732v0l-.067-.225-.185-.634-.451-1.551-.1-.36c-.187.052-.369.107-.546.159-1.165.353-2.07.7-2.652.938l-.318.815-1.183,3.025-2.287,5.853a2.723,2.723,0,0,1-2.3,1.722q-.482.047-1.084.126c-1.434.2-3.351.55-5.509.994-1.235.262-2.552.55-3.9.862h0c-1.4.321-2.827.667-4.239,1.022l-.251.065c-1,.25-1.981.507-2.937.763-.358.1-.714.193-1.064.291-.48.546-.97,1.125-1.461,1.74-.419.526-.844,1.076-1.265,1.655-.215.291-.428.587-.641.891-.107.154-.215.307-.321.464q.22.257.445.512l.112.131c.014.012.025.027.038.04.107.125.215.243.321.364.051.056.1.112.153.168.508.559,1.029,1.111,1.562,1.647l.239.243.117.114.031.033c.084.08.165.162.249.244.05.05.1.1.159.153.03.033.065.063.1.1q.595.576,1.212,1.137l.281.251c.068.061.135.123.2.183.159.14.32.281.482.417.29.255.582.5.879.75q1,.831,2.04,1.613,1.158.87,2.366,1.682l.164.108h0c.253.17.5.334.759.5.18.116.36.227.538.339.121.075.239.154.364.227.044.026.089.056.133.082l.218.133q2.1,1.266,4.319,2.341c.1.05.2.1.3.146l.328.157c.1.046.2.093.3.142.6.274,1.2.54,1.81.791H45l.044-7.4.056-9.5.066-11.53h0ZM92.9,109.979c-.213-.3-.426-.6-.64-.891-.421-.579-.846-1.129-1.265-1.655-.473-.594-.945-1.154-1.41-1.684-2.73-.758-5.787-1.527-8.692-2.2h0c-.612-.142-1.218-.279-1.81-.411-2.705-.6-5.182-1.083-7.026-1.359l-.066-.012c-.6-.089-1.141-.155-1.588-.2a2.714,2.714,0,0,1-2.3-1.722l-.026-.063-2.263-5.79L64.638,90.97l-.087-.219-.03-.072A26.172,26.172,0,0,0,61.795,89.5c-.244-.091-.487-.176-.73-.257l-.5,1.724-.185.634-.261.9-.049.172v0h0l-.646,4.084h0l.248,11.229.155,7.062h0l.222,10.132H73.03a53.036,53.036,0,0,0,5.725-2.8c.244-.136.486-.278.729-.417.183-.108.367-.217.549-.327h0l.3-.18c.038-.025.077-.049.115-.072.121-.074.236-.147.356-.225h0q2.063-1.284,3.994-2.749,1.056-.8,2.067-1.647c.168-.14.336-.279.5-.421.061-.054.126-.108.189-.164.251-.215.5-.437.748-.659.03-.025.058-.049.082-.074.075-.07.15-.136.225-.206.165-.15.33-.3.494-.456a.28.28,0,0,0,.025-.025c.264-.247.524-.494.78-.748.124-.121.246-.24.368-.362.04-.037.078-.076.117-.114q.409-.409.807-.826c.255-.266.507-.535.757-.8.054-.06.11-.117.161-.177.077-.084.152-.164.229-.251.021-.021.04-.046.063-.068s.033-.038.049-.058c.124-.138.243-.27.36-.407.029-.03.054-.061.082-.093.115-.129.229-.261.343-.392C93.13,110.305,93.015,110.141,92.9,109.979Z" transform="translate(-3.621 -28.405)" fill="none" stroke="#2e2e2e" stroke-width="0.5"/>
            </g>
          </g>
        </g>
      </g>
      </g>

      <g data-ag="art5-x">
        <g id="Group_771" data-name="Group 771" transform="translate(-1407.89 -11311.961)">
            <path id="Path_10129" data-name="Path 10129" d="M31.48,31.48.354.354Z" transform="translate(-0.277 -0.277)" fill="#fff"/>
            <g id="Group_768" data-name="Group 768">
            <g id="Group_767" data-name="Group 767" >
                <line id="Line_227" data-name="Line 227" x2="31.127" y2="31.127" transform="translate(0.077 0.077)" fill="none" stroke="#2e2e2e" stroke-miterlimit="10" stroke-width="1"/>
            </g>
            </g>
            <path id="Path_10130" data-name="Path 10130" d="M.354,31.48,31.48.354Z" transform="translate(-0.277 -0.277)" fill="#fff"/>
            <g id="Group_770" data-name="Group 770">
            <g id="Group_769" data-name="Group 769" >
                <line id="Line_228" data-name="Line 228" x1="31.127" y2="31.127" transform="translate(0.077 0.077)" fill="none" stroke="#2e2e2e" stroke-miterlimit="10" stroke-width="1"/>
            </g>
            </g>
        </g>
      </g>


    </g>

</g>
  </svg>
  