<svg xmlns="http://www.w3.org/2000/svg" width="603.281" height="518" viewBox="0 0 603.281 518">
    <g data-ag="art3-flowchart">
    <g id="Flowchart" transform="translate(11138.919 12071)">
      

        <g data-ag="art3-level1-0">
            <g id="tree_1-2" data-name="tree 1" transform="translate(3877.964 825.619)">
            <g id="Rectangle_32569-8" data-name="Rectangle 32569" transform="translate(-15013 -12622)" fill="#fff" stroke="#e2e2e2" stroke-width="0.5">
            <rect width="159" height="29" stroke="none"/>
            <rect x="0.25" y="0.25" width="158.5" height="28.5" fill="none"/>
            </g>
            <g id="Group_64-8" data-name="Group 64" transform="translate(-15013 -12619.4)">
            <text id="Tree_1-3" data-name="Tree 1" transform="translate(0)" fill="#bc5a1d" font-size="20" font-family="Metric-Medium, Metric" font-weight="500" letter-spacing="0.003em"><tspan x="51.233" y="18">Tree 1</tspan></text>
            </g>
            </g>
        </g>
        <g data-ag="art3-level1-1">
            <g id="tree_2-2" data-name="tree 2" transform="translate(4094 825.619)">
                <g id="Rectangle_32569-9" data-name="Rectangle 32569" transform="translate(-15013 -12622)" fill="#fff" stroke="#e2e2e2" stroke-width="0.5">
                <rect width="159" height="29" stroke="none"/>
                <rect x="0.25" y="0.25" width="158.5" height="28.5" fill="none"/>
                </g>
                <g id="Group_64-9" data-name="Group 64" transform="translate(-15013 -12619.4)">
                <text id="Tree_2-3" data-name="Tree 2" transform="translate(0)" fill="#8d4c82" font-size="20" font-family="Metric-Medium, Metric" font-weight="500" letter-spacing="0.003em"><tspan x="50.033" y="18">Tree 2</tspan></text>
                </g>
            </g>
        </g>
        <g data-ag="art3-level1-2">
            <g id="Group_498-2" data-name="Group 498" transform="translate(4301.449 825.619)">
                <g id="Rectangle_32569-10" data-name="Rectangle 32569" transform="translate(-15013 -12622)" fill="#fff" stroke="#e2e2e2" stroke-width="0.5">
                <rect width="159" height="29" stroke="none"/>
                <rect x="0.25" y="0.25" width="158.5" height="28.5" fill="none"/>
                </g>
                <g id="Group_64-10" data-name="Group 64" transform="translate(-15013 -12619.4)">
                <text id="Tree_n-2" data-name="Tree n" transform="translate(0)" fill="#37598e" font-size="20" font-family="Metric-Medium, Metric" font-weight="500" letter-spacing="0.003em"><tspan x="57.573" y="18">Tree n</tspan></text>
                </g>
            </g>
        </g>

        <g id="Arrows" transform="translate(-10918 -12006.941)">
            <g data-ag="art3-arrows-0">
  
            <g id="Group_93-2" data-name="Group 93" transform="translate(18.647 0) rotate(45)">
                <g id="Group_73-38" data-name="Group 73" transform="translate(0 0)">
                <line id="Line_114-38" data-name="Line 114" y1="25.103" transform="translate(9.114 0)" fill="none" stroke="#2e2e2e" stroke-miterlimit="10" stroke-width="1"/>
                <path id="Path_6135-38" data-name="Path 6135" d="M18.228,0,9.114,9.114,0,0" transform="translate(0 17.257)" fill="none" stroke="#2e2e2e" stroke-miterlimit="10" stroke-width="1"/>
                </g>
            </g>
            <g id="Group_94-2" data-name="Group 94" transform="translate(62.688 15.768)">
                <g id="Group_73-37" data-name="Group 73" transform="translate(0 0)">
                <line id="Line_114-37" data-name="Line 114" y1="25.103" transform="translate(9.114)" fill="none" stroke="#2e2e2e" stroke-miterlimit="10" stroke-width="1"/>
                <path id="Path_6135-37" data-name="Path 6135" d="M19.642,106.705l-9.114,9.114-9.114-9.114" transform="translate(-1.414 -89.448)" fill="none" stroke="#2e2e2e" stroke-miterlimit="10" stroke-width="1"/>
                </g>
            </g>  
            <g id="Group_95-2" data-name="Group 95" transform="translate(143.605 18.647) rotate(135)">
                <g id="Group_73-39" data-name="Group 73" transform="translate(0 0)">
                <line id="Line_114-39" data-name="Line 114" y2="25.103" transform="translate(9.114 1.268)" fill="none" stroke="#2e2e2e" stroke-miterlimit="10" stroke-width="1"/>
                <path id="Path_6135-39" data-name="Path 6135" d="M18.228,9.114,9.114,0,0,9.114" transform="translate(0 0)" fill="none" stroke="#2e2e2e" stroke-miterlimit="10" stroke-width="1"/>
                </g>
            </g>
            </g>
        </g>

        <g data-ag="art3-dots">
        <text id="_2" data-name="(…)" transform="translate(-10810.488 -11899.347)" fill="#7a7a7a" font-size="20" font-family="Metric-Medium, Metric" font-weight="500" letter-spacing="0.003em"><tspan x="50.669" y="18">(…)</tspan></text>
        </g>

      <g data-ag="art3-arrows-1">
        <g id="Group_501-2" data-name="Group 501" transform="translate(-4.464 -20)">
            <g id="Group_145-2" data-name="Group 145" transform="translate(-11024 -11706.294) rotate(135)">
                <g id="Group_73-41" data-name="Group 73" transform="translate(0 0)">
                <line id="Line_114-41" data-name="Line 114" y2="25.103" transform="translate(9.114 1.268)" fill="none" stroke="#2e2e2e" stroke-miterlimit="10" stroke-width="1"/>
                <path id="Path_6135-41" data-name="Path 6135" d="M18.228,9.114,9.114,0,0,9.114" transform="translate(0 0)" fill="none" stroke="#2e2e2e" stroke-miterlimit="10" stroke-width="1"/>
                </g>
            </g>
        </g>
        <g id="Group_146-2" data-name="Group 146" transform="translate(-10857 -11748.775)">
            <g id="Group_73-42" data-name="Group 73" transform="translate(0 0)">
                <line id="Line_114-42" data-name="Line 114" y1="25.103" transform="translate(9.114)" fill="none" stroke="#2e2e2e" stroke-miterlimit="10" stroke-width="1"/>
                <path id="Path_6135-42" data-name="Path 6135" d="M19.642,106.705l-9.114,9.114-9.114-9.114" transform="translate(-1.414 -89.448)" fill="none" stroke="#2e2e2e" stroke-miterlimit="10" stroke-width="1"/>
            </g>
            </g>
            <g id="Group_501-2" data-name="Group 501" transform="translate(-4.464 -20)">
                <g id="Group_144-2" data-name="Group 144" transform="translate(-10644.89 -11724.941) rotate(45)">
                    <g id="Group_73-40" data-name="Group 73" transform="translate(0 0)">
                    <line id="Line_114-40" data-name="Line 114" y1="25.103" transform="translate(9.114 0)" fill="none" stroke="#2e2e2e" stroke-miterlimit="10" stroke-width="1"/>
                    <path id="Path_6135-40" data-name="Path 6135" d="M18.228,0,9.114,9.114,0,0" transform="translate(0 17.257)" fill="none" stroke="#2e2e2e" stroke-miterlimit="10" stroke-width="1"/>
                    </g>
                </g>
            </g>


        
      </g>

      <g data-ag="art3-arrows-2">
        <g id="Group_148-2" data-name="Group 148" transform="translate(-10856 -11633.596)">
            <g id="Group_73-43" data-name="Group 73" transform="translate(0 0)">
              <line id="Line_114-43" data-name="Line 114" y1="25.103" transform="translate(9.114)" fill="none" stroke="#2e2e2e" stroke-miterlimit="10" stroke-width="1"/>
              <path id="Path_6135-43" data-name="Path 6135" d="M19.642,106.705l-9.114,9.114-9.114-9.114" transform="translate(-1.414 -89.448)" fill="none" stroke="#2e2e2e" stroke-miterlimit="10" stroke-width="1"/>
            </g>
          </g>
      </g>

      <g data-ag="art3-level0-0">
        <g id="Input_data" data-name="Input data" transform="translate(4086 581)">
            <g id="Rectangle_32569-11" data-name="Rectangle 32569" transform="translate(-15013 -12622)" fill="#fff" stroke="#e2e2e2" stroke-width="0.5">
            <rect width="159" height="29" stroke="none"/>
            <rect x="0.25" y="0.25" width="158.5" height="28.5" fill="none"/>
            </g>
            <g id="Group_64-11" data-name="Group 64" transform="translate(-15007.854 -12619.4)">
            <text id="Input_data_set" data-name="Input data set" transform="translate(0)" fill="#2e2e2e" font-size="20" font-family="Metric-Medium, Metric" font-weight="500" letter-spacing="0.003em"><tspan x="19.263" y="18">Input data set</tspan></text>
            </g>
        </g>
      </g>


      <g data-ag="art3-level0-1">
        <g id="Group_492" data-name="Group 492" transform="translate(4086 581)">
            <g id="Rectangle_32569-4" data-name="Rectangle 32569" transform="translate(-15076 -12652)" fill="#fff" stroke="#e2e2e2" stroke-width="0.5">
            <rect width="297" height="59" stroke="none"/>
            <rect x="0.25" y="0.25" width="296.5" height="58.5" fill="none"/>
            </g>
            <g id="Group_64-4" data-name="Group 64" transform="translate(-15007.854 -12619.4)">
            <text id="Genomes_of_all_diabetic_patients_in_French-speaking_Belgium" data-name="Genomes of all diabetic patients in French-speaking Belgium" transform="translate(-64 -28)" fill="#2e2e2e" font-size="20" font-family="Metric-Medium, Metric" font-weight="500" letter-spacing="0.003em"><tspan x="4.193" y="18">Genomes of all diabetic patients in </tspan><tspan x="40.553" y="43">French-speaking Belgium</tspan></text>
            </g>
        </g>
      </g>

        <g data-ag="art3-level3-1">
            <g id="Group_500" data-name="Group 500" transform="translate(3908 1039)">
            <g id="Rectangle_32569-6" data-name="Rectangle 32569" transform="translate(-15013 -12622)" fill="#fff" stroke="#e2e2e2" stroke-width="0.5">
                <rect width="230" height="29" stroke="none"/>
                <rect x="0.25" y="0.25" width="229.5" height="28.5" fill="none"/>
            </g>
            <g id="Group_64-6" data-name="Group 64" transform="translate(-15007.854 -12619.4)">
                <text id="Genetic_drivers_of_diabetes" data-name="Genetic drivers of diabetes" transform="translate(0)" fill="#2e2e2e" font-size="20" font-family="Metric-Medium, Metric" font-weight="500" letter-spacing="0.003em"><tspan x="2.233" y="18">Genetic drivers of diabetes</tspan></text>
            </g>
            </g>
        </g>

        <g data-ag="art3-level3-2">
            <g id="Group_503" data-name="Group 503" transform="translate(4188 1040)">
                <g id="Rectangle_32569-7" data-name="Rectangle 32569" transform="translate(-15013 -12622)" fill="#fff" stroke="#e2e2e2" stroke-width="0.5">
                <rect width="230" height="29" stroke="none"/>
                <rect x="0.25" y="0.25" width="229.5" height="28.5" fill="none"/>
                </g>
                <g id="Group_64-7" data-name="Group 64" transform="translate(-15007.854 -12619.4)">
                <text id="Contributing_lifestyle_factors" data-name="Contributing lifestyle factors" transform="translate(0)" fill="#2e2e2e" font-size="20" font-family="Metric-Medium, Metric" font-weight="500" letter-spacing="0.003em"><tspan x="24.403" y="18">Contributing lifestyle </tspan></text>
                </g>
            </g>
        </g>

      <g data-ag="art3-level2-0">
        <g id="Average_All_predictions-2" data-name="Average All predictions" transform="translate(4064 934)">
            <g id="Rectangle_32569-12" data-name="Rectangle 32569" transform="translate(-15013 -12622)" fill="#fff" stroke="#e2e2e2" stroke-width="0.5">
            <rect width="202" height="29" stroke="none"/>
            <rect x="0.25" y="0.25" width="201.5" height="28.5" fill="none"/>
            </g>
            <g id="Group_64-12" data-name="Group 64" transform="translate(-15007.854 -12619.4)">
            <text id="Average_all_predictions-3" data-name="Average all predictions" transform="translate(0)" fill="#2e2e2e" font-size="20" font-family="Metric-Medium, Metric" font-weight="500" letter-spacing="0.003em"><tspan x="4.283" y="18">Average all predictions</tspan></text>
            </g>
        </g>
      </g>

      <g data-ag="art3-level3-0">
        <g id="Random_forest_predictions" data-name="Random forest predictions" transform="translate(4050 1040)">
            <g id="Rectangle_32569-13" data-name="Rectangle 32569" transform="translate(-15013 -12622)" fill="#fff" stroke="#e2e2e2" stroke-width="0.5">
            <rect width="230" height="29" stroke="none"/>
            <rect x="0.25" y="0.25" width="229.5" height="28.5" fill="none"/>
            </g>
            <g id="Group_64-13" data-name="Group 64" transform="translate(-15007.854 -12619.4)">
            <text id="Random_forest_predictions-2" data-name="Random forest predictions" transform="translate(0)" fill="#2e2e2e" font-size="20" font-family="Metric-Medium, Metric" font-weight="500" letter-spacing="0.003em"><tspan x="3.973" y="18">Random forest predictions</tspan></text>
            </g>
        </g>
      </g>

      <g data-ag="art3-tree-0">
      <g id="Tree_1-4" data-name="Tree 1" transform="translate(-11138 -11945.956)">
        <path id="Path_6297-2" data-name="Path 6297" d="M209.6,13.026A8.525,8.525,0,1,1,201.075,4.5,8.526,8.526,0,0,1,209.6,13.026Z" transform="translate(-106.605 -4.5)" fill="#fff" stroke="#bc5a1d" stroke-linecap="round" stroke-miterlimit="10" stroke-width="1.5" stroke-dasharray="2 3"/>
        <g id="Group_936-2" data-name="Group 936" transform="translate(-0.5)">
          <path id="Path_6298-2" data-name="Path 6298" d="M17.05,8.526A8.525,8.525,0,1,1,8.525,0,8.526,8.526,0,0,1,17.05,8.526Z" transform="matrix(0.966, 0.259, -0.259, 0.966, 50.357, 35.456)" fill="#fff" stroke="#bc5a1d" stroke-linecap="round" stroke-miterlimit="10" stroke-width="1.5" stroke-dasharray="2 3"/>
          <path id="Path_6299-2" data-name="Path 6299" d="M17.05,8.526A8.525,8.525,0,1,1,8.525,0,8.526,8.526,0,0,1,17.05,8.526Z" transform="matrix(0.966, 0.259, -0.259, 0.966, 126.357, 35.456)" fill="#fff" stroke="#bc5a1d" stroke-linecap="round" stroke-miterlimit="10" stroke-width="1.5" stroke-dasharray="2 3"/>
        </g>
        <path id="Path_6302-2" data-name="Path 6302" d="M17.05,8.526A8.525,8.525,0,1,1,8.525,0,8.526,8.526,0,0,1,17.05,8.526Z" transform="matrix(0.966, 0.259, -0.259, 0.966, 126.358, 112.493)" fill="#fff" stroke="#bc5a1d" stroke-linecap="round" stroke-linejoin="round" stroke-miterlimit="10" stroke-width="1.5" stroke-dasharray="2 3"/>
        <g id="Group_934-2" data-name="Group 934" transform="translate(-0.562)">
          <g id="Group_112-2" data-name="Group 112" transform="translate(99.115 73.956)">
            <path id="Path_6300-4" data-name="Path 6300" d="M17.05,8.526A8.525,8.525,0,1,1,8.525,0,8.526,8.526,0,0,1,17.05,8.526Z" transform="matrix(0.966, 0.259, -0.259, 0.966, 4.413, 0)" fill="#fff" stroke="#bc5a1d" stroke-linecap="round" stroke-miterlimit="10" stroke-width="1.5" stroke-dasharray="2 3"/>
            <path id="Path_6301-4" data-name="Path 6301" d="M17.05,8.526A8.525,8.525,0,1,1,8.525,0,8.526,8.526,0,0,1,17.05,8.526Z" transform="matrix(0.966, 0.259, -0.259, 0.966, 50.599, 0)" fill="#fff" stroke="#bc5a1d" stroke-miterlimit="10" stroke-width="1.5"/>
          </g>
          <g id="Group_110-2" data-name="Group 110" transform="translate(23.006 73.956)">
            <path id="Path_6303-9" data-name="Path 6303" d="M17.05,8.526A8.525,8.525,0,1,1,8.525,0,8.526,8.526,0,0,1,17.05,8.526Z" transform="matrix(0.966, 0.259, -0.259, 0.966, 4.413, 0)" fill="#fff" stroke="#bc5a1d" stroke-miterlimit="10" stroke-width="1.5"/>
            <path id="Path_6304-8" data-name="Path 6304" d="M17.05,8.526A8.525,8.525,0,1,1,8.525,0,8.526,8.526,0,0,1,17.05,8.526Z" transform="matrix(0.966, 0.259, -0.259, 0.966, 50.599, 0)" fill="#fff" stroke="#bc5a1d" stroke-miterlimit="10" stroke-width="1.5"/>
          </g>
        </g>
        <g id="Group_115-2" data-name="Group 115" transform="translate(0 111.808)">
          <path id="Path_6303-10" data-name="Path 6303" d="M17.05,8.526A8.525,8.525,0,1,1,8.525,0,8.526,8.526,0,0,1,17.05,8.526Z" transform="matrix(0.966, 0.259, -0.259, 0.966, 4.413, 0)" fill="#fff" stroke="#bc5a1d" stroke-miterlimit="10" stroke-width="1.5"/>
          <path id="Path_6304-9" data-name="Path 6304" d="M17.05,8.526A8.525,8.525,0,1,1,8.525,0,8.526,8.526,0,0,1,17.05,8.526Z" transform="matrix(0.966, 0.259, -0.259, 0.966, 50.357, 0)" fill="#fff" stroke="#bc5a1d" stroke-miterlimit="10" stroke-width="1.5"/>
        </g>
        <g id="Group_107-2" data-name="Group 107" transform="translate(132.906 106.433) rotate(135)">
          <g id="Group_73-44" data-name="Group 73" transform="translate(0 0)">
            <line id="Line_114-44" data-name="Line 114" y2="15.533" transform="translate(5.64 0.784)" fill="none" stroke="#bc5a1d" stroke-miterlimit="10" stroke-width="1.5"/>
            <path id="Path_6135-44" data-name="Path 6135" d="M11.279,5.639,5.64,0,0,5.639" transform="translate(0 0)" fill="none" stroke="#bc5a1d" stroke-miterlimit="10" stroke-width="1.5"/>
          </g>
        </g>
        <g id="Group_935-2" data-name="Group 935" transform="translate(-2)">
          <g id="Group_103-2" data-name="Group 103" transform="translate(122.678 27.017) rotate(135)">
            <g id="Group_73-45" data-name="Group 73" transform="translate(0 0)">
              <line id="Line_114-45" data-name="Line 114" y2="15.533" transform="translate(5.64 0.784)" fill="none" stroke="#bc5a1d" stroke-miterlimit="10" stroke-width="1.5"/>
              <path id="Path_6135-45" data-name="Path 6135" d="M11.279,5.639,5.64,0,0,5.639" transform="translate(0 0)" fill="none" stroke="#bc5a1d" stroke-miterlimit="10" stroke-width="1.5"/>
            </g>
          </g>
          <g id="Group_104-2" data-name="Group 104" transform="translate(79.844 15.479) rotate(45)">
            <g id="Group_73-46" data-name="Group 73" transform="translate(0 0)">
              <line id="Line_114-46" data-name="Line 114" y1="15.533" transform="translate(5.64 0)" fill="none" stroke="#bc5a1d" stroke-miterlimit="10" stroke-width="1.5"/>
              <path id="Path_6135-46" data-name="Path 6135" d="M11.279,0,5.64,5.639,0,0" transform="translate(0 10.678)" fill="none" stroke="#bc5a1d" stroke-miterlimit="10" stroke-width="1.5"/>
            </g>
          </g>
        </g>
        <g id="Group_113-2" data-name="Group 113" transform="translate(110.254 54.498)">
          <g id="Group_105-4" data-name="Group 105" transform="translate(45.286 11.538) rotate(135)">
            <g id="Group_73-47" data-name="Group 73" transform="translate(0 0)">
              <line id="Line_114-47" data-name="Line 114" y2="15.533" transform="translate(5.64 0.784)" fill="none" stroke="#bc5a1d" stroke-miterlimit="10" stroke-width="1.5"/>
              <path id="Path_6135-47" data-name="Path 6135" d="M11.279,5.639,5.64,0,0,5.639" transform="translate(0 0)" fill="none" stroke="#bc5a1d" stroke-miterlimit="10" stroke-width="1.5"/>
            </g>
          </g>
          <g id="Group_106-4" data-name="Group 106" transform="translate(11.538 0) rotate(45)">
            <g id="Group_73-48" data-name="Group 73" transform="translate(0 0)">
              <line id="Line_114-48" data-name="Line 114" y1="15.533" transform="translate(5.64 0)" fill="none" stroke="#bc5a1d" stroke-miterlimit="10" stroke-width="1.5"/>
              <path id="Path_6135-48" data-name="Path 6135" d="M11.279,0,5.64,5.639,0,0" transform="translate(0 10.678)" fill="none" stroke="#bc5a1d" stroke-miterlimit="10" stroke-width="1.5"/>
            </g>
          </g>
        </g>
        <g id="Group_109-8" data-name="Group 109" transform="translate(78.811 66.036) rotate(135)">
          <g id="Group_73-49" data-name="Group 73" transform="translate(0 0)">
            <line id="Line_114-49" data-name="Line 114" y2="15.533" transform="translate(5.64 0.784)" fill="none" stroke="#bc5a1d" stroke-miterlimit="10" stroke-width="1.5"/>
            <path id="Path_6135-49" data-name="Path 6135" d="M11.279,5.639,5.64,0,0,5.639" transform="translate(0 0)" fill="none" stroke="#bc5a1d" stroke-miterlimit="10" stroke-width="1.5"/>
          </g>
        </g>
        <g id="Group_108-9" data-name="Group 108" transform="translate(45.065 54.498) rotate(45)">
          <g id="Group_73-50" data-name="Group 73" transform="translate(0 0)">
            <line id="Line_114-50" data-name="Line 114" y1="15.533" transform="translate(5.64 0)" fill="none" stroke="#bc5a1d" stroke-miterlimit="10" stroke-width="1.5"/>
            <path id="Path_6135-50" data-name="Path 6135" d="M11.279,0,5.64,5.639,0,0" transform="translate(0 10.678)" fill="none" stroke="#bc5a1d" stroke-miterlimit="10" stroke-width="1.5"/>
          </g>
        </g>
        <g id="Group_114-2" data-name="Group 114" transform="translate(10.519 92.295)">
          <g id="Group_109-9" data-name="Group 109" transform="translate(45.285 11.538) rotate(135)">
            <g id="Group_73-51" data-name="Group 73" transform="translate(0 0)">
              <line id="Line_114-51" data-name="Line 114" y2="15.533" transform="translate(5.64 0.784)" fill="none" stroke="#bc5a1d" stroke-miterlimit="10" stroke-width="1.5"/>
              <path id="Path_6135-51" data-name="Path 6135" d="M11.279,5.639,5.64,0,0,5.639" transform="translate(0 0)" fill="none" stroke="#bc5a1d" stroke-miterlimit="10" stroke-width="1.5"/>
            </g>
          </g>
          <g id="Group_108-10" data-name="Group 108" transform="translate(11.538 0) rotate(45)">
            <g id="Group_73-52" data-name="Group 73" transform="translate(0 0)">
              <line id="Line_114-52" data-name="Line 114" y1="15.533" transform="translate(5.64 0)" fill="none" stroke="#bc5a1d" stroke-miterlimit="10" stroke-width="1.5"/>
              <path id="Path_6135-52" data-name="Path 6135" d="M11.279,0,5.64,5.639,0,0" transform="translate(0 10.678)" fill="none" stroke="#bc5a1d" stroke-miterlimit="10" stroke-width="1.5"/>
            </g>
          </g>
        </g>
      </g>
      </g>
      <g data-ag="art3-tree-1">
      <g id="tree_2-4" data-name="tree 2" transform="translate(-10945.812 -11945.956)">
        <path id="Path_6305-2" data-name="Path 6305" d="M209.6,13.026A8.525,8.525,0,1,1,201.075,4.5,8.526,8.526,0,0,1,209.6,13.026Z" transform="translate(-104.794 -4.5)" fill="#fff" stroke="#8d4c82" stroke-linecap="round" stroke-miterlimit="10" stroke-width="1.5" stroke-dasharray="2 3"/>
        <g id="Group_937-2" data-name="Group 937" transform="translate(0.189)">
          <path id="Path_6306-2" data-name="Path 6306" d="M17.05,8.526A8.525,8.525,0,1,1,8.525,0,8.526,8.526,0,0,1,17.05,8.526Z" transform="matrix(0.966, 0.259, -0.259, 0.966, 52.48, 34.991)" fill="#fff" stroke="#8d4c82" stroke-linecap="round" stroke-miterlimit="10" stroke-width="1.5" stroke-dasharray="2 3"/>
          <path id="Path_6307-2" data-name="Path 6307" d="M17.05,8.526A8.525,8.525,0,1,1,8.525,0,8.526,8.526,0,0,1,17.05,8.526Z" transform="matrix(0.966, 0.259, -0.259, 0.966, 128.589, 34.991)" fill="#fff" stroke="#8d4c82" stroke-linecap="round" stroke-miterlimit="10" stroke-width="1.5" stroke-dasharray="2 3"/>
        </g>
        <g id="Group_938-2" data-name="Group 938" transform="translate(0.63)">
          <g id="Group_118-2" data-name="Group 118" transform="translate(101.591 74.013)">
            <path id="Path_6300-6" data-name="Path 6300" d="M17.05,8.526A8.525,8.525,0,1,1,8.525,0,8.526,8.526,0,0,1,17.05,8.526Z" transform="matrix(0.966, 0.259, -0.259, 0.966, 4.413, 0)" fill="#fff" stroke="#8d4c82" stroke-miterlimit="10" stroke-width="1.5"/>
            <path id="Path_6301-6" data-name="Path 6301" d="M17.05,8.526A8.525,8.525,0,1,1,8.525,0,8.526,8.526,0,0,1,17.05,8.526Z" transform="matrix(0.966, 0.259, -0.259, 0.966, 50.599, 0)" fill="#fff" stroke="#8d4c82" stroke-miterlimit="10" stroke-width="1.5"/>
          </g>
          <g id="Group_119-2" data-name="Group 119" transform="translate(23.626 74.013)">
            <path id="Path_6303-14" data-name="Path 6303" d="M17.05,8.526A8.525,8.525,0,1,1,8.525,0,8.526,8.526,0,0,1,17.05,8.526Z" transform="matrix(0.966, 0.259, -0.259, 0.966, 4.413, 0)" fill="#fff" stroke="#8d4c82" stroke-miterlimit="10" stroke-width="1.5"/>
            <path id="Path_6304-13" data-name="Path 6304" d="M17.05,8.526A8.525,8.525,0,1,1,8.525,0,8.526,8.526,0,0,1,17.05,8.526Z" transform="matrix(0.966, 0.259, -0.259, 0.966, 50.599, 0)" fill="#fff" stroke="#8d4c82" stroke-linecap="round" stroke-miterlimit="10" stroke-width="1.5" stroke-dasharray="2 3"/>
          </g>
        </g>
        <g id="Group_939-2" data-name="Group 939" transform="translate(0.256)">
          <path id="Path_6309-2" data-name="Path 6309" d="M17.05,8.526A8.525,8.525,0,1,1,8.525,0,8.526,8.526,0,0,1,17.05,8.526Z" transform="matrix(0.966, 0.259, -0.259, 0.966, 99.129, 112.456)" fill="#fff" stroke="#8d4c82" stroke-linecap="round" stroke-miterlimit="10" stroke-width="1.5" stroke-dasharray="2 3"/>
          <g id="Group_126-2" data-name="Group 126" transform="translate(125.771 112.956)">
            <path id="Path_6303-15" data-name="Path 6303" d="M17.05,8.526A8.525,8.525,0,1,1,8.525,0,8.526,8.526,0,0,1,17.05,8.526Z" transform="matrix(0.966, 0.259, -0.259, 0.966, 4.413, 0)" fill="#fff" stroke="#8d4c82" stroke-miterlimit="10" stroke-width="1.5"/>
            <path id="Path_6304-14" data-name="Path 6304" d="M17.05,8.526A8.525,8.525,0,1,1,8.525,0,8.526,8.526,0,0,1,17.05,8.526Z" transform="matrix(0.966, 0.259, -0.259, 0.966, 50.599, 0)" fill="#fff" stroke="#8d4c82" stroke-miterlimit="10" stroke-width="1.5"/>
          </g>
          <g id="Group_120-2" data-name="Group 120" transform="translate(0 112.956)">
            <path id="Path_6303-16" data-name="Path 6303" d="M17.05,8.526A8.525,8.525,0,1,1,8.525,0,8.526,8.526,0,0,1,17.05,8.526Z" transform="matrix(0.966, 0.259, -0.259, 0.966, 4.413, 0)" fill="#fff" stroke="#8d4c82" stroke-miterlimit="10" stroke-width="1.5"/>
          </g>
        </g>
        <g id="Group_117-2" data-name="Group 117" transform="translate(124.535 27.016) rotate(135)">
          <g id="Group_73-63" data-name="Group 73" transform="translate(0 0)">
            <line id="Line_114-63" data-name="Line 114" y2="15.533" transform="translate(5.64 0.784)" fill="none" stroke="#8d4c82" stroke-miterlimit="10" stroke-width="1.5"/>
            <path id="Path_6135-63" data-name="Path 6135" d="M11.279,5.639,5.64,0,0,5.639" transform="translate(0 0)" fill="none" stroke="#8d4c82" stroke-miterlimit="10" stroke-width="1.5"/>
          </g>
        </g>
        <g id="Group_125-2" data-name="Group 125" transform="translate(104.61 106.706) rotate(135)">
          <g id="Group_73-64" data-name="Group 73" transform="translate(0 0)">
            <line id="Line_114-64" data-name="Line 114" y2="15.533" transform="translate(5.64 0.784)" fill="none" stroke="#8d4c82" stroke-miterlimit="10" stroke-width="1.5"/>
            <path id="Path_6135-64" data-name="Path 6135" d="M11.279,5.639,5.64,0,0,5.639" transform="translate(0 0)" fill="none" stroke="#8d4c82" stroke-miterlimit="10" stroke-width="1.5"/>
          </g>
        </g>
        <g id="Group_116-2" data-name="Group 116" transform="translate(81.701 15.478) rotate(45)">
          <g id="Group_73-65" data-name="Group 73" transform="translate(0 0)">
            <line id="Line_114-65" data-name="Line 114" y1="15.533" transform="translate(5.64 0)" fill="none" stroke="#8d4c82" stroke-miterlimit="10" stroke-width="1.5"/>
            <path id="Path_6135-65" data-name="Path 6135" d="M11.279,0,5.64,5.639,0,0" transform="translate(0 10.678)" fill="none" stroke="#8d4c82" stroke-miterlimit="10" stroke-width="1.5"/>
          </g>
        </g>
        <g id="Group_122-2" data-name="Group 122" transform="translate(112.111 54.498)">
          <g id="Group_105-6" data-name="Group 105" transform="translate(45.286 11.538) rotate(135)">
            <g id="Group_73-66" data-name="Group 73" transform="translate(0 0)">
              <line id="Line_114-66" data-name="Line 114" y2="15.533" transform="translate(5.64 0.784)" fill="none" stroke="#8d4c82" stroke-miterlimit="10" stroke-width="1.5"/>
              <path id="Path_6135-66" data-name="Path 6135" d="M11.279,5.639,5.64,0,0,5.639" transform="translate(0 0)" fill="none" stroke="#8d4c82" stroke-miterlimit="10" stroke-width="1.5"/>
            </g>
          </g>
          <g id="Group_106-6" data-name="Group 106" transform="translate(11.538 0) rotate(45)">
            <g id="Group_73-67" data-name="Group 73" transform="translate(0 0)">
              <line id="Line_114-67" data-name="Line 114" y1="15.533" transform="translate(5.64 0)" fill="none" stroke="#8d4c82" stroke-miterlimit="10" stroke-width="1.5"/>
              <path id="Path_6135-67" data-name="Path 6135" d="M11.279,0,5.64,5.639,0,0" transform="translate(0 10.678)" fill="none" stroke="#8d4c82" stroke-miterlimit="10" stroke-width="1.5"/>
            </g>
          </g>
        </g>
        <g id="Group_123-2" data-name="Group 123" transform="translate(35.383 54.498)">
          <g id="Group_109-13" data-name="Group 109" transform="translate(45.285 11.538) rotate(135)">
            <g id="Group_73-68" data-name="Group 73" transform="translate(0 0)">
              <line id="Line_114-68" data-name="Line 114" y2="15.533" transform="translate(5.64 0.784)" fill="none" stroke="#8d4c82" stroke-miterlimit="10" stroke-width="1.5"/>
              <path id="Path_6135-68" data-name="Path 6135" d="M11.279,5.639,5.64,0,0,5.639" transform="translate(0 0)" fill="none" stroke="#8d4c82" stroke-miterlimit="10" stroke-width="1.5"/>
            </g>
          </g>
          <g id="Group_108-14" data-name="Group 108" transform="translate(11.538 0) rotate(45)">
            <g id="Group_73-69" data-name="Group 73" transform="translate(0 0)">
              <line id="Line_114-69" data-name="Line 114" y1="15.533" transform="translate(5.64 0)" fill="none" stroke="#8d4c82" stroke-miterlimit="10" stroke-width="1.5"/>
              <path id="Path_6135-69" data-name="Path 6135" d="M11.279,0,5.64,5.639,0,0" transform="translate(0 10.678)" fill="none" stroke="#8d4c82" stroke-miterlimit="10" stroke-width="1.5"/>
            </g>
          </g>
        </g>
        <g id="Group_127-2" data-name="Group 127" transform="translate(136.292 93.253)">
          <g id="Group_109-14" data-name="Group 109" transform="translate(45.285 11.538) rotate(135)">
            <g id="Group_73-70" data-name="Group 73" transform="translate(0 0)">
              <line id="Line_114-70" data-name="Line 114" y2="15.533" transform="translate(5.64 0.784)" fill="none" stroke="#8d4c82" stroke-miterlimit="10" stroke-width="1.5"/>
              <path id="Path_6135-70" data-name="Path 6135" d="M11.279,5.639,5.64,0,0,5.639" transform="translate(0 0)" fill="none" stroke="#8d4c82" stroke-miterlimit="10" stroke-width="1.5"/>
            </g>
          </g>
          <g id="Group_108-15" data-name="Group 108" transform="translate(11.538 0) rotate(45)">
            <g id="Group_73-71" data-name="Group 73" transform="translate(0 0)">
              <line id="Line_114-71" data-name="Line 114" y1="15.533" transform="translate(5.64 0)" fill="none" stroke="#8d4c82" stroke-miterlimit="10" stroke-width="1.5"/>
              <path id="Path_6135-71" data-name="Path 6135" d="M11.279,0,5.64,5.639,0,0" transform="translate(0 10.678)" fill="none" stroke="#8d4c82" stroke-miterlimit="10" stroke-width="1.5"/>
            </g>
          </g>
        </g>
        <g id="Group_124-2" data-name="Group 124" transform="translate(10.52 92.295)">
          <g id="Group_108-16" data-name="Group 108" transform="translate(11.538 0) rotate(45)">
            <g id="Group_73-72" data-name="Group 73" transform="translate(0 0)">
              <line id="Line_114-72" data-name="Line 114" y1="15.533" transform="translate(5.64 0)" fill="none" stroke="#8d4c82" stroke-miterlimit="10" stroke-width="1.5"/>
              <path id="Path_6135-72" data-name="Path 6135" d="M11.279,0,5.64,5.639,0,0" transform="translate(0 10.678)" fill="none" stroke="#8d4c82" stroke-miterlimit="10" stroke-width="1.5"/>
            </g>
          </g>
        </g>
      </g>
      </g>

      <g data-ag="art3-tree-2">
      <g id="tree_3" data-name="tree 3" transform="translate(-10727.547 -11945.956)">
        <path id="Path_6310-2" data-name="Path 6310" d="M209.6,13.026A8.525,8.525,0,1,1,201.075,4.5,8.526,8.526,0,0,1,209.6,13.026Z" transform="translate(-104.722 -4.5)" fill="#fff" stroke="#37598e" stroke-linecap="round" stroke-miterlimit="10" stroke-width="1.5" stroke-dasharray="2 3"/>
        <g id="Group_940-2" data-name="Group 940">
          <path id="Path_6311-2" data-name="Path 6311" d="M17.05,8.526A8.525,8.525,0,1,1,8.525,0,8.526,8.526,0,0,1,17.05,8.526Z" transform="matrix(0.966, 0.259, -0.259, 0.966, 50.632, 35.456)" fill="#fff" stroke="#37598e" stroke-linecap="round" stroke-miterlimit="10" stroke-width="1.5" stroke-dasharray="2 3"/>
          <path id="Path_6312-2" data-name="Path 6312" d="M17.05,8.526A8.525,8.525,0,1,1,8.525,0,8.526,8.526,0,0,1,17.05,8.526Z" transform="matrix(0.966, 0.259, -0.259, 0.966, 126.74, 35.456)" fill="#fff" stroke="#37598e" stroke-linecap="round" stroke-miterlimit="10" stroke-width="1.5" stroke-dasharray="2 3"/>
        </g>
        <g id="Group_941-2" data-name="Group 941">
          <g id="Group_129-2" data-name="Group 129" transform="translate(99.742 73.956)">
            <path id="Path_6300-5" data-name="Path 6300" d="M17.05,8.526A8.525,8.525,0,1,1,8.525,0,8.526,8.526,0,0,1,17.05,8.526Z" transform="matrix(0.966, 0.259, -0.259, 0.966, 4.413, 0)" fill="#fff" stroke="#37598e" stroke-miterlimit="10" stroke-width="1.5"/>
            <path id="Path_6301-5" data-name="Path 6301" d="M17.05,8.526A8.525,8.525,0,1,1,8.525,0,8.526,8.526,0,0,1,17.05,8.526Z" transform="matrix(0.966, 0.259, -0.259, 0.966, 50.599, 0)" fill="#fff" stroke="#37598e" stroke-linecap="round" stroke-miterlimit="10" stroke-width="1.5" stroke-dasharray="2 3"/>
          </g>
          <g id="Group_130-2" data-name="Group 130" transform="translate(21.776 73.956)">
            <path id="Path_6303-11" data-name="Path 6303" d="M17.05,8.526A8.525,8.525,0,1,1,8.525,0,8.526,8.526,0,0,1,17.05,8.526Z" transform="matrix(0.966, 0.259, -0.259, 0.966, 4.413, 0)" fill="#fff" stroke="#37598e" stroke-miterlimit="10" stroke-width="1.5"/>
            <path id="Path_6304-10" data-name="Path 6304" d="M17.05,8.526A8.525,8.525,0,1,1,8.525,0,8.526,8.526,0,0,1,17.05,8.526Z" transform="matrix(0.966, 0.259, -0.259, 0.966, 50.599, 0)" fill="#fff" stroke="#37598e" stroke-miterlimit="10" stroke-width="1.5"/>
          </g>
        </g>
        <g id="Group_138-2" data-name="Group 138" transform="translate(0 112.957)">
          <path id="Path_6303-12" data-name="Path 6303" d="M17.05,8.526A8.525,8.525,0,1,1,8.525,0,8.526,8.526,0,0,1,17.05,8.526Z" transform="matrix(0.966, 0.259, -0.259, 0.966, 4.413, 0)" fill="#fff" stroke="#37598e" stroke-miterlimit="10" stroke-width="1.5"/>
          <path id="Path_6304-11" data-name="Path 6304" d="M17.05,8.526A8.525,8.525,0,1,1,8.525,0,8.526,8.526,0,0,1,17.05,8.526Z" transform="matrix(0.966, 0.259, -0.259, 0.966, 50.599, 0)" fill="#fff" stroke="#37598e" stroke-miterlimit="10" stroke-width="1.5"/>
        </g>
        <g id="Group_128-2" data-name="Group 128" transform="translate(123.923 112.956)">
          <path id="Path_6303-13" data-name="Path 6303" d="M17.05,8.526A8.525,8.525,0,1,1,8.525,0,8.526,8.526,0,0,1,17.05,8.526Z" transform="matrix(0.966, 0.259, -0.259, 0.966, 4.413, 0)" fill="#fff" stroke="#37598e" stroke-linecap="round" stroke-miterlimit="10" stroke-width="1.5" stroke-dasharray="2 3"/>
          <path id="Path_6304-12" data-name="Path 6304" d="M17.05,8.526A8.525,8.525,0,1,1,8.525,0,8.526,8.526,0,0,1,17.05,8.526Z" transform="matrix(0.966, 0.259, -0.259, 0.966, 50.599, 0)" fill="#fff" stroke="#37598e" stroke-miterlimit="10" stroke-width="1.5"/>
        </g>
        <g id="Group_132-2" data-name="Group 132" transform="translate(122.686 27.016) rotate(135)">
          <g id="Group_73-53" data-name="Group 73" transform="translate(0 0)">
            <line id="Line_114-53" data-name="Line 114" y2="15.533" transform="translate(5.64 0.784)" fill="none" stroke="#37598e" stroke-miterlimit="10" stroke-width="1.5"/>
            <path id="Path_6135-53" data-name="Path 6135" d="M11.279,5.639,5.64,0,0,5.639" transform="translate(0 0)" fill="none" stroke="#37598e" stroke-miterlimit="10" stroke-width="1.5"/>
          </g>
        </g>
        <g id="Group_134-2" data-name="Group 134" transform="translate(79.852 15.478) rotate(45)">
          <g id="Group_73-54" data-name="Group 73" transform="translate(0 0)">
            <line id="Line_114-54" data-name="Line 114" y1="15.533" transform="translate(5.64 0)" fill="none" stroke="#37598e" stroke-miterlimit="10" stroke-width="1.5"/>
            <path id="Path_6135-54" data-name="Path 6135" d="M11.279,0,5.64,5.639,0,0" transform="translate(0 10.678)" fill="none" stroke="#37598e" stroke-miterlimit="10" stroke-width="1.5"/>
          </g>
        </g>
        <g id="Group_135-2" data-name="Group 135" transform="translate(110.262 54.498)">
          <g id="Group_105-5" data-name="Group 105" transform="translate(45.286 11.538) rotate(135)">
            <g id="Group_73-55" data-name="Group 73" transform="translate(0 0)">
              <line id="Line_114-55" data-name="Line 114" y2="15.533" transform="translate(5.64 0.784)" fill="none" stroke="#37598e" stroke-miterlimit="10" stroke-width="1.5"/>
              <path id="Path_6135-55" data-name="Path 6135" d="M11.279,5.639,5.64,0,0,5.639" transform="translate(0 0)" fill="none" stroke="#37598e" stroke-miterlimit="10" stroke-width="1.5"/>
            </g>
          </g>
          <g id="Group_106-5" data-name="Group 106" transform="translate(11.538 0) rotate(45)">
            <g id="Group_73-56" data-name="Group 73" transform="translate(0 0)">
              <line id="Line_114-56" data-name="Line 114" y1="15.533" transform="translate(5.64 0)" fill="none" stroke="#37598e" stroke-miterlimit="10" stroke-width="1.5"/>
              <path id="Path_6135-56" data-name="Path 6135" d="M11.279,0,5.64,5.639,0,0" transform="translate(0 10.678)" fill="none" stroke="#37598e" stroke-miterlimit="10" stroke-width="1.5"/>
            </g>
          </g>
        </g>
        <g id="Group_136-2" data-name="Group 136" transform="translate(33.535 54.498)">
          <g id="Group_109-10" data-name="Group 109" transform="translate(45.285 11.538) rotate(135)">
            <g id="Group_73-57" data-name="Group 73" transform="translate(0 0)">
              <line id="Line_114-57" data-name="Line 114" y2="15.533" transform="translate(5.64 0.784)" fill="none" stroke="#37598e" stroke-miterlimit="10" stroke-width="1.5"/>
              <path id="Path_6135-57" data-name="Path 6135" d="M11.279,5.639,5.64,0,0,5.639" transform="translate(0 0)" fill="none" stroke="#37598e" stroke-miterlimit="10" stroke-width="1.5"/>
            </g>
          </g>
          <g id="Group_108-11" data-name="Group 108" transform="translate(11.538 0) rotate(45)">
            <g id="Group_73-58" data-name="Group 73" transform="translate(0 0)">
              <line id="Line_114-58" data-name="Line 114" y1="15.533" transform="translate(5.64 0)" fill="none" stroke="#37598e" stroke-miterlimit="10" stroke-width="1.5"/>
              <path id="Path_6135-58" data-name="Path 6135" d="M11.279,0,5.64,5.639,0,0" transform="translate(0 10.678)" fill="none" stroke="#37598e" stroke-miterlimit="10" stroke-width="1.5"/>
            </g>
          </g>
        </g>
        <g id="Group_139-2" data-name="Group 139" transform="translate(9.519 95.169)">
          <g id="Group_109-11" data-name="Group 109" transform="translate(45.285 11.538) rotate(135)">
            <g id="Group_73-59" data-name="Group 73" transform="translate(0 0)">
              <line id="Line_114-59" data-name="Line 114" y2="15.533" transform="translate(5.64 0.784)" fill="none" stroke="#37598e" stroke-miterlimit="10" stroke-width="1.5"/>
              <path id="Path_6135-59" data-name="Path 6135" d="M11.279,5.639,5.64,0,0,5.639" transform="translate(0 0)" fill="none" stroke="#37598e" stroke-miterlimit="10" stroke-width="1.5"/>
            </g>
          </g>
          <g id="Group_108-12" data-name="Group 108" transform="translate(11.538 0) rotate(45)">
            <g id="Group_73-60" data-name="Group 73" transform="translate(0 0)">
              <line id="Line_114-60" data-name="Line 114" y1="15.533" transform="translate(5.64 0)" fill="none" stroke="#37598e" stroke-miterlimit="10" stroke-width="1.5"/>
              <path id="Path_6135-60" data-name="Path 6135" d="M11.279,0,5.64,5.639,0,0" transform="translate(0 10.678)" fill="none" stroke="#37598e" stroke-miterlimit="10" stroke-width="1.5"/>
            </g>
          </g>
        </g>
        <g id="Group_137-2" data-name="Group 137" transform="translate(134.444 93.253)">
          <g id="Group_109-12" data-name="Group 109" transform="translate(45.285 11.538) rotate(135)">
            <g id="Group_73-61" data-name="Group 73" transform="translate(0 0)">
              <line id="Line_114-61" data-name="Line 114" y2="15.533" transform="translate(5.64 0.784)" fill="none" stroke="#37598e" stroke-miterlimit="10" stroke-width="1.5"/>
              <path id="Path_6135-61" data-name="Path 6135" d="M11.279,5.639,5.64,0,0,5.639" transform="translate(0 0)" fill="none" stroke="#37598e" stroke-miterlimit="10" stroke-width="1.5"/>
            </g>
          </g>
          <g id="Group_108-13" data-name="Group 108" transform="translate(11.538 0) rotate(45)">
            <g id="Group_73-62" data-name="Group 73" transform="translate(0 0)">
              <line id="Line_114-62" data-name="Line 114" y1="15.533" transform="translate(5.64 0)" fill="none" stroke="#37598e" stroke-miterlimit="10" stroke-width="1.5"/>
              <path id="Path_6135-62" data-name="Path 6135" d="M11.279,0,5.64,5.639,0,0" transform="translate(0 10.678)" fill="none" stroke="#37598e" stroke-miterlimit="10" stroke-width="1.5"/>
            </g>
          </g>
        </g>
      </g>
      </g>

    </g>
    </g>
  </svg>
  