<svg id="Group_29138" data-name="Group 29138" xmlns="http://www.w3.org/2000/svg" width="27.793" height="27.796" viewBox="0 0 27.793 27.796">
  <g id="Group_29139" data-name="Group 29139" transform="translate(0 0)">
    <path id="Path_50576" data-name="Path 50576" d="M20.322,71.685a7.028,7.028,0,0,0-1.8,4.091,2.1,2.1,0,0,1-.254.853A7.375,7.375,0,0,1,15.2,79.236l.983-1.872A2.374,2.374,0,0,0,15.04,74.09a2.413,2.413,0,0,0-3.094,1.123L10.9,77.2a6.645,6.645,0,0,1,.573-3.8,2.662,2.662,0,0,1,2.342-1.518,7.384,7.384,0,0,0,5.223-2.106l1.112-1.112a.5.5,0,0,0-.7-.7l-1.112,1.112a6.42,6.42,0,0,1-4.558,1.816,3.661,3.661,0,0,0-3.21,2.1,6.982,6.982,0,0,0-.246,5.752.5.5,0,0,0,.883.009l1.62-3.083A1.417,1.417,0,0,1,14.636,75,1.38,1.38,0,0,1,15.3,76.9l-1.65,3.14a.5.5,0,0,0,.606.7c.146-.055,3.618-1.307,4.888-3.638a3.079,3.079,0,0,0,.372-1.254,6.03,6.03,0,0,1,1.548-3.505.5.5,0,1,0-.743-.659" transform="translate(-9.378 -52.974)" fill="#017373"/>
    <path id="Path_50577" data-name="Path 50577" d="M68.286,18.862a4.686,4.686,0,0,0,1.292-4.205,2.681,2.681,0,0,1,.274-1.814A9.385,9.385,0,0,1,73.9,9.509l-1.3,2.475a2.81,2.81,0,0,0,.966,3.71,2.763,2.763,0,0,0,3.89-1.071l1.441-2.742a8,8,0,0,1-.648,4.948A3.044,3.044,0,0,1,75.28,18.58h-.016a9,9,0,0,0-3.423.561.5.5,0,1,0,.369.921,8.028,8.028,0,0,1,3-.489h.068a4,4,0,0,0,3.87-2.337,8.325,8.325,0,0,0,.3-6.857.5.5,0,0,0-.883-.009l-1.992,3.791a1.769,1.769,0,0,1-2.494.685,1.815,1.815,0,0,1-.6-2.4l1.956-3.722a.5.5,0,0,0-.606-.7c-.176.063-4.33,1.564-5.845,4.344a3.665,3.665,0,0,0-.377,2.477,3.694,3.694,0,0,1-1.019,3.315.5.5,0,0,0,.7.7" transform="translate(-52.688 -7.994)" fill="#017373"/>
    <path id="Path_50578" data-name="Path 50578" d="M34.632,29.018l-5.326-5.326a1.986,1.986,0,0,0-1.916-.513l-.729-.729a1.984,1.984,0,0,0-3.319-1.916L16.3,13.49,15.632,11.5a.5.5,0,0,0-.188-.251L10.883,8.088a.5.5,0,0,0-.633.057l-2.1,2.1a.5.5,0,0,0-.057.633l3.157,4.561a.5.5,0,0,0,.251.188l1.994.665,7.045,7.044a1.984,1.984,0,0,0,1.916,3.319l.729.729a1.987,1.987,0,0,0,.513,1.916l5.326,5.326a3.969,3.969,0,0,0,5.613-5.613M13.915,15.392l-1.948-.649L9.14,10.659,10.659,9.14l4.084,2.827.649,1.948a.493.493,0,0,0,.12.194l7.127,7.128-1.4,1.4-7.128-7.127a.493.493,0,0,0-.194-.12M33.93,33.93a2.98,2.98,0,0,1-4.21,0L24.394,28.6a.994.994,0,0,1-.193-1.128.5.5,0,0,0-.1-.565l-1.175-1.175a.518.518,0,0,0-.565-.1.991.991,0,0,1-1.128-1.6l2.807-2.806a.991.991,0,0,1,1.6,1.128.5.5,0,0,0,.1.565L26.91,24.1a.5.5,0,0,0,.565.1.994.994,0,0,1,1.128.193L33.93,29.72a2.98,2.98,0,0,1,0,4.21" transform="translate(-8 -7.998)" fill="#017373"/>
  </g>
</svg>
