<svg id="Group_29142" data-name="Group 29142" xmlns="http://www.w3.org/2000/svg" width="37.039" height="27.148" viewBox="0 0 37.039 27.148">
  <path id="Path_50579" data-name="Path 50579" d="M80,52.577V58.75a.618.618,0,0,0,.617.617h4.938a.617.617,0,0,0,.617-.617V52.577a.617.617,0,0,0-.617-.617H80.619a.617.617,0,0,0-.617.617m1.235.617h3.7v4.938h-3.7Z" transform="translate(-55.31 -35.923)" fill="#017373"/>
  <path id="Path_50580" data-name="Path 50580" d="M36.889,11.314,29.482,2.672a.617.617,0,0,0-.469-.215H20.76L19,.223a.639.639,0,0,0-.971,0L16.279,2.456H8.026a.618.618,0,0,0-.469.215L.149,11.314a.618.618,0,0,0,.469,1.019H2.47v14.2a.617.617,0,0,0,.617.617H33.952a.617.617,0,0,0,.617-.617v-14.2h1.852a.618.618,0,0,0,.469-1.019M8.31,3.691h7L9.489,11.1H1.96Zm7.741,13.58h4.938v8.642H16.05Zm17.284,8.642H22.223V16.654a.617.617,0,0,0-.617-.617H15.433a.617.617,0,0,0-.617.617v9.259H3.7V12.333H8.519l-.263.335a.617.617,0,1,0,.971.763L18.52,1.6l9.292,11.827a.617.617,0,1,0,.971-.763l-.263-.335h4.815ZM27.55,11.1,21.73,3.691h7L35.079,11.1Z" transform="translate(0 0)" fill="#017373"/>
  <path id="Path_50581" data-name="Path 50581" d="M25.558,51.96H20.619a.617.617,0,0,0-.617.617V58.75a.618.618,0,0,0,.617.617h4.938a.617.617,0,0,0,.617-.617V52.577a.617.617,0,0,0-.617-.617m-.617,6.173h-3.7V53.195h3.7Z" transform="translate(-13.829 -35.923)" fill="#017373"/>
  <path id="Path_50582" data-name="Path 50582" d="M52.4,21.96a3.4,3.4,0,1,0,3.4,3.4,3.4,3.4,0,0,0-3.4-3.4m0,5.556a2.161,2.161,0,1,1,2.16-2.161,2.163,2.163,0,0,1-2.16,2.161" transform="translate(-33.878 -15.182)" fill="#017373"/>
</svg>
