<svg id="Group_29124" data-name="Group 29124" xmlns="http://www.w3.org/2000/svg" width="34.569" height="35.187" viewBox="0 0 34.569 35.187">
  <path id="Path_50568" data-name="Path 50568" d="M40.718,22.668a.617.617,0,0,0,.617-.617V18.964h.617a.617.617,0,0,0,.617-.617V14.728a.617.617,0,0,0-.347-.555L25.555,6.063a.617.617,0,0,0-.54,0L8.347,14.173A.617.617,0,0,0,8,14.728v3.618a.618.618,0,0,0,.617.617h.617V22.05a.618.618,0,0,0,.617.617h.617v9.877H9.852a.617.617,0,0,0-.617.617v3.087H8.617A.617.617,0,0,0,8,36.866v3.7a.618.618,0,0,0,.617.617H41.952a.617.617,0,0,0,.617-.617v-3.7a.617.617,0,0,0-.617-.617h-.617V33.162a.617.617,0,0,0-.617-.617H40.1V22.668ZM40.1,21.433H35.162V18.964H40.1ZM34.544,32.545a.617.617,0,0,0-.617.617v3.087H28.989V33.162a.617.617,0,0,0-.617-.617h-.617V22.668h.617a.617.617,0,0,0,.617-.617V18.964h4.938V22.05a.618.618,0,0,0,.617.617h.617v9.877ZM22.815,33.779h4.938v2.469H22.815Zm-6.173,2.469V33.162a.617.617,0,0,0-.617-.617h-.617V22.668h.617a.617.617,0,0,0,.617-.617V18.964h4.938V22.05a.618.618,0,0,0,.617.617h.617v9.877H22.2a.617.617,0,0,0-.617.617v3.087ZM24.05,22.668h2.469v9.877H24.05Zm-1.235-3.7h4.938v2.469H22.815ZM9.235,15.114,25.285,7.3l16.05,7.811v2.615H9.235Zm6.173,6.318H10.469V18.964h4.938Zm-3.7,1.235h2.469v9.877H11.7ZM10.469,33.779h4.938v2.469H10.469Zm30.866,6.173H9.235V37.483h32.1Zm-6.173-6.173H40.1v2.469H35.162Zm3.7-1.235H36.4V22.668h2.469Z" transform="translate(-8 -6)" fill="#017373"/>
</svg>
