<svg id="Group_29126" data-name="Group 29126" xmlns="http://www.w3.org/2000/svg" width="34.569" height="32.03" viewBox="0 0 34.569 32.03">
  <path id="Path_50569" data-name="Path 50569" d="M32.9,17.324A6.93,6.93,0,0,0,24.8,10.788,8.823,8.823,0,0,0,7.908,11.88,6.8,6.8,0,0,0,.861,18.7c0,3.961,2.5,6.836,5.947,6.836H9.386v3.888a2.738,2.738,0,1,0,1.1,0V25.532H17.6v6.078a2.738,2.738,0,1,0,1.1,0V25.532h7.118v3.888a2.738,2.738,0,1,0,1.1,0V25.532h4.467a4.147,4.147,0,0,0,4.057-4.3A4.28,4.28,0,0,0,32.9,17.324M11.576,32.1a1.643,1.643,0,1,1-1.643-1.643A1.644,1.644,0,0,1,11.576,32.1m8.213,2.19a1.643,1.643,0,1,1-1.643-1.643,1.644,1.644,0,0,1,1.643,1.643M28,32.1a1.643,1.643,0,1,1-1.643-1.643A1.644,1.644,0,0,1,28,32.1m3.372-7.665H26.906V22.175a2.19,2.19,0,1,0-1.1,0v2.262H18.693V21.08a2.19,2.19,0,1,0-1.1,0v3.357H10.481V22.175a2.19,2.19,0,1,0-1.1,0v2.262H6.808c-2.856,0-4.852-2.361-4.852-5.741A5.694,5.694,0,0,1,8.285,13.01a.548.548,0,0,0,.6-.451,7.731,7.731,0,0,1,15.027-.971.548.548,0,0,0,.658.369,5.842,5.842,0,0,1,7.245,5.678.624.624,0,0,0,.368.581,3.182,3.182,0,0,1,2.149,3.019,3.032,3.032,0,0,1-2.962,3.2m-5.015-3.285a1.1,1.1,0,1,1,1.1-1.1,1.1,1.1,0,0,1-1.1,1.1m-8.213-1.1a1.1,1.1,0,1,1,1.1-1.1,1.1,1.1,0,0,1-1.1,1.1m-8.213,1.1a1.1,1.1,0,1,1,1.1-1.1,1.1,1.1,0,0,1-1.1,1.1" transform="translate(-0.861 -5)" fill="#017373"/>
</svg>
