<svg id="Group_29128" data-name="Group 29128" xmlns="http://www.w3.org/2000/svg" width="34.569" height="33.335" viewBox="0 0 34.569 33.335">
  <path id="Path_50570" data-name="Path 50570" d="M34.569,14.815a3.7,3.7,0,0,0-3.829-3.7L19.832,4.451a2.776,2.776,0,0,0-5.254.487H12A5.766,5.766,0,0,0,6.173,0H.617A.617.617,0,0,0,0,.617V3.087a.617.617,0,0,0,.508.607l5.322.959a.94.94,0,0,1,.513.9.933.933,0,0,1-.527.908L.475,7.733a.618.618,0,0,0-.475.6v2.161a.618.618,0,0,0,.617.617H6.173A5.766,5.766,0,0,0,12,6.173h2.579a2.781,2.781,0,0,0,2.706,2.161c.032,0,.064,0,.1,0l7.514,5.635L6.388,18.524a4.318,4.318,0,0,0-3.918,5.911V28.4H.617A.617.617,0,0,0,0,29.014v3.7a.618.618,0,0,0,.617.617h32.1a.617.617,0,0,0,.617-.617v-3.7a.617.617,0,0,0-.617-.617H28.726a11.454,11.454,0,0,0-5.694-7.156l7.954-2.727a3.705,3.705,0,0,0,3.583-3.7M10.579,24.2a4.3,4.3,0,0,0-1.777-5l18.367-4.525a3.684,3.684,0,0,0,1.7,3.257Zm22.756-9.389a2.469,2.469,0,1,1-2.469-2.469,2.472,2.472,0,0,1,2.469,2.469M6.173,9.877H1.235V8.821l4.9-1.164a.514.514,0,0,0,.053-.015A2.121,2.121,0,0,0,7.578,5.556,2.121,2.121,0,0,0,6.185,3.469.583.583,0,0,0,6.1,3.447L1.235,2.57V1.235H6.173A4.544,4.544,0,0,1,10.8,5.556a4.544,4.544,0,0,1-4.63,4.321m9.568-4.321A1.543,1.543,0,1,1,17.285,7.1a1.545,1.545,0,0,1-1.543-1.543m3.082,2.311a2.781,2.781,0,0,0,1.2-1.853L29.1,11.561a3.729,3.729,0,0,0-1.623,1.767l-1.032.254ZM6.482,19.754A3.087,3.087,0,1,1,3.4,22.841a3.09,3.09,0,0,1,3.087-3.087M32.1,32.1H1.235V29.631H32.1ZM21.4,21.88A10.011,10.011,0,0,1,27.447,28.4H3.7V26.146a4.306,4.306,0,0,0,5.868-.29L21.284,21.84l.119.04" transform="translate(0)" fill="#017373"/>
</svg>
