<svg xmlns="http://www.w3.org/2000/svg" xmlns:xlink="http://www.w3.org/1999/xlink" width="34" height="31" viewBox="0 0 34 31">
  <defs>
    <clipPath id="clip-path">
      <rect id="Rectangle_24467" data-name="Rectangle 24467" width="34" height="31" transform="translate(0 -0.153)" fill="#017373"/>
    </clipPath>
  </defs>
  <g id="Group_29144" data-name="Group 29144" transform="translate(0 0.153)" clip-path="url(#clip-path)">
    <path id="Path_50583" data-name="Path 50583" d="M10.085,35A10.085,10.085,0,1,0,20.17,45.085,10.1,10.1,0,0,0,10.085,35m0,18.984a8.9,8.9,0,1,1,8.9-8.9,8.909,8.909,0,0,1-8.9,8.9" transform="translate(-0.334 -24.694)" fill="#017373"/>
    <path id="Path_50584" data-name="Path 50584" d="M25.8,51.7c-1.5-.585-2.412-1.006-2.412-1.921a1.952,1.952,0,0,1,2.19-1.8c.78,0,2.1.355,2.1,1.685a.593.593,0,1,0,1.186,0,2.92,2.92,0,0,0-2.849-2.845v-.907a.593.593,0,1,0-1.186,0v.952a2.959,2.959,0,0,0-2.627,2.91c0,1.792,1.683,2.448,3.168,3.026,1.539.6,2.474,1.034,2.474,2.007a1.666,1.666,0,0,1-.672,1.4,2.757,2.757,0,0,1-1.657.5c-1.249,0-2.514-.68-2.514-1.98a.593.593,0,1,0-1.186,0,3.214,3.214,0,0,0,3.014,3.116v.931a.593.593,0,0,0,1.186,0v-.911a3.788,3.788,0,0,0,1.871-.7,2.833,2.833,0,0,0,1.143-2.348c0-1.854-1.716-2.523-3.23-3.113" transform="translate(-15.678 -31.954)" fill="#017373"/>
    <path id="Path_50585" data-name="Path 50585" d="M71.8,15.7c-1.5-.585-2.412-1.006-2.412-1.921a1.951,1.951,0,0,1,2.19-1.8c.78,0,2.1.355,2.1,1.685a.593.593,0,1,0,1.186,0,2.92,2.92,0,0,0-2.849-2.845V9.915a.593.593,0,0,0-1.186,0v.952a2.959,2.959,0,0,0-2.627,2.91c0,1.792,1.683,2.448,3.168,3.026,1.539.6,2.474,1.034,2.474,2.007a1.667,1.667,0,0,1-.672,1.4,2.757,2.757,0,0,1-1.657.5c-1.249,0-2.514-.68-2.514-1.98a.593.593,0,0,0-1.186,0,3.214,3.214,0,0,0,3.015,3.116v.931a.593.593,0,0,0,1.186,0v-.911a3.787,3.787,0,0,0,1.871-.7,2.833,2.833,0,0,0,1.143-2.348c0-1.854-1.716-2.523-3.23-3.113" transform="translate(-48.033 -6.633)" fill="#017373"/>
    <path id="Path_50586" data-name="Path 50586" d="M56.085,0a10.077,10.077,0,0,0-9.826,12.348,7.878,7.878,0,0,1,1.474.81,8.921,8.921,0,1,1,3.1,4.1,8.749,8.749,0,0,1,.411,1.667A10.084,10.084,0,1,0,56.085,0" transform="translate(-32.689 -0.076)" fill="#017373"/>
  </g>
</svg>
