<svg id="Group_29135" data-name="Group 29135" xmlns="http://www.w3.org/2000/svg" width="30.137" height="30.017" viewBox="0 0 30.137 30.017">
  <g id="Group_29136" data-name="Group 29136" transform="translate(0 0)">
    <path id="Path_50574" data-name="Path 50574" d="M8.538,79.835H12V70.766l-3.468-.007a.533.533,0,0,1,0-1.067h0l3.824.008a7.176,7.176,0,0,1,3.159-1.184c2.539-.318,4.43.754,6.264,1.178a18.041,18.041,0,0,0,4.612.228,2.407,2.407,0,0,1,1.986.788l5.495-3.3c.623-.374,2.519-1.511,3.756.137a2.243,2.243,0,0,1-.577,3.332c-1.86,1.395-7.448,5.367-9.632,6.823-2.358,1.572-3.673,2.13-6.353,2.13h-8v.533a.534.534,0,0,1-.533.533h-4a.533.533,0,0,1,0-1.067m12.535-1.067c2.443,0,3.529-.463,5.761-1.951,2.173-1.449,7.733-5.4,9.583-6.789a1.19,1.19,0,0,0,.363-1.838c-.339-.482-1.239-.486-2.354.137l-5.641,3.385a2.928,2.928,0,0,1,.025.388c0,1.779-2.218,2.413-4.293,2.413-1.843,0-5.8.232-5.844.234a.533.533,0,0,1-.062-1.065c.164-.01,4.032-.236,5.906-.236,1.554,0,3.227-.421,3.227-1.347,0-.577-.163-1.111-1.347-1.111-2.68,0-3.732.2-6.389-.7a9.705,9.705,0,0,0-4.355-.712,6.216,6.216,0,0,0-2.582.935v8.26Z" transform="translate(-8.004 -50.885)" fill="#017373"/>
    <path id="Path_50575" data-name="Path 50575" d="M50.7,20.272l-6.934,3.94a.533.533,0,0,1-.527,0L36.3,20.272a.534.534,0,0,1-.27-.464v-7.88a.534.534,0,0,1,.27-.464l6.934-3.94a.532.532,0,0,1,.527,0l6.934,3.94a.534.534,0,0,1,.27.464v7.88a.534.534,0,0,1-.27.464m-.8-7.427-5.857,3.328v6.653L49.9,19.5Zm-6.924,9.993V16.184L37.1,12.844V19.5ZM43.5,8.6l-5.855,3.326L43.5,15.254l5.855-3.327Z" transform="translate(-28.307 -7.454)" fill="#017373"/>
  </g>
</svg>
