<svg xmlns="http://www.w3.org/2000/svg" width="236" height="209.044" viewBox="0 0 236 209.044">
  <g id="Group_29285" data-name="Group 29285" transform="translate(0 49.089)">
    <g id="Group_29286" data-name="Group 29286" transform="translate(0 -3)">
      <path data-ag="g4pie2" id="Path_50596" data-name="Path 50596" d="M159.578,80.47A79.789,79.789,0,1,1,79.789.681,79.789,79.789,0,0,1,159.578,80.47" transform="translate(0 2.696)" fill="#dfdfdf"/>
      <path data-ag="g4pie1" id="Path_50597" data-name="Path 50597" d="M59.3,79.649V0A73.562,73.562,0,0,1,78.567,2.366Z" transform="translate(22.296)" fill="#017373"/>
      <path data-ag="g4pie0" id="Path_50598" data-name="Path 50598" d="M141.356,79.635a62.4,62.4,0,1,1-62.4-62.4,62.4,62.4,0,0,1,62.4,62.4" transform="translate(0.922 3.617)" fill="#f9f9ff"/>
    </g>
  </g>
  <g data-ag="g4pietext0">
  <text fill="#017373" font-size="50" font-family="LexiconD" letter-spacing="0.003em"><tspan x="109" y="39">&lt;4%</tspan></text>
  </g>
  <g data-ag="g4pietext1">
  <g id="Group_29289" data-name="Group 29289" transform="translate(22.684 -261.769)">
    <g data-ag="g4pietext34">
      <text transform="translate(92.316 331.769)" fill="#017373" font-size="16" font-family="LexiconD" letter-spacing="0.002em"><tspan x="0" y="0">Digital Spend</tspan></text>
    </g>
  </g>
  </g>
</svg>
