<svg xmlns="http://www.w3.org/2000/svg" width="547.026" height="398.559" viewBox="0 0 547.026 398.559">
    <g id="Group_48468" data-name="Group 48468" transform="translate(-9346 14352.571)">
      
        <g data-ag="art4-protein0">
            <g id="Group_48465" data-name="Group 48465" transform="translate(-103.73 -3.968)">
            <g id="Amino_acids" data-name="Amino acids" transform="translate(9677.401 -15096.806)">
            <g id="Group_505" data-name="Group 505" transform="translate(-164 747)">
                

                <path data-ag="art4-path" d="M153.78,380.136a439.51,439.51,0,0,0,47.825,3.232c185.051,3.05,236.676-113.288,184.779-200.157-29.332-49.1-73.854-36-145.88-10.876-73.742,25.729-124.568,12.61-167.426-23.111C41.959,123.275,25.623,84.207,25.623,37.1A228.559,228.559,0,0,1,28.444,2" transform="translate(-2.919 -0.228)" fill="none" stroke="#804941" stroke-width="1"/>
                

                <path id="Path_6456" data-name="Path 6456" d="M31.681,47.417,7.921,42.738A7.957,7.957,0,1,1,11,27.124L34.756,31.8a7.957,7.957,0,1,1-3.075,15.614" transform="translate(-0.171 -3.073)" fill="#fff" stroke="#707070" stroke-width="1"/>
                <path id="Path_6457" data-name="Path 6457" d="M31.681,47.417,7.921,42.738A7.957,7.957,0,1,1,11,27.124L34.756,31.8a7.957,7.957,0,1,1-3.075,15.614Z" transform="translate(-0.171 -3.073)" fill="none" stroke="#bc5a1d" stroke-miterlimit="10" stroke-width="1"/>
                <path id="Path_6458" data-name="Path 6458" d="M35.151,29.795,11.391,25.116A7.957,7.957,0,1,1,14.466,9.5l23.759,4.679a7.957,7.957,0,1,1-3.075,15.614" transform="translate(-0.566 -1.065)" fill="#fff" stroke="#707070" stroke-width="1"/>
                <path id="Path_6459" data-name="Path 6459" d="M35.151,29.795,11.391,25.116A7.957,7.957,0,1,1,14.466,9.5l23.759,4.679a7.957,7.957,0,1,1-3.075,15.614Z" transform="translate(-0.566 -1.065)" fill="none" stroke="#bc5a1d" stroke-miterlimit="10" stroke-width="1"/>
                
                <g data-ag="art4-mols">
                <path id="Path_6460" data-name="Path 6460" d="M28.509,85.171h0L4.873,63.431l34.181-8.592Z" transform="translate(-0.555 -6.247)" fill="#fff" stroke="#707070" stroke-width="1"/>
                <path id="Path_6461" data-name="Path 6461" d="M28.509,85.171h0L4.873,63.431l34.181-8.592Z" transform="translate(-0.555 -6.247)" fill="none" stroke="#8d4c82" stroke-miterlimit="10" stroke-width="1"/>
                <path id="Path_6462" data-name="Path 6462" d="M54.4,110.977A15.914,15.914,0,1,1,38.485,95.063,15.914,15.914,0,0,1,54.4,110.977" transform="translate(-2.571 -10.829)" fill="#fff" stroke="#707070" stroke-width="1"/>
                <path id="Path_6463" data-name="Path 6463" d="M54.4,110.977A15.914,15.914,0,1,1,38.485,95.063,15.914,15.914,0,0,1,54.4,110.977Z" transform="translate(-2.571 -10.829)" fill="none" stroke="#335282" stroke-miterlimit="10" stroke-width="1"/>
                <rect id="Rectangle_32552" data-name="Rectangle 32552" width="22.506" height="22.505" transform="matrix(0.679, -0.734, 0.734, 0.679, 41.089, 132.576)" fill="#fff" stroke="#707070" stroke-width="1"/>
                <rect id="Rectangle_32553" data-name="Rectangle 32553" width="22.506" height="22.505" transform="matrix(0.679, -0.734, 0.734, 0.679, 41.089, 132.576)" fill="none" stroke="#bc5a1d" stroke-miterlimit="10" stroke-width="1"/>

                
                
                
                <path id="Path_6466" data-name="Path 6466" d="M105.839,178.576,83.984,186.74a7.666,7.666,0,1,1-5.365-14.363l21.855-8.163a7.665,7.665,0,0,1,5.364,14.362" transform="translate(-8.388 -18.651)" fill="#fff" stroke="#707070" stroke-width="1"/>
                <path id="Path_6467" data-name="Path 6467" d="M105.839,178.576,83.984,186.74a7.666,7.666,0,1,1-5.365-14.363l21.855-8.163a7.665,7.665,0,0,1,5.364,14.362Z" transform="translate(-8.388 -18.651)" fill="none" stroke="#8d4c82" stroke-miterlimit="10" stroke-width="1"/>
                <path id="Path_6468" data-name="Path 6468" d="M90.01,188.206l-8.163-21.853a7.666,7.666,0,1,1,14.363-5.365l8.163,21.855a7.665,7.665,0,1,1-14.362,5.363" transform="translate(-9.268 -17.771)" fill="#fff" stroke="#707070" stroke-width="1"/>
                <path id="Path_6469" data-name="Path 6469" d="M90.01,188.206l-8.163-21.853a7.666,7.666,0,1,1,14.363-5.365l8.163,21.855a7.665,7.665,0,1,1-14.362,5.363Z" transform="translate(-9.268 -17.771)" fill="none" stroke="#8d4c82" stroke-miterlimit="10" stroke-width="1"/>
                
                
                <path id="Path_6464" data-name="Path 6464" d="M147.628,193.44a15.914,15.914,0,1,1-15.914-15.914,15.914,15.914,0,0,1,15.914,15.914" transform="translate(-13.192 -20.223)" fill="#fff" stroke="#707070" stroke-width="1"/>
                <path id="Path_6465" data-name="Path 6465" d="M147.628,193.44a15.914,15.914,0,1,1-15.914-15.914A15.914,15.914,0,0,1,147.628,193.44Z" transform="translate(-13.192 -20.223)" fill="none" stroke="#335282" stroke-miterlimit="10" stroke-width="1"/>
                
                
                <path id="Path_6470" data-name="Path 6470" d="M172.433,187.6l14.149,1.992,7.214,17.086-11.65,14.43L168,219.116l-7.214-17.086Z" transform="translate(-18.316 -21.371)" fill="#fff" stroke="#707070" stroke-width="1"/>
                <path id="Path_6471" data-name="Path 6471" d="M172.433,187.6l14.149,1.992,7.214,17.086-11.65,14.43L168,219.116l-7.214-17.086Z" transform="translate(-18.316 -21.371)" fill="none" stroke="#bc5a1d" stroke-miterlimit="10" stroke-width="1"/>
                

                <path id="Path_6474" data-name="Path 6474" d="M235.032,181.436l-14.347,2.1-2.074.3-14.347,2.1,8.28,14.87L208.88,217.44l14.347-2.1,2.075-.3,14.347-2.1-8.281-14.869Z" transform="translate(-23.269 -20.669)" fill="#fff" stroke="#707070" stroke-width="1"/>
                <path id="Path_6475" data-name="Path 6475" d="M235.032,181.436l-14.347,2.1-2.074.3-14.347,2.1,8.28,14.87L208.88,217.44l14.347-2.1,2.075-.3,14.347-2.1-8.281-14.869Z" transform="translate(-23.269 -20.669)" fill="none" stroke="#8d4c82" stroke-miterlimit="10" stroke-width="1"/>
                <path id="Path_6476" data-name="Path 6476" d="M281.177,187.145a15.914,15.914,0,1,1-20.137-10.05,15.916,15.916,0,0,1,20.137,10.05" transform="translate(-28.498 -20.08)" fill="#fff" stroke="#707070" stroke-width="1"/>
                <path id="Path_6477" data-name="Path 6477" d="M281.177,187.145a15.914,15.914,0,1,1-20.137-10.05A15.916,15.916,0,0,1,281.177,187.145Z" transform="translate(-28.498 -20.08)" fill="none" stroke="#335282" stroke-miterlimit="10" stroke-width="1"/>
                <path id="Path_6478" data-name="Path 6478" d="M298.211,181.453a15.914,15.914,0,1,1-20.138-10.05,15.916,15.916,0,0,1,20.138,10.05" transform="translate(-30.438 -19.432)" fill="#fff" stroke="#707070" stroke-width="1"/>
                <path id="Path_6479" data-name="Path 6479" d="M298.211,181.453a15.914,15.914,0,1,1-20.138-10.05A15.916,15.916,0,0,1,298.211,181.453Z" transform="translate(-30.438 -19.432)" fill="none" stroke="#335282" stroke-miterlimit="10" stroke-width="1"/>
                <path id="Path_6480" data-name="Path 6480" d="M341.879,182.977l-29.816,11.136a31.828,31.828,0,0,1,18.68-40.952Z" transform="translate(-35.319 -17.448)" fill="#fff" stroke="#707070" stroke-width="1"/>
                <path id="Path_6481" data-name="Path 6481" d="M341.879,182.977l-29.816,11.136a31.828,31.828,0,0,1,18.68-40.952Z" transform="translate(-35.319 -17.448)" fill="none" stroke="#bc5a1d" stroke-miterlimit="10" stroke-width="1"/>
                <path id="Path_6482" data-name="Path 6482" d="M414.751,207.09l-24.383-20.456,15.965-7.378,4.491-17,24.383,20.456-15.965,7.378Z" transform="translate(-44.469 -18.483)" fill="#fff" stroke="#707070" stroke-width="1"/>
                <path id="Path_6483" data-name="Path 6483" d="M414.751,207.09l-24.383-20.456,15.965-7.378,4.491-17,24.383,20.456-15.965,7.378Z" transform="translate(-44.469 -18.483)" fill="none" stroke="#335282" stroke-miterlimit="10" stroke-width="1"/>
                <path id="Path_6484" data-name="Path 6484" d="M386.244,167.547a15.914,15.914,0,1,1-15.914-15.914,15.914,15.914,0,0,1,15.914,15.914" transform="translate(-40.374 -17.274)" fill="#fff" stroke="#707070" stroke-width="1"/>
                <path id="Path_6485" data-name="Path 6485" d="M386.244,167.547a15.914,15.914,0,1,1-15.914-15.914A15.914,15.914,0,0,1,386.244,167.547Z" transform="translate(-40.374 -17.274)" fill="none" stroke="#8d4c82" stroke-miterlimit="10" stroke-width="1"/>
                <path id="Path_6486" data-name="Path 6486" d="M459.511,220.022a15.912,15.912,0,0,0-31.682-2.126h-.145v18.04h18.039v-.146a15.913,15.913,0,0,0,13.788-15.768" transform="translate(-48.72 -23.251)" fill="#fff" stroke="#707070" stroke-width="1"/>
                <path id="Path_6487" data-name="Path 6487" d="M459.511,220.022a15.912,15.912,0,0,0-31.682-2.126h-.145v18.04h18.039v-.146A15.913,15.913,0,0,0,459.511,220.022Z" transform="translate(-48.72 -23.251)" fill="none" stroke="#bc5a1d" stroke-miterlimit="10" stroke-width="1"/>
                <path id="Path_6488" data-name="Path 6488" d="M466.6,251.5v31.827l-15.914-7.488-15.913,7.488V251.5l15.913,7.489Z" transform="translate(-49.528 -28.65)" fill="#fff" stroke="#707070" stroke-width="1"/>
                <path id="Path_6489" data-name="Path 6489" d="M466.6,251.5v31.827l-15.914-7.488-15.913,7.488V251.5l15.913,7.489Z" transform="translate(-49.528 -28.65)" fill="none" stroke="#8d4c82" stroke-miterlimit="10" stroke-width="1"/>
                <path id="Path_6490" data-name="Path 6490" d="M430.831,312.305l15.175,2.989,2.194.432,15.175,2.989-4.994-7.954,7.637-5.467L450.843,302.3l-2.194-.432-15.175-2.988-10.8,4.845Z" transform="translate(-48.15 -34.048)" fill="#fff" stroke="#707070" stroke-width="1"/>
                <path id="Path_6491" data-name="Path 6491" d="M430.831,312.305l15.175,2.989,2.194.432,15.175,2.989-4.994-7.954,7.637-5.467L450.843,302.3l-2.194-.432-15.175-2.988-10.8,4.845Z" transform="translate(-48.15 -34.048)" fill="none" stroke="#335282" stroke-miterlimit="10" stroke-width="1"/>
                <path id="Path_6492" data-name="Path 6492" d="M441.551,364.827H409.724A31.827,31.827,0,0,1,441.551,333Z" transform="translate(-46.674 -37.934)" fill="#fff" stroke="#707070" stroke-width="1"/>
                <path id="Path_6493" data-name="Path 6493" d="M441.551,364.827H409.724A31.827,31.827,0,0,1,441.551,333Z" transform="translate(-46.674 -37.934)" fill="none" stroke="#bc5a1d" stroke-miterlimit="10" stroke-width="1"/>
                <path id="Path_6494" data-name="Path 6494" d="M382.583,366.288h0l4.332.4a27.478,27.478,0,0,1,24.854,29.872l-.4,4.331a31.827,31.827,0,0,1-28.789-34.6" transform="translate(-43.567 -41.726)" fill="#fff" stroke="#707070" stroke-width="1"/>
                <path id="Path_6495" data-name="Path 6495" d="M382.583,366.288h0l4.332.4a27.478,27.478,0,0,1,24.854,29.872l-.4,4.331A31.827,31.827,0,0,1,382.583,366.288Z" transform="translate(-43.567 -41.726)" fill="none" stroke="#8d4c82" stroke-miterlimit="10" stroke-width="1"/>
                
                <rect id="Rectangle_32554" data-name="Rectangle 32554" width="22.506" height="22.506" transform="matrix(0.901, -0.435, 0.435, 0.901, 310.123, 357.273)" fill="#fff" stroke="#707070" stroke-width="1"/>
                <rect id="Rectangle_32555" data-name="Rectangle 32555" width="22.506" height="22.506" transform="matrix(0.901, -0.435, 0.435, 0.901, 310.123, 357.273)" fill="none" stroke="#335282" stroke-miterlimit="10" stroke-width="1"/>
                <path id="Path_6472" data-name="Path 6472" d="M310.046,406.78l13.875-3.411,13.048,13.18-5.451,17.728-13.875,3.411L304.6,424.507Z" transform="translate(-34.698 -45.95)" fill="#fff" stroke="#707070" stroke-width="1"/>
                <path id="Path_6473" data-name="Path 6473" d="M310.046,406.78l13.875-3.411,13.048,13.18-5.451,17.728-13.875,3.411L304.6,424.507Z" transform="translate(-34.698 -45.95)" fill="none" stroke="#bc5a1d" stroke-miterlimit="10" stroke-width="1"/>
                
                
                
                <path id="Path_6496" data-name="Path 6496" d="M285.687,434.9H266.481a6.311,6.311,0,0,1,0-12.621h19.206a6.311,6.311,0,0,1,0,12.621" transform="translate(-29.638 -48.104)" fill="#fff" stroke="#707070" stroke-width="1"/>
                <path id="Path_6497" data-name="Path 6497" d="M285.687,434.9H266.481a6.311,6.311,0,0,1,0-12.621h19.206a6.311,6.311,0,0,1,0,12.621Z" transform="translate(-29.638 -48.104)" fill="none" stroke="#8d4c82" stroke-miterlimit="10" stroke-width="1"/>
                <path id="Path_6498" data-name="Path 6498" d="M271.008,436.955V417.749a6.31,6.31,0,1,1,12.62,0v19.206a6.31,6.31,0,1,1-12.62,0" transform="translate(-30.872 -46.87)" fill="#fff" stroke="#8d4c82" stroke-width="1"/>
                <path id="Path_6499" data-name="Path 6499" d="M271.008,436.955V417.749a6.31,6.31,0,1,1,12.62,0v19.206a6.31,6.31,0,1,1-12.62,0Z" transform="translate(-30.872 -46.87)" fill="none" stroke="#8d4c82" stroke-miterlimit="10" stroke-width="1"/>
                <rect id="Rectangle_32556" data-name="Rectangle 32556" width="22.506" height="22.506" transform="translate(168.166 383.14) rotate(-45)" fill="#fff" stroke="#707070" stroke-width="1"/>
                <rect id="Rectangle_32557" data-name="Rectangle 32557" width="22.506" height="22.506" transform="translate(168.166 383.14) rotate(-45)" fill="none" stroke="#335282" stroke-miterlimit="10" stroke-width="1"/>
                <rect id="Rectangle_32558" data-name="Rectangle 32558" width="22.506" height="22.506" transform="translate(184.553 383.14) rotate(-45)" fill="#fff" stroke="#707070" stroke-width="1"/>
                <rect id="Rectangle_32559" data-name="Rectangle 32559" width="22.506" height="22.506" transform="translate(184.553 383.14) rotate(-45)" fill="none" stroke="#335282" stroke-miterlimit="10" stroke-width="1"/>
                </g>
            </g>
            </g>
            </g>
        </g>
        <g data-ag="art4-protein1">
            <g id="Group_48466" data-name="Group 48466" transform="translate(130.938 12)">
                


                <g data-ag="art4-label">
                    <g id="Alpha_Helix_" data-name="Alpha Helix " transform="translate(24228.063 -1381.542)">
                        <g id="Rectangle_32569" data-name="Rectangle 32569" transform="translate(-15013 -12622)" fill="#fff" stroke="#e2e2e2" stroke-width="0.5">
                            <rect width="159" height="29" stroke="none"/>
                            <rect x="0.25" y="0.25" width="158.5" height="28.5" fill="none"/>
                        </g>
                        <g id="Group_64" data-name="Group 64" transform="translate(-15007.854 -12619.4)">
                            <text id="Alpha_helix" data-name="Alpha helix" transform="translate(0)" fill="#8d4c82" font-size="20" font-family="Metric-Medium, Metric" font-weight="500" letter-spacing="0.003em"><tspan x="30.183" y="18">Alpha helix</tspan></text>
                        </g>
                    </g>
                </g>

                <g data-ag="art4-dot">
                    <circle id="Ellipse_288" data-name="Ellipse 288" cx="1.5" cy="1.5" r="1.5" transform="translate(9293.063 -14010.79)" fill="#8d4c82"/>
                </g>
                <g data-ag="art4-line">
                    <line id="Line_312" data-name="Line 312" y2="83" transform="translate(9294.563 -14093.29)" fill="none" stroke="#2e2e2e" stroke-width="0.5"/>
                </g>

                <g data-ag="art4-mol">
                    <g id="Alpha_Helix-2" data-name="Alpha Helix" transform="translate(9266.041 -14356.001)">
                        <g id="Group_48442" data-name="Group 48442">
                            <path id="Path_10131" data-name="Path 10131" d="M170.761,95.032c-3.817-4.381-8.594-8.264-12.562-11.9C151.063,76.6,143.6,70.3,137.065,63.151a34.39,34.39,0,0,1-5.971-8.076c-1.787-3.754-.586-7.6.653-11.394,1.071-3.283,2.229-7.831,6.042-8.82,2.79-.723,6.02.073,8.738.738,9.217,2.253,18.035,6.215,26.815,9.739,8.173,3.281,14.663,6.859,23.441,8.176-5.319-7.326-9.548-9.5-16.214-15.55-6.837-6.2-14.092-12.284-19.912-19.49-1.746-2.162-3.77-4.751-4.294-7.56C155.456,6.056,161.314.03,161.808,0a20.682,20.682,0,0,0,2.529,3.95,82.7,82.7,0,0,0,8.158,8.862c7.233,7.054,14.967,13.574,22.241,20.586,4.374,4.217,11.7,10.166,12.614,16.648.645,4.588-1.825,11.647-4.442,15.261-1.467,2.025-3.606,2.486-6.021,2.407-8.036-.264-16.288-4.159-23.637-7.059-9.262-3.654-18.426-7.756-27.983-10.6-1.584-.471-3.235-.957-4.907-1.311m.213-.134A114.144,114.144,0,0,0,150.7,58.7c7.228,6.753,14.808,13.154,21.737,20.223,4.277,4.365,10.258,9.88,9.2,16.577-.63,3.98-2.055,11.349-5.884,13.672-2.158,1.309-5.1.892-7.447.494-18.259-3.1-34.517-15.266-52.515-19.435,4.074,4.914,9.294,9.206,13.805,13.328,7.1,6.486,14.526,12.751,20.968,19.913,2.192,2.437,4.507,5.1,5.788,8.162,1.709,4.081-.16,8.852-1.6,12.741-1.131,3.061-2.265,6.233-5.73,6.959-2.9.608-6.192-.25-8.99-.968-9.4-2.413-18.4-6.463-27.389-10.062-7.926-3.172-16.274-7.012-24.817-8.13h.263c11.156,14.836,28.029,24.458,39.395,39.12,1.633,2.107,3.493,4.636,3.816,7.367.545,4.589-1.848,11.459-4.464,15.092-3.528,4.9-12.244,1.5-16.742.069-9.48-3.017-18.606-7.081-27.866-10.7-5.378-2.1-10.73-4.857-16.844-5.912,5.755,6.087,11.4,10.738,17.58,16.368,6.3,5.741,13.618,11.668,18.065,19.062a10.275,10.275,0,0,1,1.606,7.623c-.689,4-2.034,11.183-5.86,13.523-5.2,3.179-14.777-1.284-19.728-3.058-9.385-3.362-18.509-7.41-27.852-10.881a100.716,100.716,0,0,0-12.218-3.893c-.577-.134-.03-.02-.67-.155.849.93,1.721,1.833,2.581,2.722,6.96,7.186,14.634,13.651,21.948,20.466,5.354,4.988,12.483,10.711,15.277,17.717,1.6,4.007-.286,8.767-1.682,12.547-1.169,3.166-2.328,6.319-5.916,6.988-6.987,1.3-15.769-3.038-22.077-5.448-9.265-3.54-18.352-7.572-27.743-10.783-3.4-1.163-15.184-5.776-17.774-2.033-1.577,2.281-.692-2.062-.509-2.861.686-3.011,1.584-6.616,3.362-9.186,3.351-4.845,11.035-2.1,15.571-.731,9.436,2.85,18.5,6.886,27.652,10.5,7.365,2.907,11.075,6.48,19.153,6.6l-.471-.532c-.319-.377.8.9.471.532-5.893-6.717-12.818-12.563-19.413-18.554-6.518-5.922-13.9-11.921-18.777-19.35-1.436-2.184-2.529-4.386-2.35-7.055A33.433,33.433,0,0,1,28.8,206.4a9.449,9.449,0,0,1,2.352-3.676c4.651-3.639,14.16.6,18.8,2.218,9.392,3.265,18.5,7.3,27.792,10.825a145.17,145.17,0,0,0,14.39,4.627c-6.812-7.223-16.029-15.344-23.314-22.074-5.662-5.23-12.745-10.946-16.131-18.061-1.765-3.705-.612-7.5.6-11.253,1.044-3.225,2.193-7.857,5.92-8.912,6.481-1.834,15.392,2.515,21.276,4.723,9.322,3.5,18.436,7.543,27.827,10.859,3.846,1.358,5.907,2.338,9.946,2.986-2.312-3.218-19.792-18.629-27.18-25.7-4.51-4.314-11.774-10.168-13.1-16.68-.948-4.661,1.683-11.62,4.111-15.4,1.332-2.073,3.177-2.75,5.591-2.793,7.9-.14,16.347,3.945,23.53,6.764,9.211,3.615,18.3,7.666,27.766,10.6,1.607.5,3.273,1.012,4.962,1.411-2.518-2.837-5.214-5.791-7.933-8.351-7.32-6.893-15.026-13.388-22.107-20.532-4.153-4.19-10.539-9.877-9.82-16.393.453-4.109,2-11.477,5.593-14.141,2.022-1.5,4.984-1.175,7.3-.825,8.641,1.3,17.035,5.141,25.081,8.369,8.911,3.575,19.347,7.741,28.7,10.029" transform="translate(0 0)" fill="#fff" stroke="#8d4c82" stroke-width="1"/>
                        </g>
                    </g>
                </g>





                <g data-ag="art4-label">
                    <g id="Pleated_Sheet_Helix" data-name="Pleated Sheet Helix" transform="translate(24591.563 -1381.038)">
                        <g id="Rectangle_32569-2" data-name="Rectangle 32569" transform="translate(-15013 -12622)" fill="#fff" stroke="#e2e2e2" stroke-width="0.5">
                            <rect width="159" height="29" stroke="none"/>
                            <rect x="0.25" y="0.25" width="158.5" height="28.5" fill="none"/>
                        </g>
                        <g id="Group_64-2" data-name="Group 64" transform="translate(-15007.854 -12619.4)">
                            <text id="Pleated_sheet" data-name="Pleated sheet" transform="translate(0)" fill="#335282" font-size="20" font-family="Metric-Medium, Metric" font-weight="500" letter-spacing="0.003em"><tspan x="20.573" y="18">Pleated sheet</tspan></text>
                        </g>
                    </g>
                </g>
                
                <g data-ag="art4-dot">
                    <circle id="Ellipse_289" data-name="Ellipse 289" cx="1.5" cy="1.5" r="1.5" transform="translate(9657.063 -14010.79)" fill="#335282"/>
                </g>
                <g data-ag="art4-line">
                    <line id="Line_313" data-name="Line 313" x1="0.5" y2="152" transform="translate(9658.563 -14161.79)" fill="none" stroke="#2e2e2e" stroke-width="0.5"/>
                </g>

                <g data-ag="art4-mol">
                    <g id="Pleated_SHeet-2" data-name="Pleated SHeet" transform="translate(8430.063 -14752.79)">
                        <path id="Path_6523" data-name="Path 6523" d="M1.072,239.182l34.1-10.48V192.427l30.7-8.867V148.09l32.983-8.061V105.366l33.051-12.092V57.8l32.244-9.674V13.468L197.2.57l33.857,26.6L198.815,36.04V72.315L166.57,81.182v38.694l-32.245,6.449v35.469l-30.633,9.674v34.663L65.873,217.417V252.08L33.56,264.172Z" transform="translate(1099.879 415.43)" fill="#fff" stroke="#335282" stroke-miterlimit="10" stroke-width="1"/>
                    </g>
                </g>




            </g>
        </g>
        <g data-ag="art4-protein2">
            <g id="Group_48467" data-name="Group 48467" transform="translate(-143 -12.703)">
                

                
                <g data-ag="art4-label2">
                    <g id="Alpha_Helix-3" data-name="Alpha Helix" transform="translate(24514 -1361)">
                        <g id="Rectangle_32569-4" data-name="Rectangle 32569" transform="translate(-15013 -12622)" fill="#fff" stroke="#e2e2e2" stroke-width="0.5">
                            <rect width="159" height="29" stroke="none"/>
                            <rect x="0.25" y="0.25" width="158.5" height="28.5" fill="none"/>
                        </g>
                        <g id="Group_64-4" data-name="Group 64" transform="translate(-15007.854 -12619.4)">
                            <text id="Alpha_helix-4" data-name="Alpha helix" transform="translate(0)" fill="#8d4c82" font-size="20" font-family="Metric-Medium, Metric" font-weight="500" letter-spacing="0.003em"><tspan x="30.183" y="18">Alpha helix</tspan></text>
                        </g>
                    </g>
                </g>


                <g data-ag="art4-label2">
                    <g id="Pleated_Sheet-3" data-name="Pleated Sheet" transform="translate(24877.5 -1361)">
                        <g id="Rectangle_32569-3" data-name="Rectangle 32569" transform="translate(-15013 -12622)" fill="#fff" stroke="#e2e2e2" stroke-width="0.5">
                            <rect width="159" height="29" stroke="none"/>
                            <rect x="0.25" y="0.25" width="158.5" height="28.5" fill="none"/>
                        </g>
                        <g id="Group_64-3" data-name="Group 64" transform="translate(-15007.854 -12619.4)">
                            <text id="Pleated_sheet-4" data-name="Pleated sheet" transform="translate(0)" fill="#335282" font-size="20" font-family="Metric-Medium, Metric" font-weight="500" letter-spacing="0.003em"><tspan x="20.573" y="18">Pleated sheet</tspan></text>
                        </g>
                    </g>
                </g>


                <g data-ag="art4-dot2">
                    <circle id="Ellipse_290" data-name="Ellipse 290" cx="1.5" cy="1.5" r="1.5" transform="translate(9579 -13991)" fill="#8d4c82"/>
                </g>
                <g data-ag="art4-dot2">
                    <circle id="Ellipse_291" data-name="Ellipse 291" cx="1.5" cy="1.5" r="1.5" transform="translate(9943 -13990)" fill="#335282"/>
                </g>

      
                <g data-ag="art4-line2">
                    <line id="Line_314" data-name="Line 314" x1="32" y2="69" transform="translate(9580.5 -14058.5)" fill="none" stroke="#2e2e2e" stroke-width="0.5"/>
                </g>
                <g data-ag="art4-line2">
                    <line id="Line_315" data-name="Line 315" x2="105.5" y2="126" transform="translate(9838.5 -14115.5)" fill="none" stroke="#2e2e2e" stroke-width="0.5"/>
                </g>

                <g data-ag="art4-scheme2">
                    <g id="_3D_Shape" data-name="3D Shape" transform="translate(9596.954 -14329)">
                        <path id="Path_6505" data-name="Path 6505" d="M30.488,163.949c-20.12,21.28-39.635,52.875-24.739,82.345,11.841,23.423,41.721,29.681,65.3,23.364,28.988-7.765,47.184-34.34,59.731-59.827,16.028-32.556,30.213-66.121,45.2-99.169Q187.388,85.5,198.8,60.338c5.877-12.96,12-31.358,26.416-37.174,14.66-5.913,20.766,6.909,24.9,18.679a266.053,266.053,0,0,1,11.515,43.64c4.7,27.761,3.421,58.179-12.457,82.335-14.375,21.87-39.761,33.839-65.228,36.7C129.135,210.671,62.29,177.71,48.617,120.778,41.223,89.995,62.165,67.387,88.291,55.047c29.4-13.887,65.548-16.624,97.245-10.7,11.3,2.111,31.382,4.716,36.616,17.013,6.279,14.754-9.481,28.584-20.14,35.675-30.253,20.124-62.372,37.539-93.16,56.83-11.711,7.338-23.789,16.1-29.906,28.915-6.577,13.779-5,29.321,2.755,42.286,15.691,26.236,48.278,40.205,76.547,47.848a203.34,203.34,0,0,0,95.773,2.364c27.128-5.884,59.4-18.392,71.926-45.373,12.31-26.512-3.732-52.056-28.249-63.386-23.383-10.807-50.425-10.2-73.162-22.349-9.836-5.257-17.28-12.268-19.43-23.522-2.543-13.3-22.855-7.67-20.318,5.6,5.3,27.73,33.519,40.735,58.267,46.9,12.662,3.155,25.575,4.8,37.937,9.166,10.048,3.55,21.689,9.267,26.342,19.518,11.952,26.335-26.361,43.967-45.355,49.641a179.865,179.865,0,0,1-95.871,1.718c-15.5-3.985-30.767-9.839-44.439-18.229-10.994-6.748-23.985-17.475-25.829-31.152-1.87-13.855,10.762-23.442,21.014-30.074,15.081-9.755,30.7-18.756,46.045-28.085,15.934-9.684,32.126-19.047,47.8-29.148,13.759-8.87,26.586-19.95,31.628-36.081,4.949-15.831.19-32.451-13.116-42.463-12.758-9.6-30.15-12.9-45.6-15.168-33.489-4.91-68.922-1.748-100.24,11.536-26.631,11.3-52.016,32.323-56.533,62.466-4.856,32.419,12.985,64.531,35.748,86.4a156.657,156.657,0,0,0,78.361,40.374c28.4,5.366,58.194,3,84.59-9.145A100.962,100.962,0,0,0,279.774,151.4c8.754-29.133,5.582-60.869-1.725-89.94-6.833-27.192-18.325-69.033-55.184-59.6-15.737,4.03-26.694,16.614-34.058,30.453C180.42,48.078,173.713,64.9,166.341,81.155q-23.562,51.959-47.124,103.919c-11.148,24.469-25.2,56.611-53.772,64.266-22.359,5.991-49.343-5.965-43.02-32.872,3.414-14.525,12.9-26.971,22.963-37.618C54.7,169,39.829,154.071,30.488,163.949Z" transform="translate(0.202 0.203)" fill="#fff" stroke="#000" stroke-miterlimit="10" stroke-width="1"/>
                        <path id="Path_6506" data-name="Path 6506" d="M182.033,26.823c3.02,2.221-.535,11.178,6.009,10.266,1.694-.236,5.566-4.842,6.661-4.578.6.145-.143,6.04.372,7.433,2.109,5.7,10.5-.657,11.022.346.409.781-2.935,5.361-2.944,6.938-.014,2.12.709,3.141,2.611,4.126a15.2,15.2,0,0,0,3.745.979c1.718.381,3.433-.155,2.61,1.474-1.084,2.146-4.863,2.538-5.925,5.075-.729,1.745-.294,2.954.742,4.453a20.728,20.728,0,0,0,3.133,2.953c2.205,2.086,2.645,1.662-.142,2.641-4.525,1.589-9.238,1.285-7.115,7.484,1.167,3.414,3.543,5.8-1.622,5-1.984-.308-4.693-.9-6.319.718-1.3,1.3-1.093,3.289-.94,4.939.117,1.268,1.271,3.873.475,4.9-.93,1.191-3.3-.673-4.862-1.167-5.12-1.622-7.031.6-7.077,5.706-.006.493.537,4.209.119,4.6-.589.546-3.241-1.3-4.377-1.851-2.037-1-3.975-1.947-6.2-1.04-8.5,3.468-5.417,16.85-16.325,17.721-6.814.544-13.758-2.075-18.81,3.936-2.725,3.241-3.682,7.511-6.046,10.961-3.838,5.6-9.84,3.692-15.636,3.769-7.8.1-10.908,4.072-14.195,10.7-.775,1.563-1.513,3.911-2.77,5.2-3.384,3.482-5.141,1.549-8.424.441-2.059-.694-4.626-1.554-6.594-.133-1.745,1.259-1.955,3.463-2.19,5.424-.173,1.454.534,5.05-.385,6.088-1.514,1.71-4.391.27-6.372-.029-4.987-.75-8.44.6-7.7,6.2.222,1.677,1.306,3.464,1.3,5.122-.01,3.052-1.445,2.95-3.714,3.925-2.222.955-5.15.872-6.748,3.019-4.057,5.448,4.256,10.207,6.123,14.3,2.857,6.269-7.122,13.842-.544,19.369,2.564,2.155,6.227,1.843,9.228,2.8,6.657,2.114,4.928,6.43,6.084,11.776,1.475,6.814,6.351,6.989,12.377,6.112,6.451-.938,9.8,1.794,14.257,6.233,3.555,3.541,6.843,7.395,10.817,10.491,7.784,6.064,16.254,5.993,25.684,4.915,5.655-.646,11.454-1.559,17.077-.152,5.677,1.423,10.75,4.6,16.024,7.031,8.254,3.8,15.726,4.89,24.343,1.59,4.188-1.6,8.105-3.814,12.183-5.661a36.486,36.486,0,0,1,19.828-3c7.261.739,18.936,3.893,25.183-1.556,2.451-2.139,3.251-5.425,4.862-8.125,3.735-6.253,7.962-3.878,14.05-3.728,6.67.164,8.792-4.06,9.485-10.1.746-6.5,2.016-8.813,8.184-11.294,2.548-1.024,5.747-2.059,7.274-4.544,3.884-6.321-4.616-11.529-5.741-17.159-1.226-6.126,6.181-14.528.254-19.859-1.86-1.672-4.54-2.066-6.907-2.412-2.419-.351-5.259-.155-7.553-1.042-3.422-1.322-4.286-4.313-5.625-7.343-2.336-5.287-4.893-9.76-11.342-8.789-4.6.693-9.634,4.581-14.05,2.2-3.713-2-5.264-6.75-8.648-9.235-7.7-5.65-14.39,5.474-21.821,2.474-3.312-1.337-5.286-7.021-7.584-9.66A10.23,10.23,0,0,0,203.8,142.3c-4.574-.464-12.654,3.5-16.039-.958-2.439-3.208-1.416-8.993-2.812-12.7-2.561-6.8-12.69-7.178-14.548-13.8-.732-2.607-4.8-1.5-4.064,1.121,2.028,7.225,10.675,7.382,14.08,13.186,3.145,5.362.433,14.019,6.913,17.482,2.687,1.436,5.747.943,8.642.6,7.2-.86,10.271-.6,14.491,5.623,3.451,5.089,6.938,8.879,13.5,7.049,4.678-1.3,9.637-5.974,14.463-2.616,3.082,2.145,4.509,6.3,7.588,8.583,6.838,5.061,13.193-3,19.852-.316,6.573,2.647,5.2,12.665,12.992,15.042,2.905.886,8.874-.094,11.137,1.724,4.546,3.652.378,9.975-.2,14.262a12.106,12.106,0,0,0,1.939,8.447c2.648,4.47,7.64,8.546.979,11.961-5.8,2.975-10.732,3.458-11.957,10.738-.281,1.665-.111,3.484-.5,5.115-1,4.159-3.291,6.112-7.531,5.671-3.341-.348-7.084-1.33-10.294.143-2.256,1.035-3.6,3.075-4.778,5.178-3.311,5.9-4,9.267-12.016,9.573-9.868.375-19.564-3.293-29.351-.538-10.392,2.925-19.95,11.932-31.313,9.816-9.722-1.808-17.547-9.014-27.318-10.784-10.658-1.93-21.769,3.45-32.233.261-9.662-2.944-15.167-12.946-22.878-18.821-2.5-1.9-4.5-3.131-7.657-3.171-5.525-.072-11,3.489-12.752-4.322-1.325-5.892-.428-10.468-7.226-12.529-4.551-1.378-10.269-.586-9.249-7.129.561-3.595,3.425-6.4,2.814-10.29-.416-2.654-2.454-4.7-4.092-6.678-1.517-1.835-3.453-3.044-2.467-5.436.948-2.3,3.215-2,5.368-2.728,5.854-1.983,5.348-5.4,4.055-10.793-.73-3.054-1.523-4.078,2.576-3.766,1.458.111,2.881.662,4.35.766,2.162.153,4.131.006,5.521-1.815,1.458-1.909,1.2-4.676,1.347-6.938.2-3.044-.164-3.742,2.854-3.749,1.83-.006,3.827,1.679,5.67,2.038,6.406,1.253,8.979-5.368,11.359-10.163,2.513-5.064,5.143-7.7,11.1-7.8,3.984-.069,8.229.983,12.112-.4,7.529-2.691,7.211-11.717,12.546-16.4,6.236-5.476,16.251,1.1,22.938-4.453,2.526-2.1,3.843-5.257,5.28-8.114a28.085,28.085,0,0,1,2.769-5.2c2.557-3.152,3.953-1.424,6.879,0,3.6,1.76,6.982,2.266,8.021-2.326.851-3.752-1.985-7.823,3.239-6.474,2.155.556,4.356,2.38,6.7,1.507a3.657,3.657,0,0,0,2.4-3.193c.358-1.878-1.992-7.493-.979-8.5.854-.853,6.7,1.27,8.256,1.014,1.8-.3,3.086-.941,3.567-2.811.52-2.033-1.107-4.447-1.92-6.163-.843-1.774-1.933-2.529-.369-3.709,1.177-.888,4.065-.548,5.518-1.023,4.546-1.483,4.667-4.645,1.554-7.892-.965-1.006-3.194-2-3.7-3.245-.811-1.984,1.027-2.29,2.738-3.6,1.54-1.174,3.832-2.465,4.037-4.612.608-6.34-9-2.644-10.316-5.842-1.264-3.065,6.76-8.458,1.193-11.259-1.969-.99-4.273.482-6.129,1.032-5.188,1.544-2.746-1.316-3.384-5.412-.757-4.863-4.085-4.558-7.535-2.1-3.332,2.374-3.745,3.408-4.679-.948-.49-2.283-.752-4.107-2.686-5.529-2.187-1.608-4.292,2.047-2.127,3.638" transform="translate(22.788 9.222)" fill="#8d4c82"/>
                        <path id="Path_6507" data-name="Path 6507" d="M121.617,186.375c-8.108-3.154-10.519-13.633-19.224-16.148-4.122-1.19-8.5-.528-12.707-.643-7.055-.194-10.446-2.828-13.169-8.875-3.346-7.43-5.507-13.04-13.58-16.041-4.192-1.556-10.04-2.035-13.331-5.3-3.994-3.96-3.083-10.474-3.63-15.583-.7-6.525-2.394-9.819-8.743-11.744q-1.435-.381-2.853-.825-3.835-1.614-1.239-4.374c.575-1.707,2.058-3.155,2.748-4.852.846-2.075,1.32-3.982.114-6.025-1.4-2.374-4.321-3.008-6.3-4.647-5.223-4.322.694-6.074,3.173-9.608,5-7.129-5.318-9.054-5.268-15.41.021-2.711-4.193-2.714-4.214,0-.025,3.123,1.891,5.049,3.775,7.345,2.433,2.965,3.336,3.977.657,7.295-1.3,1.613-3.187,2.645-4.329,4.436-3.942,6.182,2.92,7.857,6.671,11.064,5.73,4.9-6.233,10.763-1.1,16.591,2.1,2.388,5.8,2.27,8.475,3.488,5.893,2.683,4.093,11.3,4.973,16.8,1.337,8.376,6.584,11.425,14.187,13.8,5.127,1.6,9.639,2.76,12.558,7.619,2.412,4.015,3.371,8.77,6.021,12.667,5.525,8.131,14.292,5.594,22.733,6.365,10.411.952,13.286,13.082,22.49,16.662,2.53.983,3.626-3.09,1.121-4.064" transform="translate(9.03 26.012)" fill="#8d4c82"/>
                        <path id="Path_6508" data-name="Path 6508" d="M37.5,169.591c-4.744,3.746-12.478,1.165-16.639,6.139-5.03,6.017,2.1,15.072-4.422,20.244-3.79,3-10.288,3.888-11.881,9.184-2.2,7.3,7.279,12.32,5.435,19.446-1.264,4.884-6.123,9.785-3.839,15.18,2.308,5.45,9.069,5.008,13.762,6.671,7.211,2.557,6.142,11.1,12.023,14.983,5.032,3.319,9.825-.819,14.292-3.124,5.568-2.873,8.264-.95,13.2,1.689,2.153,1.152,4.62,2.554,7.164,2.5,5.261-.122,7.542-5.2,9.7-9.205,2.573-4.771,5.248-6.194,10.743-6.326,2.915-.07,6.15.162,8.843-1.2,5.379-2.722,4.608-9.066,5.094-14.171.923-9.674,10.756-6.726,15.964-12.315,4.345-4.665.907-10.576.94-15.951.051-8.072,10.113-7.708,14.1-13.049,4.585-6.149,3.27-16.037,3.956-23.173,1-10.418,6.938-15.765,14.12-22.531,5.785-5.449,9.651-10.87,10.781-18.9,1.128-8-.36-16.915,3.8-24.207,4.074-7.132,11.827-11.362,16.8-17.785,4.6-5.942,5.39-12.782,5.789-20.072.212-3.848-.629-11.064,1.854-14.2,2.441-3.085,6.536-.971,9.486-2.76,2.7-1.638,2.387-3.859,1.153-6.444-1.162-2.436-4.275-4.36-1.312-5.366,2.256-.766,5.207.819,7.438-.641,3.825-2.5.52-6.514-.223-9.7-.52-2.229-2.1-1.606.921-1.5,1.356.049,2.755.858,4.112,1.04,1.665.222,3.595.575,4.959-.718,1.183-1.121,1.216-2.828,1.273-4.328.1-2.551-1.777-5.82,1.108-4.9,3.317,1.052,5.523,5.915,9.377,2.734,1.6-1.318,1.763-3.782,2.689-5.471,1.034-1.888.108-2.613,1.646-1.132.877.844,1.173,2.758,1.844,3.794,2.589,3.991,5,3.643,8.733,1.087,2.513-1.722,3.862-4.615,2.479-.52-.5,1.475-1.427,4.046-.881,5.651,1.229,3.619,5.129,2.117,7.906,1.5l1.308-.339q3.178-.12.494-.839c-.968,1.43-2.26,2.763-3.078,4.283-.738,1.372-1.69,2.937-.827,4.508.83,1.514,2.691,1.617,4.185,1.809,1.309.169,2.7-.156,3.994.06q1.907.622.936-.558-.9.963-1.867,1.861c-5.386,4.275-3.324,8.108.187,13.195C262.626,53.694,270.67,60,269.993,70.624c-.631,9.9-5.549,18.736-2.978,28.792,2.693,10.531,11.228,20.006,5.894,31.176-3.73,7.81-10.616,13.712-13.1,22.184-2.7,9.19-.681,19.414-6.51,27.592-1.578,2.212,2.076,4.32,3.638,2.127,4.161-5.838,4.7-12.6,5.464-19.523.534-4.824,1.093-9.381,3.39-13.729,2.162-4.092,5.2-7.646,7.756-11.487,3.477-5.23,6.076-10.722,5.363-17.148-.958-8.646-6.859-15.8-8.287-24.309-1.59-9.475,3.811-18.411,3.669-27.841-.1-6.837-3.562-12.231-7.659-17.441-2.616-3.328-6.348-6.7-7.927-10.672-1.747-4.4,1.875-4.384,3.765-7.553,1.519-2.548,1.26-4.52-1.714-5.535-.8-.271-6.806-.01-6.889-.32-.1-.386,3.534-4.178,3.894-5.193,1.226-3.451-.568-5-4.006-4.761-1.045.073-5.181,1.784-5.648,1.318-.406-.406,1.513-5.247,1.506-6.174-.027-3.356-1.8-4.675-5.068-3.626-2.408.771-4.651,4.853-7.357,3.384-1.26-.684-2.031-4.706-3.117-5.89-2.573-2.8-5.073-1.92-6.852,1.166-1.222,2.12-1.184,6.261-3.689,5.806-2.135-.386-3.782-3.412-6.029-4.032-3.47-.955-4.86,1.27-5.146,4.494-.264,2.971,1.766,6.07-1.913,6.238-2.218.1-4.405-1.748-6.737-1.139-3.693.961-3.187,4.122-2.149,7.088.291.83,1.776,3.088,1.592,3.949-.423,1.971-1.875.85-3.305,1.089-1.851.309-4.221-.454-5.924.726-4.095,2.839.319,6.729,1.475,9.774.878,2.308,2.121,1.143-.8,2.139-1.044.355-2.441.14-3.546.312-1.461.228-3.017.333-4.207,1.322-4.726,3.928-3.554,15.51-3.943,20.869-.775,10.7-5.251,16.374-12.852,23.39-5.005,4.62-9.645,9.32-11.45,16.084-2.2,8.26-.178,17.3-3.171,25.37-3,8.091-11.168,12.692-16.66,18.906-4.537,5.136-6.422,10.788-7.05,17.561-.45,4.837-.2,9.766-1.094,14.557-1.143,6.118-4.512,8.049-9.513,10.668-4.026,2.109-7.173,4.475-7.487,9.327-.232,3.585,1.4,7.035,1.327,10.585-.132,6.392-7.018,6.455-11.569,8.611-4.085,1.934-5.811,4.56-6.451,8.966-.6,4.126.855,10.184-3.553,12.439-3.353,1.714-8.52.024-12.181.886a10.161,10.161,0,0,0-6.1,3.916c-2.2,2.79-3.558,9.263-6.956,10.8-5.573,2.514-12.276-6.809-18.9-5.474-3.707.749-6.4,3.744-9.832,5.042-6.4,2.42-7.506-2.9-9.868-7.548-3.124-6.142-6.9-7.008-13.327-8.569-12.329-2.993-.228-13.487-1.844-21.077-.771-3.616-3.831-6.24-4.908-9.66-2.142-6.8,3.422-7.566,7.729-10.128,6.511-3.874,6.439-8.382,6.066-15.469C22.661,173.8,34.2,177.53,40.476,172.57c2.128-1.68-.872-4.643-2.979-2.979" transform="translate(1.709 1.742)" fill="#8d4c82"/>
                        <path id="Path_6509" data-name="Path 6509" d="M25.109,87.956l18.647-3.343a2.116,2.116,0,0,0,1.259-3.095L33.792,66.263q-.908,1.585-1.819,3.171l18.825,2.3a2.114,2.114,0,0,0,2.031-2.668q-3.357-8.86-6.716-17.722l-2.592,2.593q8.873,3.365,17.745,6.733c1.673.634,2.808-1.186,2.592-2.593Q62.421,48.7,60.985,39.327l-3.1,2.38,16.218,9.87a2.126,2.126,0,0,0,3.171-1.819l.2-18.977q-1.8.744-3.6,1.49l14.6,12.137c1.065.886,3.266.8,3.522-.929q1.384-9.391,2.772-18.78-1.762.466-3.522.93l12.424,13.984a2.121,2.121,0,0,0,3.522-.93q2.006-9.134,4.011-18.27l-3.85.5,11.123,15.038a2.139,2.139,0,0,0,3.852-.5q2.809-8.922,5.615-17.843l-3.85.5,9.756,15.959c1.028,1.681,3.182,1.113,3.852-.5l7.157-17.281-3.852.5,8.325,16.75a2.122,2.122,0,0,0,3.64,0q4.317-8.3,8.638-16.59l-3.852-.5,6.83,17.415a2.138,2.138,0,0,0,3.85.5L178.5,18.594c1.464-2.294-2.183-4.409-3.638-2.127L164.8,32.237l3.852.5q-3.416-8.707-6.83-17.413c-.608-1.551-2.937-2.259-3.852-.5q-4.317,8.3-8.638,16.591h3.64l-8.326-16.75c-.9-1.812-3.227-1-3.85.5l-7.157,17.283,3.852-.5-9.757-15.958a2.133,2.133,0,0,0-3.85.5q-2.809,8.922-5.616,17.842l3.852-.5Q116.558,26.308,111,18.791c-.985-1.333-3.426-1.434-3.85.5l-4.012,18.269,3.522-.929L94.233,22.65c-.976-1.1-3.291-.631-3.522.93q-1.386,9.389-2.772,18.779l3.522-.93L76.862,29.29a2.135,2.135,0,0,0-3.6,1.49l-.2,18.977,3.171-1.821Q68.126,43,60.016,38.068c-1.721-1.048-3.356.676-3.095,2.378L59.8,59.2,62.387,56.6,44.642,49.871a2.118,2.118,0,0,0-2.592,2.592q3.357,8.86,6.715,17.722L50.8,67.517l-18.825-2.3a2.116,2.116,0,0,0-1.819,3.171L41.376,83.645q.628-1.549,1.259-3.1-9.322,1.673-18.647,3.343c-2.665.478-1.535,4.54,1.121,4.064" transform="translate(9.093 5.514)" fill="#335282"/>
                        <path id="Path_6510" data-name="Path 6510" d="M93.892,154.708q1.814,8.873,3.63,17.746a1.065,1.065,0,0,0,1.926.251q4.57-7.83,9.143-15.661l-1.924-.251q2.229,8.791,4.461,17.582a1.064,1.064,0,0,0,1.924.251l8.465-16.039-1.926-.251,5.3,17.35c.242.794,1.527,1.12,1.926.251q3.782-8.241,7.563-16.482l-1.924-.251q3.239,8.473,6.48,16.947a1.063,1.063,0,0,0,2.031,0q3.036-8.538,6.071-17.079l-1.926.251q4.269,8.007,8.535,16.014c.4.743,1.79.66,1.926-.251q1.334-8.924,2.668-17.844l-1.76.465q6.037,6.766,12.077,13.532a1.063,1.063,0,0,0,1.8-.745q-.255-9.082-.509-18.166l-1.8.746,13.507,12.143c.607.545,1.9.23,1.8-.746l-1.976-18.062-1.8.745q7.139,5.615,14.281,11.23a1.064,1.064,0,0,0,1.762-1.024q-1.509-8.959-3.015-17.92-.773.6-1.548,1.19l14.886,10.42c.8.559,1.738-.361,1.547-1.19q-2.04-8.848-4.081-17.7l-1.548,1.19,15.652,9.256c.721.427,1.915-.3,1.548-1.19l-6.844-16.524c-.511-1.235-2.551-.693-2.031.56q3.42,8.262,6.843,16.524l1.548-1.19-15.652-9.256a1.066,1.066,0,0,0-1.548,1.19q2.042,8.85,4.082,17.7.773-.594,1.548-1.19l-14.886-10.42c-.833-.583-1.684.378-1.548,1.19q1.509,8.959,3.015,17.92l1.762-1.025-14.282-11.231c-.619-.486-1.909-.271-1.8.746l1.976,18.062,1.8-.745-13.505-12.143a1.066,1.066,0,0,0-1.8.745q.253,9.084.509,18.166l1.8-.745-12.078-13.532a1.059,1.059,0,0,0-1.76.464l-2.668,17.844,1.924-.251-8.534-16.014a1.067,1.067,0,0,0-1.926.251q-3.036,8.54-6.071,17.08h2.031l-6.48-16.948c-.287-.749-1.509-1.159-1.926-.251q-3.782,8.241-7.563,16.482l1.924.251-5.3-17.35a1.065,1.065,0,0,0-1.924-.251l-8.465,16.039,1.926.251q-2.231-8.791-4.461-17.582a1.066,1.066,0,0,0-1.926-.251l-9.145,15.661,1.926.251q-1.814-8.873-3.63-17.746c-.271-1.327-2.3-.766-2.031.561" transform="translate(37.992 50.267)" fill="#335282"/>
                    </g>
                </g>

            </g>
        </g>

    </g>
</svg>