
<svg xmlns="http://www.w3.org/2000/svg" width="94.035" height="68.095" viewBox="0 0 94.035 68.095">
  <path d="M-2.754-166.147l.912,5.778-.49.081A46.285,46.285,0,0,0-13.4-157.125a29.187,29.187,0,0,0-7.886,4.969A19.72,19.72,0,0,0-26-145.925a16.359,16.359,0,0,0-1.557,6.394,25.648,25.648,0,0,1,3.94-.307h0a22.417,22.417,0,0,1,15.1,5.527,19.363,19.363,0,0,1,4.809,6.673,22.377,22.377,0,0,1,1.793,9.019,20.118,20.118,0,0,1-6.41,14.682,21.2,21.2,0,0,1-14.41,5.884,26.889,26.889,0,0,1-9.26-1.574,22.021,22.021,0,0,1-7.787-4.82,22.483,22.483,0,0,1-5.35-8.177,32.1,32.1,0,0,1-1.978-11.582,39.068,39.068,0,0,1,12.248-28.108A47.428,47.428,0,0,1-20.987-161.6a55.9,55.9,0,0,1,17.768-4.51Zm-.23,4.955-.612-3.874a54.777,54.777,0,0,0-16.986,4.385A46.431,46.431,0,0,0-34.164-151.6a38.076,38.076,0,0,0-11.945,27.391A31.108,31.108,0,0,0-44.2-112.984a21.491,21.491,0,0,0,5.111,7.817,21.027,21.027,0,0,0,7.437,4.6,25.894,25.894,0,0,0,8.917,1.513,20.191,20.191,0,0,0,13.721-5.609,19.128,19.128,0,0,0,6.1-13.957,19.485,19.485,0,0,0-6.271-14.949,21.416,21.416,0,0,0-14.432-5.27,24.69,24.69,0,0,0-4.362.392l-.589.106v-.6A17.338,17.338,0,0,1-26.9-146.35a20.713,20.713,0,0,1,4.947-6.548,30.182,30.182,0,0,1,8.155-5.143A46.871,46.871,0,0,1-2.984-161.193Zm49-4.955.912,5.778-.49.081a46.285,46.285,0,0,0-11.068,3.163,29.187,29.187,0,0,0-7.886,4.969,19.72,19.72,0,0,0-4.713,6.231,16.359,16.359,0,0,0-1.557,6.394,25.648,25.648,0,0,1,3.94-.307h0a22.417,22.417,0,0,1,15.1,5.527,19.363,19.363,0,0,1,4.809,6.673,22.377,22.377,0,0,1,1.793,9.019,20.118,20.118,0,0,1-6.41,14.682,21.2,21.2,0,0,1-14.41,5.884,26.889,26.889,0,0,1-9.26-1.574,22.021,22.021,0,0,1-7.787-4.82,22.483,22.483,0,0,1-5.35-8.177,32.1,32.1,0,0,1-1.978-11.582,39.068,39.068,0,0,1,12.248-28.108A47.428,47.428,0,0,1,27.781-161.6a55.9,55.9,0,0,1,17.768-4.51Zm-.23,4.955-.612-3.874a54.777,54.777,0,0,0-16.986,4.385A46.431,46.431,0,0,0,14.6-151.6,38.076,38.076,0,0,0,2.659-124.206,31.108,31.108,0,0,0,4.57-112.984a21.491,21.491,0,0,0,5.111,7.817,21.027,21.027,0,0,0,7.437,4.6,25.893,25.893,0,0,0,8.917,1.513,20.191,20.191,0,0,0,13.721-5.609,19.128,19.128,0,0,0,6.1-13.957,19.485,19.485,0,0,0-6.271-14.949,21.42,21.42,0,0,0-14.43-5.27h0a24.69,24.69,0,0,0-4.362.392l-.589.106v-.6a17.338,17.338,0,0,1,1.663-7.412,20.713,20.713,0,0,1,4.947-6.548,30.182,30.182,0,0,1,8.155-5.143A46.871,46.871,0,0,1,45.784-161.193Z" transform="translate(47.109 166.147)" fill="#bc5a1d"/>
</svg>
