<svg width="94" height="68" viewBox="0 0 94 68" fill="none" xmlns="http://www.w3.org/2000/svg">
  <path d="M18.933 27.062C31.633 24.776 44.587 32.396 44.587 47.382C44.587 58.812 34.681 67.448 24.267 67.448C11.567 67.448 0.391 59.32 0.391 41.794C0.391 20.712 18.171 2.678 43.825 0.391997L44.587 5.218C27.569 8.01199 18.933 17.156 18.933 27.062ZM67.701 27.062C80.401 24.776 93.355 32.396 93.355 47.382C93.355 58.812 83.449 67.448 73.035 67.448C60.335 67.448 49.159 59.32 49.159 41.794C49.159 20.712 66.939 2.678 92.593 0.391997L93.355 5.218C76.337 8.01199 67.701 17.156 67.701 27.062Z" fill="white"/>
  <path d="M18.933 27.062H18.433V27.66L19.0216 27.5541L18.933 27.062ZM43.825 0.391997L44.3189 0.314016L44.246 -0.1475L43.7806 -0.106029L43.825 0.391997ZM44.587 5.218L44.668 5.71139L45.1584 5.63088L45.0809 5.14001L44.587 5.218ZM67.701 27.062H67.201V27.66L67.7896 27.5541L67.701 27.062ZM92.593 0.391997L93.0869 0.314016L93.014 -0.147499L92.5486 -0.106029L92.593 0.391997ZM93.355 5.218L93.436 5.71139L93.9264 5.63088L93.8489 5.14001L93.355 5.218ZM19.0216 27.5541C25.251 26.4328 31.5239 27.7448 36.2294 31.15C40.9237 34.5473 44.087 40.0472 44.087 47.382H45.087C45.087 39.7307 41.7733 33.9277 36.8156 30.3399C31.8691 26.7602 25.315 25.4052 18.8444 26.5699L19.0216 27.5541ZM44.087 47.382C44.087 58.5118 34.4296 66.948 24.267 66.948V67.948C34.9325 67.948 45.087 59.1122 45.087 47.382H44.087ZM24.267 66.948C18.0217 66.948 12.1854 64.9504 7.91347 60.8332C3.64647 56.7208 0.891 50.4463 0.891 41.794H-0.109C-0.109 50.6677 2.72354 57.2202 7.21953 61.5533C11.7106 65.8816 17.8123 67.948 24.267 67.948V66.948ZM0.891 41.794C0.891 21.0226 18.4184 3.15794 43.8694 0.890024L43.7806 -0.106029C17.9236 2.19806 -0.109 20.4013 -0.109 41.794H0.891ZM43.3311 0.469979L44.0931 5.29598L45.0809 5.14001L44.3189 0.314016L43.3311 0.469979ZM44.506 4.7246C27.3687 7.53818 18.433 16.805 18.433 27.062H19.433C19.433 17.507 27.7693 8.4858 44.668 5.71139L44.506 4.7246ZM67.7896 27.5541C74.019 26.4328 80.2919 27.7448 84.9974 31.15C89.6917 34.5473 92.855 40.0472 92.855 47.382H93.855C93.855 39.7307 90.5413 33.9277 85.5836 30.3399C80.6371 26.7602 74.083 25.4052 67.6124 26.5699L67.7896 27.5541ZM92.855 47.382C92.855 58.5118 83.1976 66.948 73.035 66.948V67.948C83.7005 67.948 93.855 59.1122 93.855 47.382H92.855ZM73.035 66.948C66.7897 66.948 60.9534 64.9504 56.6815 60.8332C52.4145 56.7208 49.659 50.4463 49.659 41.794H48.659C48.659 50.6677 51.4915 57.2202 55.9875 61.5533C60.4786 65.8816 66.5803 67.948 73.035 67.948V66.948ZM49.659 41.794C49.659 21.0226 67.1864 3.15794 92.6374 0.890024L92.5486 -0.106029C66.6916 2.19806 48.659 20.4013 48.659 41.794H49.659ZM92.0991 0.469979L92.8611 5.29598L93.8489 5.14001L93.0869 0.314016L92.0991 0.469979ZM93.274 4.7246C76.1367 7.53818 67.201 16.805 67.201 27.062H68.201C68.201 17.507 76.5373 8.4858 93.436 5.71139L93.274 4.7246Z" fill="#BC5A1D"/>
  </svg>
  