<svg id="Patient" xmlns="http://www.w3.org/2000/svg" xmlns:xlink="http://www.w3.org/1999/xlink" width="305.042" height="305.178" viewBox="0 0 305.042 305.178">
      <path id="Path_9592" data-name="Path 9592" d="M226.635,93.058C234.1,81.282,220.47,72.82,220.47,72.82c5.205-12.806-7.8-19.208-7.8-19.208,3.9-12.806-9.107-16.649-9.107-16.649,2.6-16.647-15.612-12.8-15.612-12.8-3.9-15.368-16.913-8.965-16.913-8.965-3.9-11.525-16.911-6.4-16.911-6.4-6.5-10.245-18.215-3.843-18.215-3.843-13.009-10.243-22.827.413-22.827.413-8.516-8.553-18.8.869-18.8.869C79.966,1.107,78.665,20.315,78.665,20.315,64.354,16.474,62.982,30.73,62.982,30.73,43.394,28.338,47.441,49.769,47.441,49.769c-19.514,2.561-15.612,19.21-15.612,19.21-22.117,10.243-2.6,29.453-2.6,29.453-11.71,8.963,0,19.208,0,19.208-10.409,15.368,7.806,20.49,7.806,20.49-5.205,8.963,5.2,16.647,5.2,16.647-1.3,12.806,10.409,14.086,10.409,14.086,1.3,10.245,14.311,6.4,14.311,6.4,1.3,14.086,20.815,5.123,20.815,5.123,1.659,2.72,4.961,4.053,8.213,4.687a25.572,25.572,0,0,0,12.228-.679,159.56,159.56,0,0,1,25.4-5.492c.853,1.152,2.759,2.283,6.314,3.263,10.469,2.885,15.515-.039,17.561-1.981,18.111,6.282,27.2-5.562,27.2-5.562,13.009,3.843,18.213-8.963,18.213-8.963,16.913-1.28,13.011-16.647,13.011-16.647,11.708-1.282,13.009-19.21,13.009-19.21,9.107-8.963,1.951-18.567,1.951-18.567,9.107-10.245-4.244-18.181-4.244-18.181" transform="translate(24.794 0.532)" fill="#c7d0dc"/>
      <path id="Path_9593" data-name="Path 9593" d="M226.635,93.058C234.1,81.282,220.47,72.82,220.47,72.82c5.205-12.806-7.8-19.208-7.8-19.208,3.9-12.806-9.107-16.649-9.107-16.649,2.6-16.647-15.612-12.8-15.612-12.8-3.9-15.368-16.913-8.965-16.913-8.965-3.9-11.525-16.911-6.4-16.911-6.4-6.5-10.245-18.215-3.843-18.215-3.843-13.009-10.243-22.827.413-22.827.413-8.516-8.553-18.8.869-18.8.869C79.966,1.107,78.665,20.315,78.665,20.315,64.354,16.474,62.982,30.73,62.982,30.73,43.394,28.338,47.441,49.769,47.441,49.769c-19.514,2.561-15.612,19.21-15.612,19.21-22.117,10.243-2.6,29.453-2.6,29.453-11.71,8.963,0,19.208,0,19.208-10.409,15.368,7.806,20.49,7.806,20.49-5.205,8.963,5.2,16.647,5.2,16.647-1.3,12.806,10.409,14.086,10.409,14.086,1.3,10.245,14.311,6.4,14.311,6.4,1.3,14.086,20.815,5.123,20.815,5.123,1.659,2.72,4.961,4.053,8.213,4.687a25.572,25.572,0,0,0,12.228-.679,159.56,159.56,0,0,1,25.4-5.492c.853,1.152,2.759,2.283,6.314,3.263,10.469,2.885,15.515-.039,17.561-1.981,18.111,6.282,27.2-5.562,27.2-5.562,13.009,3.843,18.213-8.963,18.213-8.963,16.913-1.28,13.011-16.647,13.011-16.647,11.708-1.282,13.009-19.21,13.009-19.21,9.107-8.963,1.951-18.567,1.951-18.567C239.986,100.994,226.635,93.058,226.635,93.058Z" transform="translate(24.794 0.532)" fill="none" stroke="#2e2e2e" stroke-width="1"/>
      <path id="Path_9594" data-name="Path 9594" d="M102.87,88.415c-9.278,0-16.827-7.195-16.827-16.038S93.591,56.34,102.87,56.34a.594.594,0,1,1,0,1.187c-8.59,0-15.58,6.662-15.58,14.85s6.99,14.85,15.58,14.85a.6.6,0,1,1,0,1.189" transform="translate(100.268 59.938)" fill="#fff"/>
      <path id="Path_9595" data-name="Path 9595" d="M102.87,88.415c-9.278,0-16.827-7.195-16.827-16.038S93.591,56.34,102.87,56.34a.594.594,0,1,1,0,1.187c-8.59,0-15.58,6.662-15.58,14.85s6.99,14.85,15.58,14.85a.6.6,0,1,1,0,1.189Z" transform="translate(100.268 59.938)" fill="none" stroke="#2e2e2e" stroke-miterlimit="10" stroke-width="1"/>
      <path id="Path_9596" data-name="Path 9596" d="M51.308,88.415a.6.6,0,1,1,0-1.189c8.59,0,15.58-6.66,15.58-14.85s-6.99-14.85-15.58-14.85a.594.594,0,1,1,0-1.187c9.278,0,16.827,7.195,16.827,16.036S60.586,88.415,51.308,88.415" transform="translate(59.063 59.938)" fill="#fff"/>
      <path id="Path_9597" data-name="Path 9597" d="M51.308,88.415a.6.6,0,1,1,0-1.189c8.59,0,15.58-6.66,15.58-14.85s-6.99-14.85-15.58-14.85a.594.594,0,1,1,0-1.187c9.278,0,16.827,7.195,16.827,16.036S60.586,88.415,51.308,88.415Z" transform="translate(59.063 59.938)" fill="none" stroke="#2e2e2e" stroke-miterlimit="10" stroke-width="1"/>
      <path id="Path_9598" data-name="Path 9598" d="M110.2,152.613l-51.7-2.57,7.148-58.973.006-.056L67.733,73.8h34.5L104.1,92.28l.082.813Z" transform="translate(68.164 78.514)" fill="#fff"/>
      <path id="Path_9599" data-name="Path 9599" d="M110.2,152.613l-51.7-2.57,7.148-58.973.006-.056L67.733,73.8h34.5L104.1,92.28l.082.813Z" transform="translate(68.164 78.514)" fill="none" stroke="#2e2e2e" stroke-miterlimit="10" stroke-width="1"/>
      <path id="Path_9600" data-name="Path 9600" d="M150.037,90.2a9.185,9.185,0,0,1-5.7,2.72c-6.219,26.032-23.3,44.728-43.4,44.728-20.12,0-37.218-18.73-43.421-44.8-5.335-.8-9.48-6.8-9.48-14.086,0-5.085,2.02-9.545,5.056-12.047,3.042-1.486,7.724-3.828,13.6-6.953,10.785-5.733,6.451-13.888,10.223-24.925a23.669,23.669,0,0,1,6.812-9.562c7.063,2.423,9.885,6.138,13.7,13.165,3.852,7.1,7.41,3.979,17.457,7.424,3.244,1.112,11.158,5.775,13.15,14.68,2.282,10.208,5.851,17.985,13.2,21.268a18.877,18.877,0,0,1,8.809,8.383" transform="translate(55.969 26.895)" fill="#fff"/>
      <path id="Path_9601" data-name="Path 9601" d="M150.037,90.2a9.185,9.185,0,0,1-5.7,2.72c-6.219,26.032-23.3,44.728-43.4,44.728-20.12,0-37.218-18.73-43.421-44.8-5.335-.8-9.48-6.8-9.48-14.086,0-5.085,2.02-9.545,5.056-12.047,3.042-1.486,7.724-3.828,13.6-6.953,10.785-5.733,6.451-13.888,10.223-24.925a23.669,23.669,0,0,1,6.812-9.562c7.063,2.423,9.885,6.138,13.7,13.165,3.852,7.1,7.41,3.979,17.457,7.424,3.244,1.112,11.158,5.775,13.15,14.68,2.282,10.208,5.851,17.985,13.2,21.268A18.877,18.877,0,0,1,150.037,90.2Z" transform="translate(55.969 26.895)" fill="none" stroke="#2e2e2e" stroke-miterlimit="10" stroke-width="1"/>
      <path id="Path_9602" data-name="Path 9602" d="M60.193,88.415c-9.278,0-16.827-7.195-16.827-16.038S50.914,56.34,60.193,56.34a.594.594,0,1,1,0,1.187c-8.59,0-15.58,6.662-15.58,14.85s6.99,14.85,15.58,14.85a.6.6,0,1,1,0,1.189" transform="translate(50.536 59.938)" fill="#fff"/>
      <path id="Path_9603" data-name="Path 9603" d="M60.193,88.415c-9.278,0-16.827-7.195-16.827-16.038S50.914,56.34,60.193,56.34a.594.594,0,1,1,0,1.187c-8.59,0-15.58,6.662-15.58,14.85s6.99,14.85,15.58,14.85a.6.6,0,1,1,0,1.189Z" transform="translate(50.536 59.938)" fill="none" stroke="#2e2e2e" stroke-miterlimit="10" stroke-width="1"/>
      <path id="Path_9604" data-name="Path 9604" d="M93.986,88.415a.6.6,0,1,1,0-1.189c8.59,0,15.579-6.66,15.579-14.85s-6.99-14.85-15.579-14.85a.594.594,0,1,1,0-1.187c9.278,0,16.827,7.195,16.827,16.036s-7.548,16.038-16.827,16.038" transform="translate(108.797 59.938)" fill="#fff"/>
      <path id="Path_9605" data-name="Path 9605" d="M93.986,88.415a.6.6,0,1,1,0-1.189c8.59,0,15.579-6.66,15.579-14.85s-6.99-14.85-15.579-14.85a.594.594,0,1,1,0-1.187c9.278,0,16.827,7.195,16.827,16.036S103.264,88.415,93.986,88.415Z" transform="translate(108.797 59.938)" fill="none" stroke="#2e2e2e" stroke-miterlimit="10" stroke-width="1"/>
      <path id="Path_9606" data-name="Path 9606" d="M299.21,199.216c-.3-.691-.606-1.36-.918-2.021a52.839,52.839,0,0,0-2.85-5.275,34.42,34.42,0,0,0-4.562-5.962q-.7-.718-1.425-1.352a19.748,19.748,0,0,0-3.869-2.677c-5.305-2.766-10.008-5.079-14.241-7.052-1.719-.8-3.358-1.542-4.933-2.235-1.219-.535-2.393-1.046-3.532-1.521-1.178-.5-2.31-.968-3.408-1.412h0c-6.728-2.712-12.117-4.491-17.156-6.163-1.306-.433-2.583-.859-3.854-1.29l-.05-.017-.017-.006a145.086,145.086,0,0,1-30.334-14.08q-.585-.347-1.187-.706c-.048-.031-.1-.06-.147-.091a43.843,43.843,0,0,1-4.268-2.941c-.364-.283-.719-.572-1.074-.865-18.07-14.984-23.511-42.72-25.423-54.333v0h-.009c-.974.213-1.992.425-3.051.627-.442.085-.89.169-1.347.25a122.607,122.607,0,0,1-19.8,1.924A122.552,122.552,0,0,1,131.976,90.1l-.028,0c-.26-.047-.513-.093-.767-.14h0q-1.9-.356-3.627-.737h-.011v0q-.14.842-.305,1.8c-2.144,12.365-7.823,37.827-24.67,52.16q-.6.508-1.219,1a43.466,43.466,0,0,1-4.718,3.271c-3.616,2.163-6.868,4-9.857,5.568-.5.264-.985.518-1.468.768a137.745,137.745,0,0,1-20.2,8.449l-.017.006-.048.017c-1.273.431-2.551.856-3.854,1.29-5.041,1.672-10.43,3.451-17.156,6.163h-.006c-1.1.444-2.228.914-3.408,1.412-1.137.475-2.31.987-3.532,1.521q-2.358,1.04-4.933,2.235c-4.233,1.973-8.936,4.287-14.239,7.052a19.684,19.684,0,0,0-3.869,2.677q-.724.632-1.425,1.352a34.536,34.536,0,0,0-4.565,5.962A52.846,52.846,0,0,0,5.2,197.2c-.31.66-.617,1.329-.918,2.021a91.9,91.9,0,0,0-3.623,10.02H302.831a91.016,91.016,0,0,0-3.62-10.02" transform="translate(0.774 94.912)" fill="#e7dde5"/>
      <path id="Path_9607" data-name="Path 9607" d="M299.21,199.216c-.3-.691-.606-1.36-.918-2.021a52.839,52.839,0,0,0-2.85-5.275,34.42,34.42,0,0,0-4.562-5.962q-.7-.718-1.425-1.352a19.748,19.748,0,0,0-3.869-2.677c-5.305-2.766-10.008-5.079-14.241-7.052-1.719-.8-3.358-1.542-4.933-2.235-1.219-.535-2.393-1.046-3.532-1.521-1.178-.5-2.31-.968-3.408-1.412h0c-6.728-2.712-12.117-4.491-17.156-6.163-1.306-.433-2.583-.859-3.854-1.29l-.05-.017-.017-.006a145.086,145.086,0,0,1-30.334-14.08q-.585-.347-1.187-.706c-.048-.031-.1-.06-.147-.091a43.843,43.843,0,0,1-4.268-2.941c-.364-.283-.719-.572-1.074-.865-18.07-14.984-23.511-42.72-25.423-54.333v0h-.009c-.974.213-1.992.425-3.051.627-.442.085-.89.169-1.347.25a122.607,122.607,0,0,1-19.8,1.924A122.552,122.552,0,0,1,131.976,90.1l-.028,0c-.26-.047-.513-.093-.767-.14h0q-1.9-.356-3.627-.737h-.011v0q-.14.842-.305,1.8c-2.144,12.365-7.823,37.827-24.67,52.16q-.6.508-1.219,1a43.466,43.466,0,0,1-4.718,3.271c-3.616,2.163-6.868,4-9.857,5.568-.5.264-.985.518-1.468.768a137.745,137.745,0,0,1-20.2,8.449l-.017.006-.048.017c-1.273.431-2.551.856-3.854,1.29-5.041,1.672-10.43,3.451-17.156,6.163h-.006c-1.1.444-2.228.914-3.408,1.412-1.137.475-2.31.987-3.532,1.521q-2.358,1.04-4.933,2.235c-4.233,1.973-8.936,4.287-14.239,7.052a19.684,19.684,0,0,0-3.869,2.677q-.724.632-1.425,1.352a34.536,34.536,0,0,0-4.565,5.962A52.846,52.846,0,0,0,5.2,197.2c-.31.66-.617,1.329-.918,2.021a91.9,91.9,0,0,0-3.623,10.02H302.831A91.016,91.016,0,0,0,299.21,199.216Z" transform="translate(0.774 94.912)" fill="none" stroke="#2e2e2e" stroke-miterlimit="10" stroke-width="1"/>
      <path id="Path_9608" data-name="Path 9608" d="M45.342,141.11c3.194,10.539,9.133,23.66,20.14,34.146h-2.12c-10.586-10.525-16.37-23.4-19.516-33.808a111.164,111.164,0,0,1-3.982-19.58c-.08-.69-.149-1.353-.206-1.987a.7.7,0,0,1,.526-.727l.015,0a.762.762,0,0,1,1,.606c.039.445.087.9.139,1.373a109.812,109.812,0,0,0,4.008,19.982" transform="translate(46.212 128.891)" fill="#fff"/>
      <path id="Path_9609" data-name="Path 9609" d="M45.342,141.015c3.194,10.494,9.133,23.558,20.14,34h-2.12c-10.586-10.48-16.37-23.3-19.516-33.663a110.267,110.267,0,0,1-3.982-19.5c-.08-.687-.149-1.347-.206-1.979a.7.7,0,0,1,.526-.724l.015,0a.762.762,0,0,1,1,.6c.039.443.087.9.139,1.367A108.925,108.925,0,0,0,45.342,141.015Z" transform="translate(46.212 129.132)" fill="none" stroke="#2e2e2e" stroke-miterlimit="10" stroke-width="1"/>
      <path id="Path_9610" data-name="Path 9610" d="M119.907,118.14c-.061.12-.121.241-.182.363-3.413,6.794-7.667,14.786-12.531,22.94Q92.481,166.16,78.718,179.586H76.466c17.273-16.366,32.7-43.566,41.923-61.877.037-.072.074-.142.108-.213a.781.781,0,0,1,1.072-.316l.03.016a.71.71,0,0,1,.307.943" transform="translate(89.108 124.56)" fill="#fff"/>
      <path id="Path_9611" data-name="Path 9611" d="M119.907,118.14c-.061.12-.121.241-.182.363-3.413,6.794-7.667,14.786-12.531,22.94Q92.481,166.16,78.718,179.586H76.466c17.273-16.366,32.7-43.566,41.923-61.877.037-.072.074-.142.108-.213a.781.781,0,0,1,1.072-.316l.03.016A.71.71,0,0,1,119.907,118.14Z" transform="translate(89.108 124.56)" fill="none" stroke="#2e2e2e" stroke-miterlimit="10" stroke-width="1"/>
      <path id="Path_9612" data-name="Path 9612" d="M47.658,115.3a.732.732,0,0,0-.52.865Q49.6,126.493,52.612,139c2.261,9.442,9.75,17.747,19.546,21.675a34.572,34.572,0,0,0,5.435,1.684c10.448,2.336,22.225.047,33.747-6.67a70.246,70.246,0,0,0,19.845-17.411L148.4,116.6c.078-.1.056-.2,0-.336-.249-.6-.825-.854-1.234-.336l-17.221,21.464a68.809,68.809,0,0,1-19.41,17.031c-13.137,7.659-26.562,9.393-37.781,4.887-9.337-3.748-16.48-11.657-18.63-20.641q-3-12.5-5.478-22.835a.776.776,0,0,0-.99-.537" transform="translate(54.909 122.623)" fill="#fff"/>
      <path id="Path_9613" data-name="Path 9613" d="M47.658,115.3a.732.732,0,0,0-.52.865Q49.6,126.493,52.612,139c2.261,9.442,9.75,17.747,19.546,21.675a34.572,34.572,0,0,0,5.435,1.684c10.448,2.336,22.225.047,33.747-6.67a70.246,70.246,0,0,0,19.845-17.411L148.4,116.6c.078-.1.056-.2,0-.336-.249-.6-.825-.854-1.234-.336l-17.221,21.464a68.809,68.809,0,0,1-19.41,17.031c-13.137,7.659-26.562,9.393-37.781,4.887-9.337-3.748-16.48-11.657-18.63-20.641q-3-12.5-5.478-22.835A.776.776,0,0,0,47.658,115.3Z" transform="translate(54.909 122.623)" fill="none" stroke="#2e2e2e" stroke-miterlimit="10" stroke-width="1"/>
      <path id="Path_9614" data-name="Path 9614" d="M47.189,120.238a2.154,2.154,0,0,1,.63-3.075,2.4,2.4,0,0,1,3.226.6,2.152,2.152,0,0,1-.63,3.075,2.4,2.4,0,0,1-3.226-.6" transform="translate(54.529 124.244)" fill="#fff"/>
      <path id="Path_9615" data-name="Path 9615" d="M47.189,120.238a2.154,2.154,0,0,1,.63-3.075,2.4,2.4,0,0,1,3.226.6,2.152,2.152,0,0,1-.63,3.075A2.4,2.4,0,0,1,47.189,120.238Z" transform="translate(54.529 124.244)" fill="none" stroke="#2e2e2e" stroke-miterlimit="10" stroke-width="1"/>
      <path id="Path_9616" data-name="Path 9616" d="M48.38,124.561a2.152,2.152,0,0,1,.632-3.075,2.393,2.393,0,0,1,3.224.6,2.152,2.152,0,0,1-.63,3.075,2.4,2.4,0,0,1-3.226-.6" transform="translate(55.917 128.843)" fill="#fff"/>
      <path id="Path_9617" data-name="Path 9617" d="M48.38,124.561a2.152,2.152,0,0,1,.632-3.075,2.393,2.393,0,0,1,3.224.6,2.152,2.152,0,0,1-.63,3.075A2.4,2.4,0,0,1,48.38,124.561Z" transform="translate(55.917 128.843)" fill="none" stroke="#2e2e2e" stroke-miterlimit="10" stroke-width="1"/>
      <path id="Path_9618" data-name="Path 9618" d="M49.223,128.8a2.154,2.154,0,0,1,.63-3.075,2.4,2.4,0,0,1,3.226.6,2.152,2.152,0,0,1-.63,3.075,2.4,2.4,0,0,1-3.226-.6" transform="translate(56.9 133.355)" fill="#fff"/>
      <path id="Path_9619" data-name="Path 9619" d="M49.223,128.8a2.154,2.154,0,0,1,.63-3.075,2.4,2.4,0,0,1,3.226.6,2.152,2.152,0,0,1-.63,3.075A2.4,2.4,0,0,1,49.223,128.8Z" transform="translate(56.9 133.355)" fill="none" stroke="#2e2e2e" stroke-miterlimit="10" stroke-width="1"/>
      <path id="Path_9620" data-name="Path 9620" d="M51.112,133.288a2.152,2.152,0,0,1,.632-3.075,2.393,2.393,0,0,1,3.224.6,2.152,2.152,0,0,1-.63,3.075,2.4,2.4,0,0,1-3.226-.6" transform="translate(59.101 138.127)" fill="#fff"/>
      <path id="Path_9621" data-name="Path 9621" d="M51.112,133.288a2.152,2.152,0,0,1,.632-3.075,2.393,2.393,0,0,1,3.224.6,2.152,2.152,0,0,1-.63,3.075A2.4,2.4,0,0,1,51.112,133.288Z" transform="translate(59.101 138.127)" fill="none" stroke="#2e2e2e" stroke-miterlimit="10" stroke-width="1"/>
      <path id="Path_9622" data-name="Path 9622" d="M57.8,139.267a2.152,2.152,0,0,1,.632-3.075,2.394,2.394,0,0,1,3.224.6,2.152,2.152,0,0,1-.63,3.075,2.4,2.4,0,0,1-3.226-.6" transform="translate(66.89 144.488)" fill="#fff"/>
      <path id="Path_9623" data-name="Path 9623" d="M57.8,139.267a2.152,2.152,0,0,1,.632-3.075,2.394,2.394,0,0,1,3.224.6,2.152,2.152,0,0,1-.63,3.075A2.4,2.4,0,0,1,57.8,139.267Z" transform="translate(66.89 144.488)" fill="none" stroke="#2e2e2e" stroke-miterlimit="10" stroke-width="1"/>
      <path id="Path_9624" data-name="Path 9624" d="M67.529,140.08A2.152,2.152,0,0,1,68.161,137a2.393,2.393,0,0,1,3.224.6,2.152,2.152,0,0,1-.63,3.075,2.4,2.4,0,0,1-3.226-.6" transform="translate(78.232 145.353)" fill="#fff"/>
      <path id="Path_9625" data-name="Path 9625" d="M67.529,140.08A2.152,2.152,0,0,1,68.161,137a2.393,2.393,0,0,1,3.224.6,2.152,2.152,0,0,1-.63,3.075A2.4,2.4,0,0,1,67.529,140.08Z" transform="translate(78.232 145.353)" fill="none" stroke="#2e2e2e" stroke-miterlimit="10" stroke-width="1"/>
      <path id="Path_9626" data-name="Path 9626" d="M75.99,136.918a2.154,2.154,0,0,1,.63-3.075,2.4,2.4,0,0,1,3.226.6,2.15,2.15,0,0,1-.63,3.073,2.4,2.4,0,0,1-3.226-.6" transform="translate(88.092 141.989)" fill="#fff"/>
      <path id="Path_9627" data-name="Path 9627" d="M75.99,136.918a2.154,2.154,0,0,1,.63-3.075,2.4,2.4,0,0,1,3.226.6,2.15,2.15,0,0,1-.63,3.073A2.4,2.4,0,0,1,75.99,136.918Z" transform="translate(88.092 141.989)" fill="none" stroke="#2e2e2e" stroke-miterlimit="10" stroke-width="1"/>
      <path id="Path_9628" data-name="Path 9628" d="M53.675,136.462a2.152,2.152,0,0,1,.632-3.075,2.393,2.393,0,0,1,3.224.6,2.152,2.152,0,0,1-.63,3.075,2.4,2.4,0,0,1-3.226-.6" transform="translate(62.088 141.504)" fill="#fff"/>
      <path id="Path_9629" data-name="Path 9629" d="M53.675,136.462a2.152,2.152,0,0,1,.632-3.075,2.393,2.393,0,0,1,3.224.6,2.152,2.152,0,0,1-.63,3.075A2.4,2.4,0,0,1,53.675,136.462Z" transform="translate(62.088 141.504)" fill="none" stroke="#2e2e2e" stroke-miterlimit="10" stroke-width="1"/>
      <path id="Path_9630" data-name="Path 9630" d="M61.976,140.247a2.152,2.152,0,0,1,.632-3.075,2.393,2.393,0,0,1,3.224.6,2.152,2.152,0,0,1-.63,3.075,2.4,2.4,0,0,1-3.226-.6" transform="translate(71.761 145.531)" fill="#fff"/>
      <path id="Path_9631" data-name="Path 9631" d="M61.976,140.247a2.152,2.152,0,0,1,.632-3.075,2.393,2.393,0,0,1,3.224.6,2.152,2.152,0,0,1-.63,3.075A2.4,2.4,0,0,1,61.976,140.247Z" transform="translate(71.761 145.531)" fill="none" stroke="#2e2e2e" stroke-miterlimit="10" stroke-width="1"/>
      <path id="Path_9632" data-name="Path 9632" d="M72.2,138.97a2.154,2.154,0,0,1,.63-3.075,2.4,2.4,0,0,1,3.226.6,2.152,2.152,0,0,1-.63,3.075,2.4,2.4,0,0,1-3.226-.6" transform="translate(83.675 144.172)" fill="#fff"/>
      <path id="Path_9633" data-name="Path 9633" d="M72.2,138.97a2.154,2.154,0,0,1,.63-3.075,2.4,2.4,0,0,1,3.226.6,2.152,2.152,0,0,1-.63,3.075A2.4,2.4,0,0,1,72.2,138.97Z" transform="translate(83.675 144.172)" fill="none" stroke="#2e2e2e" stroke-miterlimit="10" stroke-width="1"/>
      <path id="Path_9634" data-name="Path 9634" d="M82.42,131.443a2.152,2.152,0,0,1,.632-3.075,2.393,2.393,0,0,1,3.224.6,2.152,2.152,0,0,1-.63,3.075,2.4,2.4,0,0,1-3.226-.6" transform="translate(95.585 136.165)" fill="#fff"/>
      <path id="Path_9635" data-name="Path 9635" d="M82.42,131.443a2.152,2.152,0,0,1,.632-3.075,2.393,2.393,0,0,1,3.224.6,2.152,2.152,0,0,1-.63,3.075A2.4,2.4,0,0,1,82.42,131.443Z" transform="translate(95.585 136.165)" fill="none" stroke="#2e2e2e" stroke-miterlimit="10" stroke-width="1"/>
      <path id="Path_9636" data-name="Path 9636" d="M79.512,134.437a2.152,2.152,0,0,1,.632-3.075,2.393,2.393,0,0,1,3.224.6,2.152,2.152,0,0,1-.63,3.075,2.4,2.4,0,0,1-3.226-.6" transform="translate(92.196 139.35)" fill="#fff"/>
      <path id="Path_9637" data-name="Path 9637" d="M79.512,134.437a2.152,2.152,0,0,1,.632-3.075,2.393,2.393,0,0,1,3.224.6,2.152,2.152,0,0,1-.63,3.075A2.4,2.4,0,0,1,79.512,134.437Z" transform="translate(92.196 139.35)" fill="none" stroke="#2e2e2e" stroke-miterlimit="10" stroke-width="1"/>
      <path id="Path_9638" data-name="Path 9638" d="M85.409,128.1a2.154,2.154,0,0,1,.63-3.075,2.4,2.4,0,0,1,3.226.6,2.152,2.152,0,0,1-.63,3.075,2.4,2.4,0,0,1-3.226-.6" transform="translate(99.068 132.609)" fill="#fff"/>
      <path id="Path_9639" data-name="Path 9639" d="M85.409,128.1a2.154,2.154,0,0,1,.63-3.075,2.4,2.4,0,0,1,3.226.6,2.152,2.152,0,0,1-.63,3.075A2.4,2.4,0,0,1,85.409,128.1Z" transform="translate(99.068 132.609)" fill="none" stroke="#2e2e2e" stroke-miterlimit="10" stroke-width="1"/>
      <path id="Path_9640" data-name="Path 9640" d="M90.936,120.208a2.154,2.154,0,0,1,.63-3.075,2.4,2.4,0,0,1,3.226.6,2.152,2.152,0,0,1-.63,3.075,2.4,2.4,0,0,1-3.226-.6" transform="translate(105.509 124.212)" fill="#fff"/>
      <path id="Path_9641" data-name="Path 9641" d="M90.936,120.208a2.154,2.154,0,0,1,.63-3.075,2.4,2.4,0,0,1,3.226.6,2.152,2.152,0,0,1-.63,3.075A2.4,2.4,0,0,1,90.936,120.208Z" transform="translate(105.509 124.212)" fill="none" stroke="#2e2e2e" stroke-miterlimit="10" stroke-width="1"/>
      <path id="Path_9642" data-name="Path 9642" d="M88.214,123.98a2.151,2.151,0,0,1,.632-3.075,2.394,2.394,0,0,1,3.224.6,2.151,2.151,0,0,1-.63,3.073,2.4,2.4,0,0,1-3.226-.6" transform="translate(102.337 128.225)" fill="#fff"/>
      <path id="Path_9643" data-name="Path 9643" d="M88.214,123.98a2.151,2.151,0,0,1,.632-3.075,2.394,2.394,0,0,1,3.224.6,2.151,2.151,0,0,1-.63,3.073A2.4,2.4,0,0,1,88.214,123.98Z" transform="translate(102.337 128.225)" fill="none" stroke="#2e2e2e" stroke-miterlimit="10" stroke-width="1"/>
  </svg>
  